<?xml version="1.0" encoding="UTF-8"?>
<svg width="23px" height="19px" viewBox="0 0 23 19" version="1.1" xmlns="http://www.w3.org/2000/svg" xmlns:xlink="http://www.w3.org/1999/xlink">
    <!-- Generator: Sketch 52.5 (67469) - http://www.bohemiancoding.com/sketch -->
    <title>icon_email</title>
    <desc>Created with Sketch.</desc>
    <defs>
        <path d="M11.7118929,7.98378745 L17.6773294,4.3894564 C18.1503817,4.10443007 18.7649258,4.25685521 19.0499521,4.72990747 L19.0946181,4.80403866 C19.3789958,5.27601439 19.2279796,5.88909973 18.7569219,6.17499543 L11.7527969,10.4259586 L11.7462769,10.4367798 L4.91930141,6.32334899 C4.44624915,6.03832266 4.29382401,5.42377855 4.57885034,4.95072629 L4.62185749,4.87934822 C4.90688381,4.40629596 5.52142793,4.25387082 5.99448019,4.53889714 L11.7118929,7.98378745 Z M3.40909091,0.0946969697 L20.0757576,0.0946969697 C21.7968875,0.0946969697 23.2007576,1.49856702 23.2007576,3.21969697 L23.2007576,15.719697 C23.2007576,17.4408269 21.7968875,18.844697 20.0757576,18.844697 L3.40909091,18.844697 C1.68796096,18.844697 0.284090909,17.4408269 0.284091271,15.7188289 L0.294507576,3.21969697 C0.294507576,1.49818527 1.68831665,0.0946969697 3.40909091,0.0946969697 Z M3.40909091,2.1780303 C2.84214966,2.1780303 2.37784091,2.64556342 2.37784055,3.22056502 L2.36742424,15.719697 C2.36742424,16.2902337 2.83855419,16.7613636 3.40909091,16.7613636 L20.0757576,16.7613636 C20.6462943,16.7613636 21.1174242,16.2902337 21.1174242,15.719697 L21.1174242,3.21969697 C21.1174242,2.64916025 20.6462943,2.1780303 20.0757576,2.1780303 L3.40909091,2.1780303 Z" id="path-1"></path>
    </defs>
    <g id="Symbols" stroke="none" stroke-width="1" fill="none" fill-rule="evenodd">
        <g id="header_TAB" transform="translate(-629.000000, -720.000000)">
            <g id="Group-13" transform="translate(0.000000, 702.000000)">
                <g id="icon_email/form" transform="translate(628.000000, 15.000000)">
                    <g id="Message" transform="translate(0.757576, 3.030303)">
                        <mask id="mask-2" fill="white">
                            <use xlink:href="#path-1"></use>
                        </mask>
                        <use id="Mask" fill="#979797" fill-rule="nonzero" xlink:href="#path-1"></use>
                        <g id="Atoms-/-Colors-/-Gray-#2" mask="url(#mask-2)" fill="#FFFFFF">
                            <g transform="translate(-0.757576, -3.030303)" id="Atoms-/-Colors-/-Black">
                                <rect x="0" y="0" width="25" height="25"></rect>
                            </g>
                        </g>
                    </g>
                </g>
            </g>
        </g>
    </g>
</svg>