<svg xmlns="http://www.w3.org/2000/svg" width="25" height="28" viewBox="0 0 25 28">
  <path fill="#FFF" d="M10.8365128,1.32691478 L10.8365128,22.0082086 L2.64259286,14.9848487 C2.0380726,14.4666884 1.05814603,14.4666884 0.453625772,14.9848487 C-0.150894488,15.5030089 -0.150894488,16.3432777 0.453625772,16.8614379 L11.2900965,26.1498414 C11.8946168,26.6680016 12.8749304,26.6680016 13.4790636,26.1498414 L24.3155343,16.8614379 C24.6177945,16.6023578 24.769118,16.2626676 24.769118,15.9229774 C24.769118,15.5836189 24.6177945,15.2439288 24.3155343,14.9848487 C23.7110141,14.4666884 22.7307005,14.4666884 22.1265672,14.9848487 L13.9326473,22.0082086 L13.9326473,1.32691478 C13.9326473,0.594457823 13.2395002,0 12.38458,0 C11.5296599,0 10.8365128,0.594126094 10.8365128,1.32691478 Z" transform="translate(-.03 .85)"/>
</svg>
