<svg xmlns="http://www.w3.org/2000/svg" width="63" height="61" viewBox="0 0 63 61">
  <defs>
    <linearGradient id="icon_trusted-a" x1="24.897%" x2="74.31%" y1="-11.996%" y2="109.898%">
      <stop offset="0%" stop-color="#C38454"/>
      <stop offset="36%" stop-color="#C38454"/>
      <stop offset="47.047%" stop-color="#BE8651"/>
      <stop offset="68%" stop-color="#B67F4F"/>
      <stop offset="85%" stop-color="#92683F"/>
      <stop offset="100%" stop-color="#876045"/>
    </linearGradient>
  </defs>
  <g fill="url(#icon_trusted-a)" transform="translate(0 3)">
    <path d="M24.5995912,7.66669614 L21.33144,4.39987941 C20.7974936,3.86636539 19.9328527,3.86677537 19.3995892,4.40069936 C18.8664623,4.93462335 18.8668721,5.79980706 19.4004088,6.33332108 L22.6686966,9.60013781 C22.9354649,9.86675815 23.2848727,10 23.6341439,10 C23.9839615,10 24.3336425,9.86634818 24.6004108,9.59931786 C25.1335377,9.06539387 25.1331279,8.20021015 24.5995912,7.66669614 Z"/>
    <path d="M33.8422319,4.90933682 L30.5740807,1.6425201 C30.0401342,1.10900608 29.1754934,1.10941606 28.6422299,1.64334005 C28.109103,2.17726404 28.1095128,3.04244775 28.6430494,3.57596176 L31.9113373,6.84277849 C32.1781056,7.10939884 32.5275134,7.24264069 32.8767846,7.24264069 C33.2266022,7.24264069 33.5762832,7.10898887 33.8430515,6.84195854 C34.3761784,6.30803455 34.3757686,5.44285084 33.8422319,4.90933682 Z" transform="rotate(45 31.243 4.243)"/>
    <path d="M43.6129068 4.38628845C43.0969809 3.87086338 42.2608296 3.87139134 41.7452998 4.3869484L38.3863008 7.74704469C37.8709031 8.26273374 37.8712992 9.0983691 38.3870932 9.61366218 38.6449901 9.87130872 38.9829104 10 39.3205666 10 39.658751 10 39.9968033 9.87091275 40.2547002 9.61300223L43.6136992 6.25290595C44.1290969 5.73721689 44.1287008 4.90158153 43.6129068 4.38628845zM54.9404297 28.7876914L53.9474414 28.7876914C54.7578281 27.7470776 55.2410332 26.4468255 55.2410332 25.0369969L55.2410332 23.3263175C55.2410332 19.9213225 52.429043 17.1512413 48.9726562 17.1512413 45.5162695 17.1512413 42.7042793 19.9213225 42.7042793 23.3261963L42.7042793 24.6560243 33.4473398 15.5369262C32.9336191 15.0309831 32.1781113 14.8685576 31.500123 15.1097716 30.8223809 14.8685576 30.066627 15.0309831 29.5527832 15.5370475L20.2959668 24.6560243 20.2959668 23.3261963C20.2957207 19.9213225 17.4837305 17.1512413 14.0273437 17.1512413 10.570957 17.1512413 7.7589668 19.9213225 7.7589668 23.3261963L7.7589668 25.0368756C7.7589668 26.4468255 8.24217187 27.7469564 9.05255859 28.7875702L8.05957031 28.7875702C3.61548633 28.7876914 0 32.3492936 0 36.7271443L0 52.7878698C0 53.4573293.551003906 54 1.23046875 54L6.42919922 54C6.55224609 54 6.67086328 53.9816968 6.78295898 53.9486057 6.89505469 53.9816968 7.01367187 54 7.13671875 54L20.9179687 54C21.5974336 54 22.1484375 53.4573293 22.1484375 52.7878698L22.1484375 44.666627C22.1484375 43.9971675 21.5974336 43.4544968 20.9179687 43.4544968 20.2385039 43.4544968 19.6875 43.9971675 19.6875 44.666627L19.6875 51.5757396 8.3671875 51.5757396 8.3671875 37.7638793C8.3671875 37.0944198 7.81618359 36.5517491 7.13671875 36.5517491 6.45725391 36.5517491 5.90625 37.0944198 5.90625 37.7638793L5.90625 51.5757396 2.4609375 51.5757396 2.4609375 36.7271443C2.4609375 33.6860308 4.97244727 31.2119518 8.05957031 31.2119518L16.6113281 31.2119518C16.9499531 31.2119518 17.2565859 31.0770417 17.4790547 30.8591007 17.4796289 30.8585351 21.7407012 26.6610493 30.2622715 18.2666435 30.1784766 20.7839955 29.3835937 23.2086196 27.9505898 25.3052413L19.897418 37.0869046C19.7607129 37.2870273 19.687623 37.5227866 19.687623 37.7638793L19.687623 49.0907983C19.687623 49.7602578 20.238627 50.3029285 20.9180918 50.3029285 21.5975566 50.3029285 22.1485605 49.7602578 22.1485605 39.0907983L22.1485605 38.1338215 29.9919375 26.6590695C30.5911758 25.7823357 31.0936992 24.8560258 31.500123 23.8944429 31.9065469 24.8560258 32.4089473 25.7823357 33.0083086 26.6590695L40.8515625 38.1338215 40.8515625 52.7878698C40.8515625 53.4573293 41.4025664 54 42.0820312 54L55.8632812 54C55.9863281 54 56.1049453 53.9816968 56.217041 53.9486057 56.3291367 53.9816968 56.4477539 54 56.5708008 54L61.7695312 54C62.4489961 54 63 53.4573293 63 52.7878698L63 36.7271443C63 32.3492936 59.3845137 28.7876914 54.9404297 28.7876914zM17.8347832 25.0368756C17.8347832 27.1051334 16.1268926 28.7876914 14.0273437 28.7876914 11.9277949 28.7876914 10.2199043 27.1051334 10.2199043 25.0369969L10.2199043 23.3263175C10.2199043 21.2580597 11.927918 19.5755017 14.0273437 19.5755017 16.1267695 19.5755017 17.8347832 21.2580597 17.8347832 23.3261963L17.8347832 25.0368756zM45.1652168 23.3261963C45.1652168 21.2580597 46.8732305 19.5755017 48.9726562 19.5755017 51.072082 19.5755017 52.7800957 21.2580597 52.7800957 23.3261963L52.7800957 25.0368756C52.7800957 27.1051334 51.0722051 28.7876914 48.9726562 28.7876914 46.8731074 28.7876914 45.1652168 27.1051334 45.1652168 25.0369969L45.1652168 23.3261963zM57.09375 51.5757396L57.09375 37.6059759C57.09375 36.9365164 56.5427461 36.3938457 55.8632812 36.3938457 55.1838164 36.3938457 54.6328125 36.9365164 54.6328125 37.6059759L54.6328125 51.5757396 43.3125 51.5757396 43.3125 37.7638793C43.3125 37.5226654 43.2394102 37.2869061 43.1027051 37.0869046L35.0495332 25.3053625C33.6165293 23.2087408 32.8216465 20.7841168 32.7378516 18.2667647L45.5186074 30.8570401C45.7830352 31.0927994 46.071457 31.2121943 46.3886719 31.2121943L54.9404297 31.2121943C58.0275527 31.2121943 60.5390625 33.6862733 60.5390625 36.7273868L60.5390625 51.5757396 57.09375 51.5757396z"/>
  </g>
</svg>
