<svg xmlns="http://www.w3.org/2000/svg" width="25" height="11" viewBox="0 0 25 11">
  <path fill="#87CFEE" d="M194.291663,4.81262354 L172.418372,4.81262354 L176.167598,1.17365761 C176.444203,0.90518676 176.444026,0.469995859 176.167598,0.201353135 C175.890992,-0.0671177118 175.442615,-0.0671177118 175.165833,0.201353135 L170.207476,5.01389073 C169.930871,5.28236158 169.930871,5.71772437 170.207299,5.98602334 L175.165656,10.7985609 C175.303958,10.9327963 175.485293,11 175.666627,11 C175.847784,11 176.029118,10.9327963 176.167598,10.798389 C176.444203,10.5300901 176.444026,10.0947273 176.167598,9.82642831 L172.418195,6.18763425 L194.291663,6.18763425 C194.682842,6.18763425 195.000177,5.87963189 195,5.50012892 C195,5.12045406 194.682842,4.81262354 194.291663,4.81262354 Z" transform="matrix(-1 0 0 1 195 0)"/>
</svg>
