<svg xmlns="http://www.w3.org/2000/svg" xmlns:xlink="http://www.w3.org/1999/xlink" width="64" height="64" viewBox="0 0 64 64">
  <defs>
    <path id="icon_desktop_arrow_down_homepage-a" d="M20.816863,11.8752021 L0.039414078,11.8752021 L6.30175741,5.92053063 C6.76377237,5.4812147 6.76347658,4.76908413 6.30175741,4.32948695 C5.83974254,3.89017102 5.09081687,3.89017102 4.62850614,4.32948695 L-3.65345181,12.2045485 C-4.11546675,12.6438644 -4.11546675,13.3562762 -3.6537476,13.7953109 L4.62821036,21.6703724 C4.85921783,21.8900303 5.16210089,22 5.46498387,22 C5.76757116,22 6.07045414,21.8900303 6.30175741,21.6700911 C6.76377237,21.2310565 6.76347658,20.5186446 6.30175741,20.07961 L0.0391182951,14.1252197 L20.816863,14.1252197 C21.4702503,14.1252197 22.0002957,13.6212158 21.9999999,13.000211 C21.9999999,12.3789248 21.4702503,11.8752021 20.816863,11.8752021 Z"/>
  </defs>
  <g fill="none" fill-rule="evenodd" transform="translate(1 1)">
    <circle cx="31" cy="31" r="31" stroke="#FFF" stroke-width="1.6"/>
    <g transform="translate(22 18)">
      <use fill="#FFF" fill-rule="nonzero" transform="matrix(0 -1 -1 0 22 22)" xlink:href="#icon_desktop_arrow_down_homepage-a"/>
    </g>
  </g>
</svg>
