<svg id="Layer_1" data-name="Layer 1" xmlns="http://www.w3.org/2000/svg" xmlns:xlink="http://www.w3.org/1999/xlink" viewBox="0 0 848 601"><defs><style>.cls-1{fill:url(#New_Gradient_Swatch_1);}</style><linearGradient id="New_Gradient_Swatch_1" x1="285.35" y1="43.48" x2="576.95" y2="548.53" gradientUnits="userSpaceOnUse"><stop offset="0" stop-color="#c18354"/><stop offset="0.13" stop-color="#f9a568"/><stop offset="0.36" stop-color="#c38454"/><stop offset="0.53" stop-color="#996d43"/><stop offset="0.68" stop-color="#b67f4f"/><stop offset="0.85" stop-color="#92683f"/><stop offset="0.98" stop-color="#876045"/></linearGradient></defs><title>SKL_logo_bronze</title><path class="cls-1" d="M209.87,498.15c-35.93-3.51-67.92-37.54-68.13-74.51q-.75-127.84,0-255.71c.23-36.15,31.59-69.42,67.79-74.36a161.43,161.43,0,0,1,21.86-1.38q202.55.07,405.1,0c20.88,0,40,5.67,55.88,19.58,16.31,14.24,27.32,31.89,27.32,54,0,3.36,0,5.15,0,7.74q0,122.29,0,244.59c0,2.59,0,5.31,0,7.73,0,34.68-33.25,69.85-68.22,72.36l-1.72-.16q-219.09-.26-438.2,0l-1.72.11"/></svg>