<svg xmlns="http://www.w3.org/2000/svg" width="28" height="28" viewBox="0 0 28 28">
  <path fill="#FFF" stroke="#FFF" d="M26.4241158,21.4081637 C26.4241158,21.5577747 26.3742455,21.7073857 26.3742455,21.8071264 C26.2745048,22.1562188 26.1248938,22.4554408 25.9254124,22.7047925 C25.127487,23.7520696 24.2796913,24.7494764 23.2822845,25.5972721 C23.0329328,25.7967535 22.7835811,25.9962348 22.4843591,26.1957162 C22.185137,26.3951975 21.885915,26.4949382 21.5368227,26.4450679 C20.7388972,26.3951975 19.9409718,26.2455865 19.1929167,26.0461052 C17.7466769,25.5972721 16.4500481,24.8990874 15.2032897,24.101162 C13.7071795,23.1536255 12.2609397,22.0564781 10.9144406,20.85959 C9.21884906,19.4133502 7.67286857,17.8174993 6.17675842,16.1717782 C4.73051861,14.5759273 3.43388981,12.9302062 2.28687203,11.134874 C1.58868729,9.9878562 0.990243227,8.84083842 0.541410182,7.54420962 C0.29205849,6.74628421 0.0925771359,5.89848845 0.0427067975,5.0506927 C-0.00716354088,4.60185965 0.0925771359,4.20289695 0.341928828,3.85380458 C0.740891535,3.30523086 1.18972458,2.80652747 1.63855763,2.35769443 C2.33674236,1.70938003 3.0349271,1.11093597 3.78298218,0.512491905 C4.13207455,0.263140213 4.53103725,0.0636588597 4.9798703,0.0636588597 C5.6281847,0.0137885213 6.12688808,0.213269875 6.47598045,0.761843597 C7.52325756,2.30782409 8.52066433,3.90367492 9.56794143,5.44965541 C9.66768211,5.59926642 9.76742279,5.74887744 9.86716346,5.89848845 C10.2162558,6.3473215 10.2661262,6.89589522 10.1165152,7.44446894 C10.0167745,7.79356131 9.86716346,8.09278334 9.66768211,8.39200537 C9.2687194,9.04031977 8.91962703,9.73850451 8.52066433,10.3868189 C8.47079399,10.4366892 8.47079399,10.4865596 8.52066433,10.5364299 C8.96949737,11.1847443 9.46820076,11.7831884 9.96690414,12.3816324 C11.1637923,13.7281316 12.4105507,14.97489 13.7071795,16.1717782 C14.3554939,16.7702222 15.0038083,17.3187959 15.7019931,17.8174993 C15.9014744,17.9671103 15.9014744,17.9671103 16.1508261,17.8174993 C16.8490108,17.4185366 17.5970659,17.0195739 18.2952507,16.6206112 C18.6942134,16.4211299 19.0931761,16.2715188 19.5420091,16.2715188 C19.8412311,16.2715188 20.1404532,16.3712595 20.3898049,16.5208705 C21.3872116,17.1691849 22.4344887,17.8673697 23.4318955,18.5156841 C24.1799506,19.0143875 24.8781353,19.5130908 25.6261904,19.9619239 C26.0750234,20.2611459 26.2745048,20.6601086 26.3243751,21.158812 C26.3243751,21.2086823 26.3243751,21.2086823 26.3243751,21.2585527 C26.4241158,21.3582934 26.4241158,21.3582934 26.4241158,21.4081637 Z M1.23959492,5.15043338 C1.23959492,5.59926642 1.3393356,5.99822913 1.43907627,6.44706218 C1.68842796,7.54420962 2.13726101,8.54161639 2.68583473,9.48915282 C3.53363049,11.0850036 4.58090759,12.5312435 5.72792538,13.9276129 C6.9248135,15.3738528 8.17157196,16.7203519 9.51807109,18.0169807 C11.0640516,19.5130908 12.6599024,20.9593307 14.4053643,22.2060891 C15.7019931,23.1536255 17.0983625,24.0014213 18.5944727,24.6497357 C19.4921388,24.9988281 20.4396752,25.2980501 21.3872116,25.3479204 C21.5368227,25.3479204 21.6365633,25.3479204 21.7861743,25.2481798 C21.9856557,25.1484391 22.185137,24.9988281 22.3347481,24.8990874 C23.3321548,24.0512916 24.1799506,23.0538849 24.977876,22.0066078 C25.0277463,21.9068671 25.127487,21.8071264 25.127487,21.6575154 C25.2272277,21.3582934 25.127487,21.158812 24.8781353,20.9593307 C23.1825438,19.8621832 21.5368227,18.7650358 19.8412311,17.618018 C19.7414905,17.5681476 19.6417498,17.5182773 19.5420091,17.5182773 C19.2427871,17.5182773 18.9435651,17.618018 18.6942134,17.767629 C17.7965473,18.2663324 16.8490108,18.8149061 15.9513447,19.3136095 C15.9014744,19.3634798 15.8516041,19.3634798 15.8017337,19.3136095 C15.402771,19.0642578 15.0038083,18.7650358 14.6048456,18.5156841 C13.6573092,17.8174993 12.8095134,17.0195739 11.9617177,16.2216485 C10.7149592,15.0247604 9.56794143,13.8278723 8.47079399,12.5312435 C7.9720906,11.9327994 7.47338722,11.3343553 7.12429485,10.6860409 C7.07442451,10.6361706 7.07442451,10.5863003 7.12429485,10.4865596 C7.67286857,9.53902316 8.17157196,8.59148673 8.72014568,7.69382064 C8.81988636,7.49433928 8.91962703,7.29485793 8.91962703,7.09537657 C8.91962703,6.9956359 8.96949737,6.84602488 8.8697567,6.74628421 C7.72273891,5.00082236 6.57572113,3.30523086 5.42870335,1.55976901 C5.37883301,1.46002834 5.27909233,1.410158 5.22922199,1.410158 C4.92999996,1.36028766 4.68064827,1.410158 4.43129658,1.60963935 C3.73311184,2.10834273 3.0349271,2.7067868 2.43648304,3.30523086 C2.08739067,3.65432322 1.68842796,4.00341559 1.43907627,4.45224864 C1.3393356,4.60185965 1.18972458,4.85121135 1.23959492,5.15043338 Z" transform="translate(.694 .694)"/>
</svg>
