<?xml version="1.0" encoding="utf-8"?>
<!-- Generator: Adobe Illustrator 23.0.3, SVG Export Plug-In . SVG Version: 6.00 Build 0)  -->
<svg version="1.1" id="Layer_1" xmlns="http://www.w3.org/2000/svg" xmlns:xlink="http://www.w3.org/1999/xlink" x="0px" y="0px"
	 viewBox="0 0 43 34" style="enable-background:new 0 0 43 34;" xml:space="preserve">
<style type="text/css">
	.st0{fill-rule:evenodd;clip-rule:evenodd;fill:#1E99D3;}
</style>
<path class="st0" d="M12.12,0l5.99,4.74C13.66,7.52,9.2,13.1,8.5,17.84c0.28-0.14,1.39-0.28,2.23-0.28c4.18,0,7.39,3.34,7.39,7.94
	S14.49,34,9.61,34C4.46,34,0,29.68,0,22.3C0,13.24,5.02,5.02,12.12,0z M36.09,0l5.99,4.74c-4.46,2.79-8.78,8.36-9.48,13.1
	c0.28-0.14,1.25-0.28,2.09-0.28c4.18,0,7.52,3.34,7.52,7.94s-3.76,8.5-8.5,8.5c-5.16,0-9.61-4.32-9.61-11.7
	C24.11,13.24,29.12,5.02,36.09,0z"/>
</svg>
