<svg xmlns="http://www.w3.org/2000/svg" width="25" height="25" viewBox="0 0 25 25">
  <path fill="#14344E" fill-rule="evenodd" d="M18.6658016,19.7560976 L13.6313898,19.7560976 L13.6313898,12.1057289 L16.1994511,12.1057289 L16.5842298,9.12382877 L13.6313898,9.12382877 L13.6313898,7.2203852 C13.6313898,6.35718941 13.8714056,5.76898929 15.1091552,5.76898929 L16.6880931,5.76791299 L16.6880931,3.1013699 C16.41525,3.06477556 15.4777893,2.98405276 14.3874933,2.98405276 C12.1111104,2.98405276 10.5526223,4.37356119 10.5526223,6.92493976 L10.5526223,9.12382877 L7.97810319,9.12382877 L7.97810319,12.1057289 L10.5526223,12.1057289 L10.5526223,19.7560976 L1.09029592,19.7560976 C0.488103851,19.7560976 0,19.2679937 0,18.6658016 L0,1.09029592 C0,0.488103851 0.488103851,0 1.09029592,0 L18.6658016,0 C19.2679937,0 19.7560976,0.488103851 19.7560976,1.09029592 L19.7560976,18.6658016 C19.7560976,19.2679937 19.2679937,19.7560976 18.6658016,19.7560976 Z" transform="translate(3 3)"/>
</svg>
