<svg xmlns="http://www.w3.org/2000/svg" width="27" height="27" viewBox="0 0 27 27">
  <path fill="#FFF" d="M22.5338385,2.371983 C23.1879128,2.371983 23.71983,2.90390019 23.71983,3.5579745 L23.71983,16.603881 C23.71983,17.2576588 23.1879128,17.789576 22.5338385,17.789576 L12.2859825,17.789576 L7.115949,21.482457 L7.115949,20.1618555 L7.115949,17.789576 L3.5579745,17.789576 C2.90360369,17.789576 2.371983,17.2576588 2.371983,16.603881 L2.371983,3.5579745 C2.371983,2.90360369 2.90390019,2.371983 3.5579745,2.371983 L22.5338385,2.371983 Z M22.5338385,0 L3.5579745,0 C1.59308308,0 0,1.59308308 0,3.5579745 L0,16.603881 C0,18.5687724 1.59308308,20.1618555 3.5579745,20.1618555 L4.743966,20.1618555 L4.743966,26.091813 L13.0459065,20.1618555 L22.5338385,20.1618555 C24.4987299,20.1618555 26.091813,18.5687724 26.091813,16.603881 L26.091813,3.5579745 C26.091813,1.59308308 24.4987299,0 22.5338385,0 Z" transform="translate(.694 .694)"/>
</svg>
