<?xml version="1.0" encoding="utf-8"?>
<!-- Generator: Adobe Illustrator 15.0.0, SVG Export Plug-In  -->
<!DOCTYPE svg PUBLIC "-//W3C//DTD SVG 1.1//EN" "http://www.w3.org/Graphics/SVG/1.1/DTD/svg11.dtd" [
	<!ENTITY ns_flows "http://ns.adobe.com/Flows/1.0/">
]>
<svg version="1.1"
	 xmlns="http://www.w3.org/2000/svg" xmlns:xlink="http://www.w3.org/1999/xlink" xmlns:a="http://ns.adobe.com/AdobeSVGViewerExtensions/3.0/"
	 x="0px" y="0px" width="15px" height="18px" viewBox="0 0 15 18" overflow="visible" enable-background="new 0 0 15 18"
	 xml:space="preserve">
<defs>
</defs>
<g>
	<defs>
		<rect id="SVGID_1_" y="0" width="15.357" height="17.689"/>
	</defs>
	<clipPath id="SVGID_2_">
		<use xlink:href="#SVGID_1_"  overflow="visible"/>
	</clipPath>
	<path clip-path="url(#SVGID_2_)" d="M7.912,2.755V0.234C7.912,0.105,7.807,0,7.679,0S7.445,0.105,7.445,0.234v2.521
		C6.49,2.874,5.761,3.681,5.761,4.65c0,0.965,0.729,1.776,1.685,1.894v10.911c0,0.128,0.105,0.234,0.233,0.234
		s0.233-0.106,0.233-0.234V6.544C8.867,6.426,9.596,5.615,9.596,4.65C9.596,3.681,8.867,2.874,7.912,2.755 M9.128,4.65
		c0,0.797-0.651,1.448-1.449,1.448S6.23,5.447,6.23,4.65c0-0.799,0.651-1.449,1.449-1.449S9.128,3.852,9.128,4.65"/>
	<path clip-path="url(#SVGID_2_)" d="M2.151,10.842V0.234C2.151,0.105,2.045,0,1.916,0C1.787,0,1.682,0.105,1.682,0.234v10.607
		C0.73,10.959,0,11.77,0,12.736c0,0.969,0.73,1.778,1.682,1.896v2.822c0,0.128,0.105,0.234,0.234,0.234
		c0.129,0,0.235-0.106,0.235-0.234v-2.822c0.952-0.118,1.683-0.928,1.683-1.896C3.834,11.77,3.103,10.959,2.151,10.842
		 M3.365,12.736c0,0.801-0.651,1.449-1.449,1.449c-0.798,0-1.447-0.648-1.447-1.449c0-0.797,0.649-1.447,1.447-1.447
		C2.714,11.289,3.365,11.939,3.365,12.736"/>
	<path clip-path="url(#SVGID_2_)" d="M13.675,8.316V0.234C13.675,0.106,13.57,0,13.439,0c-0.129,0-0.233,0.106-0.233,0.234v8.082
		c-0.952,0.118-1.683,0.928-1.683,1.895c0,0.968,0.73,1.777,1.683,1.895v5.35c0,0.128,0.104,0.235,0.233,0.235
		c0.131,0,0.235-0.107,0.235-0.235v-5.35c0.952-0.117,1.683-0.927,1.683-1.895C15.357,9.242,14.627,8.432,13.675,8.316
		 M14.889,10.211c0,0.799-0.649,1.447-1.447,1.447c-0.799,0-1.451-0.648-1.451-1.447s0.652-1.448,1.451-1.448
		C14.239,8.763,14.889,9.412,14.889,10.211"/>
</g>
</svg>
