<?xml version="1.0" encoding="utf-8"?>
<!-- Generator: Adobe Illustrator 16.0.0, SVG Export Plug-In . SVG Version: 6.00 Build 0)  -->
<!DOCTYPE svg PUBLIC "-//W3C//DTD SVG 1.1//EN" "http://www.w3.org/Graphics/SVG/1.1/DTD/svg11.dtd">
<svg version="1.1" id="RAW_ICONS_-_SQUARE__x2F__ROUNDED__x2F__CIRCLE"
	 xmlns="http://www.w3.org/2000/svg" xmlns:xlink="http://www.w3.org/1999/xlink" x="0px" y="0px" width="16px" height="15.293px"
	 viewBox="0 0 16 15.293" enable-background="new 0 0 16 15.293" xml:space="preserve">
<g>
	<path fill="#112A3D" d="M1.939,0C0.768,0,0,0.771,0,1.783c0,0.99,0.744,1.783,1.895,1.783h0.022c1.196,0,1.94-0.793,1.94-1.783
		C3.836,0.771,3.113,0,1.939,0z"/>
	<rect x="0.202" y="4.977" fill="#112A3D" width="3.431" height="10.316"/>
	<path fill="#112A3D" d="M12.051,4.734c-1.82,0-2.635,0.998-3.092,1.703v0.033H8.937c0.008-0.01,0.017-0.021,0.022-0.033V4.977H5.53
		c0.044,0.967,0,10.316,0,10.316h3.429V9.531c0-0.311,0.022-0.615,0.113-0.836c0.248-0.615,0.813-1.256,1.76-1.256
		c1.242,0,1.738,0.947,1.738,2.334v5.52H16V9.377C16,6.207,14.307,4.734,12.051,4.734z"/>
	<path fill="#112A3D" d="M8.959,6.471V6.438C8.953,6.449,8.944,6.461,8.937,6.471H8.959z"/>
</g>
</svg>
