<?xml version="1.0" encoding="utf-8"?>
<!-- Generator: Adobe Illustrator 15.0.0, SVG Export Plug-In  -->
<!DOCTYPE svg PUBLIC "-//W3C//DTD SVG 1.1//EN" "http://www.w3.org/Graphics/SVG/1.1/DTD/svg11.dtd" [
	<!ENTITY ns_flows "http://ns.adobe.com/Flows/1.0/">
]>
<svg version="1.1"
	 xmlns="http://www.w3.org/2000/svg" xmlns:xlink="http://www.w3.org/1999/xlink" xmlns:a="http://ns.adobe.com/AdobeSVGViewerExtensions/3.0/"
	 x="0px" y="0px" width="30px" height="32px" viewBox="0 0 30 32" overflow="visible" enable-background="new 0 0 30 32"
	 xml:space="preserve">
<defs>
</defs>
<path fill="#2175BB" d="M9.018,29.079l17.868,0.002l0.005-0.42h0.002v-0.146V3.481H9.042l0.014,3.47
	C7.031,7.08,5.774,7.645,5.774,7.645L5.78,0h24.375v32.143L8.854,32.139l-2.877,0.004l-0.042-3.654
	c0.055-2.364-0.949-2.628-2.4-4.026c-2.838-2.644-3.335-5.369-3.42-6.178C0.041,17.802-0.004,17.265,0,16.69
	c-0.002-2.302,0.836-4.112,1.847-5.456c0.301-0.415,0.647-0.83,1.047-1.242c3.449-3.566,10.442-3.629,13.95,0
	c0.399,0.412,0.745,0.827,1.048,1.242c1.008,1.343,1.847,3.153,1.845,5.456c0.007,0.574-0.039,1.111-0.112,1.594
	c-0.087,0.809-0.581,3.534-3.419,6.178c-1.454,1.396-2.456,1.662-2.401,4.026l0.005,0.173l-3.082-0.002l0.036-1.599
	c0,0,0.017-2.149,2.74-4.033c1.255-0.869,2.184-1.919,2.777-3.056c2.563-4.742-1.252-9.814-6.412-9.919
	c-5.034-0.192-8.975,5.178-6.41,9.919c0.592,1.137,1.521,2.187,2.775,3.056c2.724,1.884,2.742,4.033,2.742,4.033L9.018,29.079z"/>
<rect x="0.115" y="0" fill="none" width="30.04" height="32.141"/>
</svg>
