<?xml version="1.0" encoding="UTF-8" standalone="no"?>
<svg width="468px" height="57px" viewBox="0 0 468 57" version="1.1" xmlns="http://www.w3.org/2000/svg" xmlns:xlink="http://www.w3.org/1999/xlink" xmlns:sketch="http://www.bohemiancoding.com/sketch/ns">
    <!-- Generator: Sketch 3.3.2 (12043) - http://www.bohemiancoding.com/sketch -->
    <title>BetterBookClub horizontal blue FINAL OUTLINES</title>
    <desc>Created with Sketch.</desc>
    <defs>
        <path id="path-1" d="M0,57 L467.236,57 L467.236,0.791 L0,0.791"></path>
    </defs>
    <g id="Page-1" stroke="none" stroke-width="1" fill="none" fill-rule="evenodd" sketch:type="MSPage">
        <g id="BetterBookClub-horizontal-blue-FINAL-OUTLINES" sketch:type="MSLayerGroup">
            <g id="Group-3">
                <mask id="mask-2" sketch:name="Clip 2" fill="white">
                    <use xlink:href="#path-1"></use>
                </mask>
                <g id="Clip-2"></g>
                <path d="M16.864,51.645 L50.281,51.647 L50.29,50.913 L50.293,50.913 L50.293,6.877 L16.909,6.877 L16.935,12.945 C13.147,13.172 10.797,14.16 10.797,14.16 L10.809,0.791 L56.395,0.791 L56.395,57 L16.557,56.995 L11.177,57 L11.096,50.611 C11.198,46.477 9.32,46.015 6.605,43.57 C1.297,38.945 0.371,34.18 0.21,32.766 C0.074,31.922 -0.011,30.983 0.001,29.978 C-0.003,25.952 1.563,22.787 3.452,20.438 C4.017,19.712 4.664,18.987 5.41,18.266 C11.858,12.03 24.94,11.919 31.501,18.266 C32.246,18.987 32.894,19.712 33.46,20.438 C35.347,22.787 36.915,25.952 36.91,29.978 C36.922,30.983 36.837,31.922 36.7,32.766 C36.539,34.18 35.614,38.945 30.306,43.57 C27.59,46.01 25.713,46.477 25.816,50.611 L25.827,50.913 L20.062,50.909 L20.129,48.114 C20.129,48.114 20.16,44.355 25.253,41.06 C27.6,39.541 29.338,37.704 30.446,35.717 C35.24,27.425 28.106,18.552 18.456,18.369 C9.041,18.034 1.671,27.425 6.465,35.717 C7.573,37.704 9.313,39.541 11.658,41.06 C16.751,44.355 16.784,48.114 16.784,48.114 L16.864,51.645" id="Fill-1" fill="#2F6A9D" sketch:type="MSShapeGroup" mask="url(#mask-2)"></path>
            </g>
            <path d="M462.849,18.813 C463.181,18.813 463.451,18.74 463.66,18.595 C463.869,18.45 463.974,18.241 463.974,17.968 L463.974,17.942 C463.974,17.695 463.878,17.497 463.687,17.348 C463.494,17.198 463.228,17.124 462.887,17.124 L461.492,17.124 L461.492,18.813 L462.849,18.813 L462.849,18.813 Z M460.788,16.484 L462.912,16.484 C463.211,16.484 463.481,16.529 463.725,16.618 C463.968,16.708 464.166,16.83 464.319,16.983 C464.438,17.094 464.532,17.226 464.601,17.379 C464.669,17.533 464.703,17.708 464.703,17.904 L464.703,17.93 C464.703,18.313 464.588,18.621 464.357,18.851 C464.128,19.081 463.833,19.239 463.476,19.324 L464.946,21.23 L464.076,21.23 L462.708,19.439 L461.492,19.439 L461.492,21.23 L460.788,21.23 L460.788,16.484 L460.788,16.484 Z M462.593,23.226 C463.189,23.226 463.746,23.113 464.262,22.887 C464.778,22.661 465.226,22.356 465.605,21.972 C465.984,21.588 466.281,21.141 466.494,20.629 C466.707,20.117 466.814,19.572 466.814,18.992 L466.814,18.966 C466.814,18.386 466.707,17.84 466.494,17.329 C466.281,16.817 465.987,16.371 465.611,15.992 C465.236,15.612 464.793,15.312 464.281,15.089 C463.77,14.868 463.215,14.757 462.618,14.757 C462.013,14.757 461.454,14.87 460.942,15.096 C460.431,15.322 459.984,15.627 459.605,16.011 C459.226,16.395 458.929,16.842 458.716,17.354 C458.503,17.866 458.396,18.412 458.396,18.992 L458.396,19.017 C458.396,19.597 458.503,20.143 458.716,20.655 C458.929,21.167 459.224,21.612 459.599,21.992 C459.974,22.371 460.418,22.672 460.93,22.894 C461.441,23.115 461.995,23.226 462.593,23.226 L462.593,23.226 Z M462.593,23.623 C461.944,23.623 461.339,23.501 460.775,23.258 C460.213,23.015 459.725,22.684 459.311,22.267 C458.897,21.849 458.571,21.36 458.332,20.802 C458.094,20.243 457.974,19.648 457.974,19.017 L457.974,18.992 C457.974,18.36 458.094,17.766 458.332,17.207 C458.571,16.648 458.899,16.158 459.317,15.736 C459.735,15.313 460.228,14.979 460.795,14.731 C461.362,14.484 461.97,14.36 462.618,14.36 C463.266,14.36 463.872,14.482 464.435,14.725 C464.997,14.968 465.485,15.299 465.899,15.716 C466.313,16.134 466.64,16.622 466.878,17.181 C467.117,17.74 467.236,18.335 467.236,18.966 L467.236,18.992 C467.236,19.623 467.117,20.218 466.878,20.776 C466.64,21.335 466.311,21.825 465.894,22.248 C465.476,22.669 464.982,23.004 464.415,23.252 C463.848,23.499 463.24,23.623 462.593,23.623 L462.593,23.623 Z" id="Fill-4" fill="#2F6A9D" sketch:type="MSShapeGroup"></path>
            <path d="M83.023,30.551 L83.023,39.857 C83.612,39.928 84.253,39.98 84.947,40.014 C85.641,40.049 86.403,40.066 87.235,40.066 C89.662,40.066 91.621,39.721 93.111,39.027 C94.602,38.334 95.348,37.051 95.348,35.178 C95.348,33.514 94.724,32.328 93.476,31.617 C92.228,30.906 90.441,30.551 88.12,30.551 L83.023,30.551 L83.023,30.551 Z M83.023,24.362 L86.976,24.362 C89.472,24.362 91.256,24.042 92.332,23.4 C93.406,22.759 93.943,21.728 93.943,20.306 C93.943,18.851 93.389,17.828 92.279,17.238 C91.169,16.649 89.54,16.354 87.392,16.354 C86.698,16.354 85.953,16.363 85.155,16.38 C84.357,16.398 83.648,16.441 83.023,16.51 L83.023,24.362 L83.023,24.362 Z M87.131,46.723 C85.155,46.723 83.187,46.662 81.23,46.541 C79.27,46.418 77.233,46.133 75.12,45.682 L75.12,10.738 C76.784,10.426 78.604,10.192 80.58,10.037 C82.556,9.88 84.393,9.802 86.091,9.802 C88.379,9.802 90.485,9.967 92.41,10.296 C94.334,10.626 95.989,11.189 97.376,11.986 C98.762,12.784 99.846,13.833 100.625,15.132 C101.405,16.433 101.795,18.036 101.795,19.942 C101.795,22.82 100.409,25.09 97.635,26.754 C99.923,27.621 101.483,28.8 102.315,30.291 C103.147,31.781 103.563,33.463 103.563,35.334 C103.563,39.113 102.186,41.957 99.43,43.863 C96.673,45.77 92.574,46.723 87.131,46.723 L87.131,46.723 Z" id="Fill-5" fill="#2F6A9D" sketch:type="MSShapeGroup"></path>
            <path d="M124.363,29.822 C124.328,29.164 124.215,28.522 124.025,27.898 C123.834,27.274 123.54,26.72 123.141,26.234 C122.742,25.75 122.239,25.351 121.633,25.038 C121.026,24.727 120.272,24.57 119.371,24.57 C118.504,24.57 117.759,24.718 117.135,25.012 C116.511,25.307 115.991,25.697 115.575,26.183 C115.159,26.668 114.838,27.231 114.613,27.873 C114.387,28.514 114.223,29.164 114.119,29.822 L124.363,29.822 L124.363,29.822 Z M106.163,32.787 C106.163,30.359 106.535,28.236 107.281,26.417 C108.026,24.596 109.005,23.08 110.219,21.866 C111.432,20.653 112.827,19.734 114.405,19.11 C115.982,18.486 117.603,18.174 119.267,18.174 C123.149,18.174 126.217,19.362 128.471,21.736 C130.724,24.111 131.851,27.604 131.851,32.215 C131.851,32.666 131.833,33.16 131.799,33.697 C131.764,34.234 131.729,34.711 131.695,35.127 L114.119,35.127 C114.292,36.721 115.038,37.986 116.355,38.922 C117.672,39.857 119.44,40.326 121.659,40.326 C123.08,40.326 124.476,40.197 125.845,39.935 C127.214,39.676 128.333,39.355 129.199,38.975 L130.239,45.266 C129.823,45.475 129.268,45.682 128.575,45.891 C127.881,46.098 127.11,46.281 126.261,46.436 C125.411,46.592 124.501,46.723 123.531,46.826 C122.561,46.93 121.589,46.982 120.619,46.982 C118.157,46.982 116.017,46.619 114.197,45.891 C112.377,45.162 110.869,44.166 109.673,42.9 C108.477,41.635 107.593,40.137 107.021,38.402 C106.449,36.67 106.163,34.797 106.163,32.787 L106.163,32.787 Z" id="Fill-6" fill="#2F6A9D" sketch:type="MSShapeGroup"></path>
            <path d="M135.491,12.09 L143.239,10.842 L143.239,18.902 L152.547,18.902 L152.547,25.351 L143.239,25.351 L143.239,34.971 C143.239,36.6 143.525,37.9 144.097,38.871 C144.669,39.842 145.821,40.326 147.555,40.326 C148.387,40.326 149.245,40.248 150.129,40.092 C151.013,39.935 151.819,39.721 152.547,39.443 L153.639,45.475 C152.703,45.855 151.663,46.186 150.52,46.463 C149.375,46.74 147.971,46.879 146.307,46.879 C144.192,46.879 142.441,46.592 141.055,46.02 C139.668,45.449 138.56,44.65 137.728,43.629 C136.896,42.605 136.314,41.367 135.985,39.91 C135.655,38.455 135.491,36.842 135.491,35.074 L135.491,12.09" id="Fill-7" fill="#2F6A9D" sketch:type="MSShapeGroup"></path>
            <path d="M157.539,12.09 L165.287,10.842 L165.287,18.902 L174.595,18.902 L174.595,25.351 L165.287,25.351 L165.287,34.971 C165.287,36.6 165.573,37.9 166.145,38.871 C166.717,39.842 167.869,40.326 169.603,40.326 C170.435,40.326 171.292,40.248 172.177,40.092 C173.061,39.935 173.867,39.721 174.595,39.443 L175.687,45.475 C174.75,45.855 173.71,46.186 172.567,46.463 C171.423,46.74 170.019,46.879 168.354,46.879 C166.24,46.879 164.489,46.592 163.103,46.02 C161.716,45.449 160.607,44.65 159.775,43.629 C158.943,42.605 158.362,41.367 158.033,39.91 C157.703,38.455 157.539,36.842 157.539,35.074 L157.539,12.09" id="Fill-8" fill="#2F6A9D" sketch:type="MSShapeGroup"></path>
            <path d="M194.667,29.822 C194.631,29.164 194.519,28.522 194.329,27.898 C194.138,27.274 193.843,26.72 193.444,26.234 C193.045,25.75 192.542,25.351 191.937,25.038 C191.33,24.727 190.576,24.57 189.674,24.57 C188.808,24.57 188.063,24.718 187.438,25.012 C186.814,25.307 186.294,25.697 185.878,26.183 C185.462,26.668 185.142,27.231 184.917,27.873 C184.69,28.514 184.526,29.164 184.422,29.822 L194.667,29.822 L194.667,29.822 Z M176.466,32.787 C176.466,30.359 176.838,28.236 177.584,26.417 C178.33,24.596 179.309,23.08 180.522,21.866 C181.735,20.653 183.13,19.734 184.708,19.11 C186.286,18.486 187.906,18.174 189.57,18.174 C193.453,18.174 196.521,19.362 198.774,21.736 C201.027,24.111 202.154,27.604 202.154,32.215 C202.154,32.666 202.137,33.16 202.103,33.697 C202.067,34.234 202.033,34.711 201.999,35.127 L184.422,35.127 C184.596,36.721 185.341,37.986 186.659,38.922 C187.976,39.857 189.744,40.326 191.962,40.326 C193.383,40.326 194.779,40.197 196.148,39.935 C197.518,39.676 198.636,39.355 199.502,38.975 L200.542,45.266 C200.126,45.475 199.571,45.682 198.878,45.891 C198.185,46.098 197.414,46.281 196.564,46.436 C195.714,46.592 194.805,46.723 193.834,46.826 C192.864,46.93 191.893,46.982 190.922,46.982 C188.46,46.982 186.32,46.619 184.5,45.891 C182.681,45.162 181.172,44.166 179.977,42.9 C178.78,41.635 177.896,40.137 177.325,38.402 C176.752,36.67 176.466,34.797 176.466,32.787 L176.466,32.787 Z" id="Fill-9" fill="#2F6A9D" sketch:type="MSShapeGroup"></path>
            <path d="M222.539,25.767 C221.845,25.593 221.031,25.411 220.095,25.22 C219.159,25.03 218.153,24.934 217.079,24.934 C216.593,24.934 216.013,24.978 215.336,25.064 C214.661,25.151 214.148,25.247 213.803,25.351 L213.803,46.254 L206.055,46.254 L206.055,20.358 C207.441,19.874 209.079,19.414 210.969,18.98 C212.857,18.547 214.963,18.331 217.287,18.331 C217.703,18.331 218.205,18.356 218.794,18.408 C219.384,18.46 219.973,18.53 220.563,18.616 C221.152,18.703 221.741,18.807 222.331,18.928 C222.919,19.05 223.422,19.197 223.838,19.371 L222.539,25.767" id="Fill-10" fill="#2F6A9D" sketch:type="MSShapeGroup"></path>
            <path d="M237.462,30.551 L237.462,39.857 C238.051,39.928 238.692,39.98 239.386,40.014 C240.08,40.049 240.842,40.066 241.674,40.066 C244.101,40.066 246.06,39.721 247.55,39.027 C249.041,38.334 249.787,37.051 249.787,35.178 C249.787,33.514 249.163,32.328 247.915,31.617 C246.667,30.906 244.88,30.551 242.559,30.551 L237.462,30.551 L237.462,30.551 Z M237.462,24.362 L241.415,24.362 C243.911,24.362 245.695,24.042 246.771,23.4 C247.845,22.759 248.382,21.728 248.382,20.306 C248.382,18.851 247.828,17.828 246.718,17.238 C245.608,16.649 243.979,16.354 241.831,16.354 C241.137,16.354 240.392,16.363 239.594,16.38 C238.796,16.398 238.086,16.441 237.462,16.51 L237.462,24.362 L237.462,24.362 Z M241.57,46.723 C239.594,46.723 237.626,46.662 235.668,46.541 C233.709,46.418 231.672,46.133 229.559,45.682 L229.559,10.738 C231.223,10.426 233.042,10.192 235.019,10.037 C236.995,9.88 238.832,9.802 240.53,9.802 C242.818,9.802 244.924,9.967 246.849,10.296 C248.772,10.626 250.428,11.189 251.814,11.986 C253.201,12.784 254.285,13.833 255.064,15.132 C255.844,16.433 256.234,18.036 256.234,19.942 C256.234,22.82 254.848,25.09 252.074,26.754 C254.362,27.621 255.922,28.8 256.754,30.291 C257.586,31.781 258.002,33.463 258.002,35.334 C258.002,39.113 256.625,41.957 253.869,43.863 C251.112,45.77 247.013,46.723 241.57,46.723 L241.57,46.723 Z" id="Fill-11" fill="#2F6A9D" sketch:type="MSShapeGroup"></path>
            <path d="M280.622,32.527 C280.622,30.135 280.146,28.254 279.192,26.884 C278.239,25.515 276.878,24.831 275.11,24.831 C273.343,24.831 271.972,25.515 271.003,26.884 C270.032,28.254 269.546,30.135 269.546,32.527 C269.546,34.918 270.032,36.816 271.003,38.221 C271.972,39.625 273.343,40.326 275.11,40.326 C276.878,40.326 278.239,39.625 279.192,38.221 C280.146,36.816 280.622,34.918 280.622,32.527 L280.622,32.527 Z M288.526,32.527 C288.526,34.676 288.214,36.643 287.591,38.428 C286.966,40.215 286.063,41.74 284.886,43.004 C283.708,44.269 282.294,45.25 280.647,45.943 C279.001,46.635 277.155,46.982 275.11,46.982 C273.099,46.982 271.271,46.635 269.624,45.943 C267.977,45.25 266.564,44.269 265.386,43.004 C264.207,41.74 263.288,40.215 262.63,38.428 C261.971,36.643 261.642,34.676 261.642,32.527 C261.642,30.377 261.98,28.418 262.656,26.65 C263.332,24.882 264.268,23.375 265.464,22.126 C266.66,20.878 268.081,19.908 269.728,19.214 C271.374,18.521 273.169,18.174 275.11,18.174 C277.087,18.174 278.897,18.521 280.544,19.214 C282.19,19.908 283.603,20.878 284.782,22.126 C285.96,23.375 286.88,24.882 287.538,26.65 C288.196,28.418 288.526,30.377 288.526,32.527 L288.526,32.527 Z" id="Fill-12" fill="#2F6A9D" sketch:type="MSShapeGroup"></path>
            <path d="M310.104,32.527 C310.104,30.135 309.628,28.254 308.675,26.884 C307.722,25.515 306.36,24.831 304.593,24.831 C302.825,24.831 301.454,25.515 300.485,26.884 C299.515,28.254 299.028,30.135 299.028,32.527 C299.028,34.918 299.515,36.816 300.485,38.221 C301.454,39.625 302.825,40.326 304.593,40.326 C306.36,40.326 307.722,39.625 308.675,38.221 C309.628,36.816 310.104,34.918 310.104,32.527 L310.104,32.527 Z M318.009,32.527 C318.009,34.676 317.696,36.643 317.073,38.428 C316.448,40.215 315.546,41.74 314.368,43.004 C313.19,44.269 311.776,45.25 310.13,45.943 C308.483,46.635 306.638,46.982 304.593,46.982 C302.581,46.982 300.753,46.635 299.106,45.943 C297.46,45.25 296.046,44.269 294.868,43.004 C293.69,41.74 292.771,40.215 292.112,38.428 C291.454,36.643 291.124,34.676 291.124,32.527 C291.124,30.377 291.462,28.418 292.138,26.65 C292.815,24.882 293.751,23.375 294.946,22.126 C296.144,20.878 297.563,19.908 299.21,19.214 C300.856,18.521 302.651,18.174 304.593,18.174 C306.569,18.174 308.38,18.521 310.026,19.214 C311.673,19.908 313.085,20.878 314.265,22.126 C315.442,23.375 316.362,24.882 317.021,26.65 C317.679,28.418 318.009,30.377 318.009,32.527 L318.009,32.527 Z" id="Fill-13" fill="#2F6A9D" sketch:type="MSShapeGroup"></path>
            <path d="M329.657,28.725 C330.419,27.897 331.206,27.036 332.021,26.14 C332.833,25.244 333.622,24.357 334.384,23.478 C335.146,22.599 335.864,21.763 336.54,20.97 C337.216,20.178 337.796,19.489 338.28,18.902 L347.493,18.902 C345.655,21.013 343.86,23.028 342.11,24.947 C340.36,26.867 338.444,28.847 336.364,30.889 C337.405,31.826 338.479,32.947 339.589,34.248 C340.698,35.551 341.772,36.896 342.813,38.285 C343.853,39.674 344.806,41.062 345.673,42.451 C346.54,43.842 347.267,45.109 347.856,46.254 L338.948,46.254 C338.394,45.351 337.763,44.352 337.054,43.258 C336.345,42.162 335.591,41.068 334.796,39.975 C333.999,38.879 333.161,37.828 332.278,36.82 C331.396,35.813 330.522,34.961 329.657,34.266 L329.657,46.254 L321.909,46.254 L321.909,7.15 L329.657,5.902 L329.657,28.725" id="Fill-14" fill="#2F6A9D" sketch:type="MSShapeGroup"></path>
            <path d="M368.968,46.982 C363.11,46.982 358.646,45.353 355.579,42.094 C352.511,38.836 350.976,34.209 350.976,28.21 C350.976,25.229 351.444,22.568 352.38,20.229 C353.317,17.888 354.599,15.913 356.228,14.3 C357.858,12.688 359.798,11.466 362.052,10.634 C364.306,9.802 366.749,9.386 369.384,9.386 C370.909,9.386 372.296,9.499 373.544,9.725 C374.792,9.95 375.884,10.21 376.821,10.504 C377.757,10.799 378.536,11.103 379.161,11.414 C379.784,11.727 380.235,11.969 380.513,12.143 L378.173,18.694 C377.063,18.105 375.772,17.603 374.298,17.187 C372.825,16.771 371.153,16.562 369.28,16.562 C368.032,16.562 366.81,16.771 365.614,17.187 C364.419,17.603 363.36,18.271 362.442,19.188 C361.524,20.107 360.786,21.294 360.233,22.75 C359.677,24.207 359.401,25.975 359.401,28.054 C359.401,29.719 359.583,31.27 359.946,32.709 C360.31,34.146 360.899,35.387 361.714,36.426 C362.528,37.467 363.595,38.291 364.913,38.896 C366.229,39.504 367.825,39.807 369.696,39.807 C370.874,39.807 371.933,39.738 372.868,39.598 C373.804,39.461 374.636,39.295 375.364,39.104 C376.093,38.914 376.733,38.697 377.288,38.455 C377.843,38.213 378.345,37.986 378.796,37.779 L381.032,44.279 C379.888,44.973 378.276,45.596 376.196,46.15 C374.116,46.705 371.706,46.982 368.968,46.982" id="Fill-15" fill="#2F6A9D" sketch:type="MSShapeGroup"></path>
            <path d="M396.632,46.773 C394.378,46.74 392.55,46.496 391.146,46.047 C389.741,45.596 388.632,44.963 387.817,44.148 C387.003,43.334 386.448,42.346 386.153,41.184 C385.858,40.023 385.712,38.715 385.712,37.258 L385.712,7.15 L393.46,5.902 L393.46,35.699 C393.46,36.393 393.513,37.016 393.616,37.57 C393.72,38.125 393.919,38.594 394.214,38.975 C394.509,39.355 394.933,39.668 395.487,39.91 C396.042,40.154 396.788,40.309 397.724,40.379 L396.632,46.773" id="Fill-16" fill="#2F6A9D" sketch:type="MSShapeGroup"></path>
            <path d="M425.491,45.318 C424.173,45.701 422.476,46.055 420.396,46.385 C418.315,46.713 416.132,46.879 413.843,46.879 C411.521,46.879 409.587,46.566 408.046,45.943 C406.503,45.318 405.28,44.443 404.38,43.316 C403.478,42.189 402.837,40.846 402.456,39.287 C402.073,37.727 401.884,36.01 401.884,34.139 L401.884,18.902 L409.632,18.902 L409.632,33.203 C409.632,35.699 409.96,37.502 410.62,38.611 C411.278,39.721 412.509,40.273 414.312,40.273 C414.866,40.273 415.456,40.248 416.079,40.197 C416.704,40.145 417.257,40.084 417.743,40.014 L417.743,18.902 L425.491,18.902 L425.491,45.318" id="Fill-17" fill="#2F6A9D" sketch:type="MSShapeGroup"></path>
            <path d="M450.294,32.371 C450.294,27.378 448.456,24.882 444.782,24.882 C443.985,24.882 443.196,24.986 442.417,25.194 C441.636,25.402 441.003,25.663 440.519,25.975 L440.519,40.066 C440.899,40.137 441.384,40.197 441.974,40.248 C442.563,40.301 443.204,40.326 443.897,40.326 C446.013,40.326 447.608,39.598 448.683,38.143 C449.757,36.686 450.294,34.762 450.294,32.371 L450.294,32.371 Z M458.198,32.578 C458.198,34.762 457.878,36.738 457.237,38.506 C456.595,40.273 455.667,41.783 454.454,43.031 C453.241,44.279 451.751,45.24 449.981,45.916 C448.214,46.592 446.204,46.93 443.95,46.93 C443.015,46.93 442.034,46.887 441.013,46.801 C439.989,46.713 438.983,46.6 437.997,46.463 C437.009,46.324 436.063,46.16 435.163,45.969 C434.261,45.777 433.464,45.578 432.771,45.371 L432.771,7.15 L440.519,5.902 L440.519,19.526 C441.384,19.146 442.286,18.851 443.222,18.643 C444.159,18.435 445.163,18.331 446.239,18.331 C448.179,18.331 449.896,18.668 451.386,19.344 C452.876,20.021 454.124,20.982 455.13,22.23 C456.136,23.479 456.897,24.978 457.419,26.729 C457.938,28.479 458.198,30.43 458.198,32.578 L458.198,32.578 Z" id="Fill-18" fill="#2F6A9D" sketch:type="MSShapeGroup"></path>
        </g>
    </g>
</svg>