<?xml version="1.0" encoding="utf-8"?>
<!-- Generator: Adobe Illustrator 16.0.0, SVG Export Plug-In . SVG Version: 6.00 Build 0)  -->
<!DOCTYPE svg PUBLIC "-//W3C//DTD SVG 1.1//EN" "http://www.w3.org/Graphics/SVG/1.1/DTD/svg11.dtd">
<svg version="1.1" id="RAW_ICONS_-_SQUARE__x2F__ROUNDED__x2F__CIRCLE"
	 xmlns="http://www.w3.org/2000/svg" xmlns:xlink="http://www.w3.org/1999/xlink" x="0px" y="0px" width="16px" height="15.65px"
	 viewBox="0 0 16 15.65" enable-background="new 0 0 16 15.65" xml:space="preserve">
<g>
	<path fill="#112A3D" d="M12.279,10.531c-0.129,0-0.221,0.037-0.277,0.113c-0.057,0.07-0.084,0.193-0.084,0.363v0.408h0.716v-0.408
		c0-0.17-0.029-0.293-0.085-0.363C12.494,10.568,12.402,10.531,12.279,10.531z"/>
	<polygon fill="#112A3D" points="4.252,6.047 5.277,6.047 5.277,3.539 6.472,0 5.43,0 4.794,2.418 4.729,2.418 4.063,0 3.03,0 
		4.252,3.65 	"/>
	<path fill="#112A3D" d="M9.488,10.518c-0.058,0-0.115,0.014-0.172,0.039c-0.057,0.027-0.111,0.068-0.167,0.125v2.523
		c0.065,0.064,0.13,0.115,0.192,0.143c0.062,0.029,0.127,0.045,0.195,0.045c0.1,0,0.172-0.029,0.219-0.088
		c0.046-0.057,0.069-0.148,0.069-0.279v-2.09c0-0.139-0.027-0.242-0.085-0.312C9.682,10.553,9.597,10.518,9.488,10.518z"/>
	<path fill="#112A3D" d="M10.566,6.113c0.171,0,0.347-0.051,0.528-0.145c0.183-0.094,0.357-0.234,0.524-0.416v0.494h0.912V1.586
		h-0.912v3.387c-0.085,0.098-0.179,0.176-0.28,0.24c-0.103,0.062-0.188,0.094-0.255,0.094c-0.085,0-0.148-0.023-0.186-0.072
		c-0.037-0.047-0.059-0.123-0.059-0.229v-3.42H9.93v3.729c0,0.266,0.054,0.465,0.16,0.596C10.197,6.045,10.354,6.113,10.566,6.113z"
		/>
	<path fill="#112A3D" d="M7.861,6.16c0.414,0,0.739-0.109,0.977-0.326C9.073,5.615,9.19,5.318,9.19,4.936V2.631
		c0-0.338-0.12-0.619-0.359-0.834C8.589,1.582,8.28,1.475,7.903,1.475c-0.414,0-0.745,0.102-0.99,0.307
		C6.669,1.984,6.546,2.26,6.546,2.605v2.312c0,0.379,0.12,0.68,0.358,0.904C7.144,6.047,7.463,6.16,7.861,6.16z M7.483,2.572
		c0-0.098,0.035-0.176,0.104-0.236c0.07-0.061,0.161-0.09,0.271-0.09c0.121,0,0.219,0.029,0.293,0.09s0.111,0.139,0.111,0.236v2.43
		c0,0.119-0.037,0.215-0.11,0.283C8.08,5.354,7.982,5.387,7.858,5.387c-0.12,0-0.213-0.031-0.277-0.102
		c-0.064-0.066-0.098-0.16-0.098-0.283V2.572z"/>
	<path fill="#112A3D" d="M13.077,7.453H2.922C1.308,7.453,0,8.764,0,10.377v2.35c0,1.613,1.308,2.924,2.922,2.924h10.155
		C14.69,15.65,16,14.34,16,12.727v-2.35C16,8.764,14.69,7.453,13.077,7.453z M5.056,9.283H4.111v4.691H3.199V9.283H2.256V8.484h2.8
		V9.283z M7.723,13.975h-0.81v-0.445c-0.149,0.164-0.305,0.289-0.467,0.375c-0.161,0.088-0.318,0.129-0.47,0.129
		c-0.188,0-0.328-0.059-0.424-0.182c-0.094-0.121-0.142-0.299-0.142-0.541V9.924h0.81v3.107c0,0.096,0.018,0.164,0.05,0.207
		c0.035,0.045,0.091,0.064,0.166,0.064c0.059,0,0.135-0.027,0.226-0.084C6.754,13.16,6.837,13.088,6.913,13V9.924h0.81V13.975z
		 M10.659,13.139c0,0.285-0.062,0.504-0.19,0.658c-0.126,0.154-0.311,0.229-0.55,0.229c-0.159,0-0.3-0.027-0.423-0.088
		c-0.124-0.059-0.241-0.148-0.347-0.273v0.311H8.331v-5.49h0.818v1.768c0.109-0.121,0.226-0.217,0.347-0.281
		C9.62,9.906,9.744,9.875,9.87,9.875c0.257,0,0.452,0.086,0.587,0.258c0.136,0.174,0.202,0.426,0.202,0.758V13.139z M13.467,12.047
		h-1.549v0.762c0,0.213,0.026,0.361,0.079,0.445c0.054,0.082,0.146,0.123,0.274,0.123c0.135,0,0.229-0.035,0.282-0.105
		c0.052-0.07,0.08-0.225,0.08-0.463v-0.184h0.833v0.207c0,0.416-0.101,0.729-0.306,0.939c-0.201,0.209-0.505,0.312-0.908,0.312
		c-0.362,0-0.648-0.109-0.856-0.334c-0.207-0.221-0.312-0.527-0.312-0.918v-1.818c0-0.35,0.114-0.639,0.344-0.859
		s0.523-0.33,0.886-0.33c0.371,0,0.656,0.102,0.854,0.307c0.199,0.205,0.299,0.498,0.299,0.883V12.047z"/>
</g>
</svg>
