<?xml version="1.0" encoding="utf-8"?>
<!-- Generator: Adobe Illustrator 15.0.0, SVG Export Plug-In  -->
<!DOCTYPE svg PUBLIC "-//W3C//DTD SVG 1.1//EN" "http://www.w3.org/Graphics/SVG/1.1/DTD/svg11.dtd" [
	<!ENTITY ns_flows "http://ns.adobe.com/Flows/1.0/">
]>
<svg version="1.1"
	 xmlns="http://www.w3.org/2000/svg" xmlns:xlink="http://www.w3.org/1999/xlink" xmlns:a="http://ns.adobe.com/AdobeSVGViewerExtensions/3.0/"
	 x="0px" y="0px" width="22px" height="22px" viewBox="0 0 22 22" overflow="visible" enable-background="new 0 0 22 22"
	 xml:space="preserve">
<defs>
</defs>
<path fill-rule="evenodd" clip-rule="evenodd" fill="#9E9292" d="M0,20c0-1.104,0.896-2,2-2h18c1.104,0,2,0.896,2,2l0,0
	c0,1.105-0.896,2-2,2H2C0.896,22,0,21.105,0,20L0,20z"/>
<path fill-rule="evenodd" clip-rule="evenodd" fill="#9E9292" d="M0,11c0-1.104,0.896-2,2-2h18c1.104,0,2,0.896,2,2l0,0
	c0,1.104-0.896,2-2,2H2C0.896,13,0,12.104,0,11L0,11z"/>
<path fill-rule="evenodd" clip-rule="evenodd" fill="#121111" d="M0,2c0-1.104,0.896-2,2-2h18c1.104,0,2,0.896,2,2l0,0
	c0,1.105-0.896,2-2,2H2C0.896,4,0,3.105,0,2L0,2z"/>
</svg>
