<?xml version="1.0" encoding="utf-8"?>
<!-- Generator: Adobe Illustrator 15.0.0, SVG Export Plug-In  -->
<!DOCTYPE svg PUBLIC "-//W3C//DTD SVG 1.1//EN" "http://www.w3.org/Graphics/SVG/1.1/DTD/svg11.dtd" [
	<!ENTITY ns_flows "http://ns.adobe.com/Flows/1.0/">
]>
<svg version="1.1"
	 xmlns="http://www.w3.org/2000/svg" xmlns:xlink="http://www.w3.org/1999/xlink" xmlns:a="http://ns.adobe.com/AdobeSVGViewerExtensions/3.0/"
	 x="0px" y="0px" width="17px" height="17px" viewBox="0 0 17 17" overflow="visible" enable-background="new 0 0 17 17"
	 xml:space="preserve">
<defs>
</defs>
<path fill-rule="evenodd" clip-rule="evenodd" fill="#FFFFFF" d="M0.586,16.142c-0.781-0.781-0.781-2.047,0-2.828L13.314,0.586
	c0.781-0.781,2.047-0.781,2.829,0l0,0c0.781,0.781,0.781,2.047,0,2.828L3.415,16.142C2.633,16.923,1.367,16.923,0.586,16.142
	L0.586,16.142z"/>
<path fill-rule="evenodd" clip-rule="evenodd" fill="#FFFFFF" d="M0.586,0.586c0.781-0.781,2.047-0.781,2.829,0l12.728,12.728
	c0.781,0.781,0.781,2.047,0,2.828l0,0c-0.781,0.781-2.047,0.781-2.829,0L0.586,3.414C-0.195,2.633-0.195,1.367,0.586,0.586
	L0.586,0.586z"/>
</svg>
