<?xml version="1.0" encoding="utf-8"?>
<!-- Generator: Adobe Illustrator 16.0.0, SVG Export Plug-In . SVG Version: 6.00 Build 0)  -->
<!DOCTYPE svg PUBLIC "-//W3C//DTD SVG 1.1//EN" "http://www.w3.org/Graphics/SVG/1.1/DTD/svg11.dtd">
<svg version="1.1" id="Layer_1" xmlns="http://www.w3.org/2000/svg" xmlns:xlink="http://www.w3.org/1999/xlink" x="0px" y="0px"
	 width="67.241px" height="67.236px" viewBox="0 0 67.241 67.236" enable-background="new 0 0 67.241 67.236" xml:space="preserve">
<g>
	<path fill="#112A3D" d="M58.611,0H8.634C3.886,0,0,3.883,0,8.631v49.978c0,4.747,3.886,8.627,8.634,8.627h49.978
		c4.748,0,8.63-3.88,8.63-8.627V8.631C67.241,3.883,63.359,0,58.611,0z M45.957,10.499c0-1.667,1.36-3.032,3.028-3.032h7.599
		c1.664,0,3.027,1.365,3.027,3.032v7.242c0,1.667-1.363,3.029-3.027,3.029h-7.599c-1.668,0-3.028-1.362-3.028-3.029V10.499z
		 M33.684,20.389c7.459,0,13.506,5.856,13.506,13.087c0,7.223-6.047,13.084-13.506,13.084c-7.456,0-13.502-5.861-13.502-13.084
		C20.182,26.245,26.229,20.389,33.684,20.389z M59.639,56.839c0,1.471-1.198,2.668-2.67,2.668H10.146c-1.47,0-2.67-1.197-2.67-2.668
		V28.433h6.172c-0.558,1.832-0.865,3.764-0.865,5.773c0,11.18,9.361,20.249,20.901,20.249c11.544,0,20.904-9.068,20.904-20.249
		c0-2.009-0.303-3.941-0.864-5.773h5.916V56.839z"/>
</g>
</svg>
