<?xml version="1.0" encoding="utf-8"?>
<!-- Generator: Adobe Illustrator 15.0.0, SVG Export Plug-In . SVG Version: 6.00 Build 0)  -->
<!DOCTYPE svg PUBLIC "-//W3C//DTD SVG 1.1//EN" "http://www.w3.org/Graphics/SVG/1.1/DTD/svg11.dtd">
<svg version="1.1" id="Row_4" xmlns="http://www.w3.org/2000/svg" xmlns:xlink="http://www.w3.org/1999/xlink" x="0px" y="0px"
	 width="356.703px" height="252.498px" viewBox="0 0 356.703 252.498" enable-background="new 0 0 356.703 252.498"
	 xml:space="preserve">
<g>
	<path fill="#122A3D" d="M354.061,29.265h-79.076V3.47c0-1.909-1.549-3.47-3.441-3.47H85.165c-1.894,0-3.44,1.562-3.44,3.47v25.795
		H2.646c-1.461,0-2.646,1.2-2.646,2.66v188.646c0,1.476,1.186,2.66,2.646,2.66h79.076v25.812c0,1.905,1.547,3.455,3.441,3.455
		h186.377c1.895,0,3.441-1.55,3.441-3.455v-25.812h79.074c1.461,0,2.646-1.186,2.646-2.66V31.925
		C356.705,30.465,355.52,29.265,354.061,29.265z M5.308,217.912V34.585h76.417v183.327H5.308z M268.072,245.571H88.634v-22.34
		v-5.319V34.585v-5.32V6.925h179.438v22.34v5.32v183.327v5.319V245.571L268.072,245.571z M351.398,217.912h-76.416V34.585h76.416
		V217.912z"/>
	<path fill="#122A3D" d="M201.777,127.615c-3.021-2.488-6.518-4.59-10.484-6.31c-3.969-1.715-8.084-3.403-12.348-5.063
		c-3.909-1.422-7.461-2.78-10.661-4.086c-3.198-1.304-5.924-2.781-8.173-4.441c-2.251-1.657-3.971-3.581-5.152-5.773
		c-1.186-2.189-1.777-4.943-1.777-8.263c0-12.198,8.409-18.3,25.229-18.3c6.631,0,11.905,0.562,15.813,1.688
		c3.908,1.127,6.867,2.104,8.885,2.934l3.02-9.771c-2.844-1.183-6.369-2.279-10.572-3.287c-4.205-1.005-9.092-1.566-14.656-1.688
		V44.645h-10.483v21.145c-10.069,1.422-17.501,4.529-22.298,9.326c-4.797,4.799-7.196,11.58-7.196,20.346
		c0,4.383,0.827,8.145,2.487,11.281c1.657,3.141,3.82,5.806,6.484,7.994c2.665,2.193,5.655,4.039,8.974,5.539
		c3.314,1.5,6.574,2.853,9.771,4.051c4.5,1.683,8.646,3.271,12.438,4.771c3.789,1.498,7.018,3.223,9.682,5.166
		c2.666,1.945,4.736,4.217,6.221,6.811c1.479,2.595,2.221,5.836,2.221,9.726c0,2.478-0.445,4.836-1.334,7.076
		c-0.887,2.24-2.371,4.153-4.441,5.746c-2.074,1.594-4.74,2.858-7.996,3.805c-3.258,0.943-7.195,1.412-11.814,1.412
		c-4.384,0-8.204-0.205-11.46-0.621c-3.259-0.414-6.13-0.979-8.617-1.689c-2.487-0.711-4.681-1.479-6.574-2.311
		c-1.896-0.826-3.613-1.656-5.152-2.486l-3.375,9.949c2.604,1.541,6.574,3.109,11.904,4.709c5.33,1.601,12.021,2.459,20.077,2.576
		v22.92H180.9v-23.453c9.596-0.711,17.115-3.611,22.564-8.705c5.447-5.092,8.172-11.785,8.172-20.077
		c0-5.093-0.889-9.416-2.666-12.972C207.195,133.123,204.797,130.101,201.777,127.615z"/>
</g>
</svg>
