<?xml version="1.0" encoding="utf-8"?>
<!-- Generator: Adobe Illustrator 16.0.0, SVG Export Plug-In . SVG Version: 6.00 Build 0)  -->
<!DOCTYPE svg PUBLIC "-//W3C//DTD SVG 1.1//EN" "http://www.w3.org/Graphics/SVG/1.1/DTD/svg11.dtd">
<svg version="1.1" id="RAW_ICONS_-_SQUARE__x2F__ROUNDED__x2F__CIRCLE"
	 xmlns="http://www.w3.org/2000/svg" xmlns:xlink="http://www.w3.org/1999/xlink" x="0px" y="0px" width="16px" height="13.002px"
	 viewBox="0 0 16 13.002" enable-background="new 0 0 16 13.002" xml:space="preserve">
<g>
	<path fill="#112A3D" d="M15.559,0.238c-0.635,0.377-1.338,0.65-2.085,0.797C12.875,0.398,12.021,0,11.078,0
		C9.265,0,7.795,1.469,7.795,3.281c0,0.258,0.029,0.508,0.085,0.748C5.152,3.893,2.732,2.586,1.114,0.6
		C0.832,1.084,0.67,1.648,0.67,2.25c0,1.139,0.579,2.145,1.46,2.732c-0.538-0.018-1.044-0.164-1.487-0.41c0,0.014,0,0.027,0,0.041
		c0,1.59,1.133,2.916,2.633,3.219C3.001,7.906,2.711,7.947,2.411,7.947c-0.212,0-0.417-0.021-0.617-0.059
		c0.417,1.303,1.63,2.252,3.065,2.279c-1.123,0.881-2.537,1.404-4.076,1.404c-0.265,0-0.525-0.016-0.783-0.045
		c1.453,0.932,3.178,1.475,5.032,1.475c6.038,0,9.34-5.002,9.34-9.34c0-0.143-0.003-0.283-0.01-0.424
		C15.004,2.775,15.561,2.197,16,1.539c-0.588,0.26-1.221,0.438-1.885,0.516C14.793,1.648,15.312,1.006,15.559,0.238z"/>
</g>
</svg>
