<?xml version="1.0" encoding="UTF-8"?>
<svg width="96px" height="96px" viewBox="0 0 96 96" version="1.1" xmlns="http://www.w3.org/2000/svg" xmlns:xlink="http://www.w3.org/1999/xlink">
    <!-- Generator: Sketch 52.5 (67469) - http://www.bohemiancoding.com/sketch -->
    <title>icon/social_class-action</title>
    <desc>Created with Sketch.</desc>
    <g id="icon/social_class-action" stroke="none" stroke-width="1" fill="none" fill-rule="evenodd">
        <circle id="Oval-7" fill-opacity="0.145012455" fill="#007DF2" cx="48" cy="48" r="48"></circle>
        <g id="noun_Gavel_541111" transform="translate(24.000000, 24.000000)" fill="#007DF1" fill-rule="nonzero">
            <g id="Group">
                <path d="M26.1704545,0.199402472 C25.436576,0.199402472 24.7554036,0.53178764 24.2737926,1.00804011 C24.2737926,1.00804011 20.8440371,4.4529708 20.8085533,4.49132844 C20.4120319,4.91996392 20.0454545,5.51360167 20.0454545,6.25558225 C20.0454545,7.06396663 20.4889224,7.69195944 20.9328835,8.13093337 L21.8203125,9.00839124 L13.3636364,17.3528435 L12.4762074,16.4753856 C12.0289198,16.0328826 11.3883183,15.6151328 10.5795455,15.6151328 C9.74357984,15.6151328 9.12021465,16.0428257 8.68288352,16.4753856 C8.68288352,16.4753856 5.18709545,19.831503 5.1468659,19.876894 C4.70818616,20.371859 4.46187318,21.0066502 4.45454545,21.6541075 C4.44637693,22.3757949 4.71658298,23.1001966 5.27237216,23.649894 L16.3565341,34.6095148 C16.9156079,35.162444 17.6718673,35.4443867 18.3924006,35.4353575 C19.0144506,35.4290866 19.6152446,35.209048 20.1054088,34.8077474 C20.1747232,34.7509988 23.8154427,31.042921 23.9033303,30.9336664 C24.2334701,30.5232617 24.5,30.0006514 24.5,29.3791778 C24.5,28.5489856 24.0485418,27.9176564 23.612571,27.4866216 L22.725142,26.6263688 L24.4477983,24.9230682 C24.4477983,24.9230682 40.9987995,43.368484 41.0464019,43.4122624 C41.507219,43.8360623 42.1275262,44.2443463 42.875,44.2443463 C43.6553618,44.2443463 44.3543774,43.7796721 44.8586648,43.2808631 C44.8586648,43.2808631 48.5137942,39.6562946 48.7041903,39.3237002 C48.8945865,38.9911058 49.00219,38.5588873 49,38.1709615 C48.9955455,37.3855146 48.5348263,36.7628336 48.0919381,36.3106682 C48.06975,36.2880159 29.4591619,19.968012 29.4591619,19.968012 L31.1818182,18.2647115 L32.0692472,19.1421693 C32.5132445,19.5811763 33.1484304,20.0196272 33.9659091,20.0196272 C34.7061031,20.0196272 35.2862614,19.667037 35.7157726,19.2808558 C35.760538,19.2406065 39.290483,15.8904137 39.290483,15.8904137 C39.8805872,15.3313457 40.0909091,14.5902675 40.0909091,13.9634474 C40.0909091,13.3482717 39.9157614,12.5688469 39.3078835,11.9676609 L28.2237216,1.00804011 C27.63014,0.420926517 26.8685236,0.199402472 26.1704545,0.199402472 Z M26.1704545,2.40164966 C26.3724866,2.40164966 26.5648878,2.46472202 26.6576705,2.55649517 L37.7418324,13.516116 C37.8096679,13.5832019 37.8636364,13.7342265 37.8636364,13.9634474 C37.8636364,14.1513927 37.823061,14.2470803 37.759233,14.3075485 C37.759233,14.3075485 34.2597164,17.6122572 34.2424567,17.6281321 C34.0648958,17.791454 33.9683574,17.81738 33.9659091,17.81738 C33.9533306,17.81738 33.8549848,17.7937058 33.6352983,17.5765092 L22.4989347,6.56527326 C22.2793144,6.3481482 22.2727273,6.26793135 22.2727273,6.25558225 C22.2727273,6.25321483 22.2830117,6.16804292 22.4220225,6.0099491 C22.4442172,5.98470584 25.8572443,2.55649517 25.8572443,2.55649517 C26.0053591,2.41002921 26.0824461,2.40164966 26.1704545,2.40164966 Z M23.3863636,10.5568463 L29.615767,16.7162564 L21.1590909,25.0607087 L14.9296875,18.9185036 L23.3863636,10.5568463 Z M10.5795455,17.81738 C10.600827,17.81738 10.684225,17.8175892 10.9101562,18.0410457 L22.0465199,29.0522817 C22.2494701,29.2529615 22.2727273,29.3885924 22.2727273,29.3791778 C22.2727273,29.4000551 22.2745648,29.4470251 22.1286684,29.6043581 C22.1052876,29.6295793 18.6978426,33.1003699 18.6849406,33.1104633 C18.5805617,33.1921205 18.4633403,33.2320323 18.3575994,33.2331103 C18.1990382,33.2331103 18.0569449,33.1767328 17.9399858,33.0610598 L6.85582386,22.101439 C6.7388553,21.9857549 6.68011877,21.8214178 6.68181818,21.6713126 C6.68315455,21.5516204 6.7295208,21.4348903 6.85582386,21.3100064 L10.2489347,18.0410457 C10.4544056,17.8378169 10.5854555,17.81738 10.5795455,17.81738 Z M27.8931108,21.5336721 C27.8931108,21.5336721 46.519321,37.8680892 46.530998,37.8796036 C46.901869,38.2453137 46.7226994,38.2826886 46.4421165,38.6010879 L43.2752131,41.7324081 C42.9026833,42.100844 42.9861431,42.0420991 42.875,42.0420991 C42.8132895,42.0420991 42.7599474,41.9947508 42.5269886,41.7668182 L26.03125,23.3574081 L27.8931108,21.5336721 Z M3.34090909,38.7387283 C1.5093088,38.7387283 0,40.2310811 0,42.0420991 L0,45.3454699 C0,47.1564879 1.5093088,48.6488407 3.34090909,48.6488407 L23.3863636,48.6488407 C25.2179641,48.6488407 26.7272727,47.1564879 26.7272727,45.3454699 L26.7272727,42.0420991 C26.7272727,40.2310811 25.2179641,38.7387283 23.3863636,38.7387283 L3.34090909,38.7387283 Z M3.34090909,40.9409755 L23.3863636,40.9409755 C24.0225791,40.9409755 24.5,41.4130272 24.5,42.0420991 L24.5,45.3454699 C24.5,45.9745418 24.0225791,46.4465935 23.3863636,46.4465935 L3.34090909,46.4465935 C2.70469309,46.4465935 2.22727273,45.9745418 2.22727273,45.3454699 L2.22727273,42.0420991 C2.22727273,41.4130272 2.70469309,40.9409755 3.34090909,40.9409755 Z" id="Shape"></path>
            </g>
        </g>
    </g>
</svg>