<?xml version="1.0" encoding="UTF-8"?> <svg xmlns="http://www.w3.org/2000/svg" xmlns:xlink="http://www.w3.org/1999/xlink" width="86" height="86" viewBox="0 0 86 86"><defs><circle id="button_send-b" cx="43" cy="43" r="43"></circle><filter id="button_send-a" width="140.7%" height="140.7%" x="-18%" y="-14.5%"><feMorphology in="SourceAlpha" operator="dilate" radius="1" result="shadowSpreadOuter1"></feMorphology><feOffset dx="2" dy="5" in="shadowSpreadOuter1" result="shadowOffsetOuter1"></feOffset><feGaussianBlur in="shadowOffsetOuter1" result="shadowBlurOuter1" stdDeviation="4"></feGaussianBlur><feColorMatrix in="shadowBlurOuter1" values="0 0 0 0 0.140571854 0 0 0 0 0.140571854 0 0 0 0 0.140571854 0 0 0 0.5 0"></feColorMatrix></filter><linearGradient id="button_send-c" x1="24.897%" x2="74.31%" y1="-11.996%" y2="109.898%"><stop offset="0%" stop-color="#C38454"></stop><stop offset="36%" stop-color="#C38454"></stop><stop offset="47.047%" stop-color="#BE8651"></stop><stop offset="68%" stop-color="#B67F4F"></stop><stop offset="85%" stop-color="#92683F"></stop><stop offset="100%" stop-color="#876045"></stop></linearGradient></defs><g fill="none" fill-rule="evenodd"><use fill="#000" filter="url(#button_send-a)" xlink:href="#button_send-b"></use><use fill="#9A6F39" xlink:href="#button_send-b"></use><circle cx="43" cy="43" r="43" fill="url(#button_send-c)"></circle><g fill="#FFF" fill-rule="nonzero" transform="translate(23 28)"><path d="M35.5675699,0.275278216 C35.2319154,-0.00443714775 34.769819,-0.0772137696 34.3644034,0.085637106 L3.97201765,12.351416 C3.66463317,12.4756636 3.51618004,12.8256242 3.64044185,13.1329736 C3.76470366,13.440323 4.11470425,13.5887592 4.42208873,13.4645116 L33.4558927,1.75078028 L19.0536182,18.7351562 C18.8393422,18.9880111 18.8706362,19.3666604 19.1235199,19.580912 C19.3764035,19.7951636 19.7550962,19.7638731 19.9693722,19.5110183 L34.5894389,2.26858418 L32.6354975,12.0754273 L30.6672101,25.2261981 C30.6402058,25.4102139 30.5293758,25.5713772 30.3671393,25.6624359 C30.2115835,25.7492756 30.0241711,25.7579245 29.8612313,25.685851 L21.6777436,22.4684915 L17.7507327,20.824443 C17.4451767,20.6962577 17.0934883,20.8399124 16.9652181,21.1454336 C16.9521379,21.1865682 16.9436287,21.2290388 16.9400422,21.2720719 L16.9256259,21.2720719 L14.9759039,28.7999873 L12.1782902,19.0285831 L26.7605931,8.16813138 C26.9469507,8.04571196 27.0501154,7.83012441 27.0283854,7.60820845 C27.0066554,7.38629249 26.8636876,7.19475285 26.6571471,7.11079606 C26.4506067,7.02683926 26.21446,7.06431746 26.0440659,7.20811281 L11.386798,18.1194731 L0.821520102,13.8430906 C0.51490918,13.721515 0.167651214,13.8700918 0.0439519909,14.1758239 C-0.079747232,14.4815561 0.0665258685,14.8297588 0.371449024,14.9555534 L10.9931265,19.2529602 L13.8255504,29.140174 C13.973019,29.6508761 14.4413038,30.0018211 14.9729503,29.9999929 L14.9867337,29.9999929 C15.2765373,29.9947895 15.5542452,29.8830581 15.7668335,29.6861745 C15.7877899,29.673588 15.8078322,29.6595249 15.8268195,29.6441961 L21.6273215,23.7135694 L29.4045498,26.7971184 C29.9043396,27.0094011 30.4744531,26.9774778 30.9473794,26.7107005 C31.4347219,26.4404075 31.7688997,25.9590973 31.8517409,25.4080342 L33.8146837,12.2818739 L35.9750249,1.44476689 C36.0648985,1.0096541 35.9083581,0.560337564 35.5675699,0.275278216 Z M16.6580446,27.0820371 L17.924854,22.1996047 L19.9087532,23.0324224 L20.4200059,23.2352125 L16.6580446,27.0820371 Z"></path></g></g></svg> 