<?xml version="1.0" encoding="UTF-8"?> <svg xmlns="http://www.w3.org/2000/svg" width="25" height="25" viewBox="0 0 25 25"><path fill="#143461" fill-rule="evenodd" d="M20.6226714,3 L5.37732864,3 C4.06428825,3 3,4.0615607 3,5.37187355 L3,20.6281264 C3,21.9378938 4.06428825,23 5.37732864,23 L20.6226714,23 C21.9357118,23 23,21.9378938 23,20.6281264 L23,5.37187355 C23,4.0615607 21.9357118,3 20.6226714,3 L20.6226714,3 Z M17.3752557,6.1246761 C17.3752557,5.77991436 17.6551019,5.49952268 17.9998636,5.49952268 L19.8747784,5.49952268 C20.2200856,5.49952268 20.4999318,5.77991436 20.4999318,6.1246761 L20.4999318,7.99959087 C20.4999318,8.34489813 20.2200856,8.62474429 19.8747784,8.62474429 L17.9998636,8.62474429 C17.6551019,8.62474429 17.3752557,8.34489813 17.3752557,7.99959087 L17.3752557,6.1246761 L17.3752557,6.1246761 Z M13.0231841,9.18607315 C15.1473966,9.18607315 16.8695688,10.9044268 16.8695688,13.0226386 C16.8695688,15.142487 15.1473966,16.8602951 13.0231841,16.8602951 C10.8995172,16.8602951 9.17734501,15.142487 9.17734501,13.0226386 C9.17734501,10.9044268 10.8995172,9.18607315 13.0231841,9.18607315 L13.0231841,9.18607315 Z M21.1250852,20.4999318 C21.1250852,20.8446936 20.8452391,21.1250852 20.4999318,21.1250852 L5.50006819,21.1250852 C5.15476093,21.1250852 4.87491476,20.8446936 4.87491476,20.4999318 L4.87491476,11.1248125 L7.37498295,11.1248125 C7.04931402,11.5934048 6.93912118,12.4678559 6.93912118,13.0226386 C6.93912118,16.3698824 9.6688487,19.0930639 13.0231841,19.0930639 C16.3780651,19.0930639 19.1077926,16.3698824 19.1077926,13.0226386 C19.1077926,12.4678559 19.0286938,11.606497 18.625017,11.1248125 L21.1250852,11.1248125 L21.1250852,20.4999318 L21.1250852,20.4999318 Z"></path></svg> 