<?xml version="1.0" encoding="UTF-8"?> <svg xmlns="http://www.w3.org/2000/svg" width="25" height="25" viewBox="0 0 25 25"><path fill="#143461" fill-rule="evenodd" d="M3.50420168,8.83030632 L7.40227704,8.83030632 L7.40227704,21.181621 L3.50420168,21.181621 L3.50420168,8.83030632 Z M18.0528599,8.71157495 C20.8232583,8.71157495 23,10.4882082 23,14.3141773 L23,21.181621 L18.5798319,21.181621 L18.5798319,14.790187 C18.5798319,13.1171049 17.8885877,11.9747899 16.3678504,11.9747899 C15.2049336,11.9747899 14.5581458,12.7457306 14.2572513,13.4884793 C14.1444836,13.7552182 14.1618325,14.1265926 14.1618325,14.4979669 L14.1618325,21.181621 L9.78286799,21.181621 C9.78286799,21.181621 9.83925183,9.85985362 9.78286799,8.83030632 L14.1618325,8.83030632 L14.1618325,10.7690431 C14.4204391,9.92111683 15.8197343,8.71157495 18.0528599,8.71157495 Z M5.3811331,3 C6.81946327,3 7.70371374,3.92220114 7.73190567,5.14095961 C7.73190567,6.33748983 6.81946327,7.28517213 5.35402548,7.28517213 L5.32583356,7.28517213 C3.91515316,7.28517213 3,6.3412849 3,5.14421252 C3,3.92436975 3.94171862,3 5.3811331,3 Z"></path></svg> 