<?xml version="1.0" encoding="UTF-8"?> <svg xmlns="http://www.w3.org/2000/svg" width="25" height="11" viewBox="0 0 25 11"><path fill="#FFF" d="M24.2916633,4.81262354 L2.418372,4.81262354 L6.16759787,1.17365761 C6.44420334,0.90518676 6.44402626,0.469995859 6.16759787,0.201353135 C5.89099245,-0.0671177118 5.44261532,-0.0671177118 5.16583278,0.201353135 L0.207476237,5.01389073 C-0.0691292245,5.28236158 -0.0691292245,5.71772437 0.207299153,5.98602334 L5.16565569,10.7985609 C5.30395842,10.9327963 5.48529262,11 5.66662677,11 C5.8477839,11 6.02911805,10.9327963 6.16759787,10.798389 C6.44420334,10.5300901 6.44402626,10.0947273 6.16759787,9.82642831 L2.41819492,6.18763425 L24.2916633,6.18763425 C24.6828422,6.18763425 25.000177,5.87963189 24.9999999,5.50012892 C24.9999999,5.12045406 24.6828422,4.81262354 24.2916633,4.81262354 Z"></path></svg> 