<?xml version="1.0" encoding="UTF-8"?> <svg xmlns="http://www.w3.org/2000/svg" width="1995" height="1182" viewBox="0 0 1995 1182"><defs><linearGradient id="navy_gradient_bg-a" x1="10.131%" x2="65.163%" y1="14.731%" y2="123.31%"><stop offset="0%" stop-color="#F0F5FB" stop-opacity=".274"></stop><stop offset="66.302%" stop-color="#38586C" stop-opacity=".661"></stop><stop offset="100%" stop-color="#0E354C" stop-opacity=".282"></stop></linearGradient></defs><g fill="none" fill-rule="evenodd"><path fill="#143461" d="M8,0 L1987,0 C1991.41828,-8.11624501e-16 1995,3.581722 1995,8 L1995,1174 C1995,1178.41828 1991.41828,1182 1987,1182 L8,1182 C3.581722,1182 5.41083001e-16,1178.41828 0,1174 L0,8 C-5.41083001e-16,3.581722 3.581722,8.11624501e-16 8,0 Z"></path><path fill="url(#navy_gradient_bg-a)" d="M8,0 L1987,0 C1991.41828,-8.11624501e-16 1995,3.581722 1995,8 L1995,1174 C1995,1178.41828 1991.41828,1182 1987,1182 L8,1182 C3.581722,1182 5.41083001e-16,1178.41828 0,1174 L0,8 C-5.41083001e-16,3.581722 3.581722,8.11624501e-16 8,0 Z" opacity=".617"></path></g></svg> 