<?xml version="1.0" encoding="UTF-8"?> <svg xmlns="http://www.w3.org/2000/svg" xmlns:xlink="http://www.w3.org/1999/xlink" width="109px" height="107px" viewBox="0 0 109 107"><!-- Generator: Sketch 57.1 (83088) - https://sketch.com --><title>Group 12</title><desc>Created with Sketch.</desc><defs><polygon id="path-1" points="0.3545 0.5777 86.022 0.5777 86.022 75.9997 0.3545 75.9997"></polygon></defs><g id="Welcome" stroke="none" stroke-width="1" fill="none" fill-rule="evenodd"><g id="Review-Page-Desktop-HD" transform="translate(-666.000000, -188.000000)"><g id="Header/Feature-section"><g id="Group-12" transform="translate(666.000000, 188.000000)"><path d="M50.1348,70.7718 C49.4748,70.7718 48.8338,70.5008 48.3738,70.0318 C47.9048,69.5718 47.6348,68.9318 47.6348,68.2718 C47.6348,67.6118 47.9048,66.9608 48.3738,66.5008 C49.2938,65.5718 50.9748,65.5718 51.9048,66.5008 C52.3738,66.9718 52.6348,67.6118 52.6348,68.2718 C52.6348,68.9208 52.3738,69.5718 51.9048,70.0318 C51.4448,70.5008 50.7938,70.7718 50.1348,70.7718" id="Fill-1" fill="#FFFFFF"></path><path d="M65.1846,70.7718 C64.5346,70.7718 63.8846,70.5008 63.4246,70.0418 C62.9546,69.5718 62.6846,68.9208 62.6846,68.2718 C62.6846,67.6118 62.9546,66.9608 63.4246,66.5008 C64.3446,65.5718 66.0246,65.5718 66.9546,66.5008 C67.4246,66.9608 67.6846,67.6118 67.6846,68.2718 C67.6846,68.9208 67.4246,69.5718 66.9546,70.0318 C66.4946,70.5008 65.8446,70.7718 65.1846,70.7718" id="Fill-3" fill="#FFFFFF"></path><path d="M80.2344,70.7718 C79.5844,70.7718 78.9344,70.5008 78.4744,70.0418 C78.0054,69.5718 77.7344,68.9318 77.7344,68.2718 C77.7344,67.6118 78.0054,66.9608 78.4744,66.5008 C79.4044,65.5718 81.0844,65.5718 82.0054,66.5008 C82.4744,66.9608 82.7444,67.6118 82.7444,68.2718 C82.7444,68.9208 82.4744,69.5718 82.0054,70.0418 C81.5444,70.5008 80.8944,70.7718 80.2344,70.7718" id="Fill-5" fill="#FFFFFF"></path><g id="Group-9" transform="translate(22.000000, 30.846000)"><mask id="mask-2" fill="white"><use xlink:href="#path-1"></use></mask><g id="Clip-8"></g><path d="M61.1475,66.8877 L71.8365,71.1017 L72.2405,59.6587 C72.2105,59.1077 72.4105,58.5497 72.8295,58.1357 C78.8435,52.2007 82.0225,44.9407 82.0225,37.1397 C82.0225,19.1847 64.6005,4.5777 43.1855,4.5777 C21.7735,4.5777 4.3545,19.1847 4.3545,37.1397 C4.3545,55.0907 21.7735,69.6957 43.1855,69.6957 C48.7095,69.6957 54.3055,68.6647 59.3685,66.7167 C59.9735,66.4827 60.6295,66.5637 61.1475,66.8877 M73.7365,75.9997 C73.4885,75.9997 73.2395,75.9537 73.0025,75.8607 L60.0215,70.7427 C54.7145,72.6757 48.9135,73.6957 43.1855,73.6957 C19.5685,73.6957 0.3545,57.2967 0.3545,37.1397 C0.3545,16.9797 19.5685,0.5777 43.1855,0.5777 C66.8055,0.5777 86.0225,16.9797 86.0225,37.1397 C86.0225,45.6527 82.5465,53.8817 76.2165,60.4017 L75.7355,74.0707 C75.7115,74.7197 75.3765,75.3177 74.8325,75.6727 C74.5015,75.8897 74.1205,75.9997 73.7365,75.9997" id="Fill-7" fill="#FFFFFF" mask="url(#mask-2)"></path></g><path d="M6.6992,57.5735 C6.2282,57.5735 5.7642,57.4075 5.3962,57.0915 C4.8462,56.6185 4.5952,55.8865 4.7392,55.1755 L6.9542,44.2675 C2.4612,39.4665 0.0002,33.4685 0.0002,27.2625 C0.0002,12.2305 14.2882,0.0005 31.8492,0.0005 C49.4092,0.0005 63.6942,12.2305 63.6942,27.2625 C63.6942,28.3675 62.7992,29.2625 61.6942,29.2625 C60.5902,29.2625 59.6942,28.3675 59.6942,27.2625 C59.6942,14.4355 47.2032,4.0005 31.8492,4.0005 C16.4932,4.0005 4.0002,14.4355 4.0002,27.2625 C4.0002,32.7795 6.2302,37.9175 10.4522,42.1305 C10.9772,42.5955 11.2302,43.3125 11.0862,44.0225 L9.3722,52.4625 L19.6502,48.6875 C20.0902,48.5265 20.5722,48.5245 21.0122,48.6815 L21.3022,48.7855 C21.5532,48.8715 21.8272,48.9605 22.1022,49.0475 C23.1572,49.3775 23.7442,50.4995 23.4132,51.5525 C23.0832,52.6075 21.9562,53.1945 20.9072,52.8635 C20.7242,52.8065 20.5422,52.7485 20.3602,52.6885 L7.3882,57.4515 C7.1642,57.5335 6.9302,57.5735 6.6992,57.5735" id="Fill-10" fill="#FFFFFF"></path></g></g></g></g></svg> 