<svg id="Layer_1" data-name="Layer 1" xmlns="http://www.w3.org/2000/svg" xmlns:xlink="http://www.w3.org/1999/xlink" viewBox="0 0 2233.64 684.03"><defs><style>.cls-1{fill:url(#New_Gradient_Swatch_1);}.cls-2,.cls-5{fill:#13344e;}.cls-3{fill:#fff;}.cls-4,.cls-9{fill:none;stroke-miterlimit:10;}.cls-4{stroke:#ee3938;stroke-width:1.1px;}.cls-5{font-size:96.82px;font-family:ProximaNova-Regular, Proxima Nova;letter-spacing:0.2em;}.cls-6{letter-spacing:0.18em;}.cls-7{letter-spacing:0.2em;}.cls-8{letter-spacing:0.15em;}.cls-9{stroke:#13344e;stroke-width:4.4px;}.cls-10{fill:url(#New_Gradient_Swatch_1-2);}</style><linearGradient id="New_Gradient_Swatch_1" x1="1170.35" y1="103.48" x2="1461.95" y2="608.53" gradientUnits="userSpaceOnUse"><stop offset="0" stop-color="#c18354"/><stop offset="0.13" stop-color="#f9a568"/><stop offset="0.36" stop-color="#c38454"/><stop offset="0.53" stop-color="#996d43"/><stop offset="0.68" stop-color="#b67f4f"/><stop offset="0.85" stop-color="#92683f"/><stop offset="0.98" stop-color="#876045"/></linearGradient><linearGradient id="New_Gradient_Swatch_1-2" x1="285.35" y1="381.48" x2="576.95" y2="886.53" xlink:href="#New_Gradient_Swatch_1"/></defs><title>SKL_logo_bronze</title><path class="cls-1" d="M1094.87,558.15c-35.93-3.51-67.92-37.54-68.13-74.51q-.75-127.84,0-255.71c.23-36.15,31.59-69.42,67.79-74.36a161.43,161.43,0,0,1,21.86-1.38q202.54.08,405.1.05c20.88,0,40,5.67,55.88,19.58,16.31,14.24,27.32,31.89,27.32,54,0,3.36,0,5.15,0,7.74q0,122.29,0,244.59c0,2.59,0,5.31,0,7.73,0,34.68-33.25,69.85-68.22,72.36l-1.72-.16q-219.09-.25-438.2,0l-1.72.11" transform="translate(-141.36 -152.19)"/><path class="cls-2" d="M2149.2,407.75c10.76-35.21,21.63-70.39,32.2-105.66,4.73-15.77,16.47-25.1,32.83-25.22,17.84-.13,29.43,8.42,34.59,25.18,10.49,34.08,21.28,74.14,31.86,108.18l9.31-28.07c9.49-27.3,18-53.61,26.41-81.6,4.59-15.23,15.25-23.75,29.87-23.69,13.26.05,23.87,7.85,27.47,20.4,2.26,7.89,1.29,15.77-1.38,23.3-18.38,51.82-36.74,103.64-55.47,155.32-6.11,16.85-18.35,24.48-35.84,23.9-15.21-.5-26.38-9.29-31.75-25.78q-15.62-48-30.81-96.06c-1-3.08-1-5.13-3.92-5.13-2.23,0-2.58,2.91-3.26,5-10.57,32.53-20.81,65.18-31.64,97.63-7,20.93-28.21,30.11-48.15,21.58-10.83-4.63-16.5-13.63-20.2-24.16q-23.1-65.79-46-131.67c-3.34-9.65-7.72-19-9.21-29.23-2.51-17.21,4.81-29.46,20.36-33.94,15.25-4.39,30.87,2.41,36.51,17.8,6.22,17,10.6,34.61,15.85,51.94,6.07,20,13,42.3,19.12,62.32.68,0,1.27-2.34,1.27-2.34" transform="translate(-141.36 -152.19)"/><path class="cls-2" d="M1694.64,232.54" transform="translate(-141.36 -152.19)"/><path class="cls-2" d="M1696.21,244.78s.17,128.06-.1,190.07c0,7.2,1.82,9.4,9.21,9.33,34.5-.39,69-.31,103.53-.11,17.35.1,26.12,8.69,29.82,23.36a24.19,24.19,0,0,1-.13,10.55c-2.57,13.21-12.45,22.39-26.16,22.46q-74.16.4-148.31,0c-17-.12-29.76-13.38-29.8-30.56q-.27-112.32,0-224.65c0-16.43,12.74-31,30.84-31C1665.11,214.23,1693.12,213.3,1696.21,244.78Z" transform="translate(-141.36 -152.19)"/><path class="cls-2" d="M1693.61,432" transform="translate(-141.36 -152.19)"/><path class="cls-3" d="M1379.09,336.54c-1.46,1.18-2.28,2.5-2.28.3,0-31.32-.16-65-.3-96.35-.08-17.14-13.73-30.37-30.88-30.39-16.65,0-30.83,13.09-30.87,29.64q-.27,115.06,0,230.14c0,16.16,13.89,28.35,30.82,28.41,17.11.07,30.29-11.84,30.86-28.2.29-8.48.21-14.33.33-22.82.26-18.17,0-37,0-37,8.48-8.2,24.8-23.79,24.8-23.79l9.88-9.19" transform="translate(-141.36 -152.19)"/><path class="cls-3" d="M1379.09,336.54c8.56-9.07,17.13-18.15,25.55-27.3,18.6-20.18,37.33-37,55.55-56,11.16-11.6,22.57-23,34.33-34,15.78-14.74,40.1-11.45,48.73,6.17,5.89,12,3.68,25-6.45,35.45-4.68,4.81-10,9-14.85,13.66-20,19.21-38.32,35.49-58.6,54.4L1454.7,337s4.39,5.34,6.54,8q41.31,51.23,82.09,102.88c8.88,11.23,10,25.36,3.38,36-7.55,12.11-19.1,15.67-32.61,14.2-8.09-.88-14.09-5.73-18.86-11.81-15.17-19.33-30.09-38.86-45.09-58.31-11.43-14.83-23.74-30.48-34.91-45.51-1.71-2.3-3.75-5.24-3.75-5.24" transform="translate(-141.36 -152.19)"/><path class="cls-3" d="M1180.94,209.92a150,150,0,0,1,86.65,23.57c14.44,9.11,18.67,24.77,10.94,38.74s-24.35,19.2-39.45,11.3c-14.56-7.61-29-15.34-45.4-18.13-11.32-1.93-22.78-2.71-33.84,1.22-9.59,3.4-17.17,8.92-17.64,20.47-.49,12.1,4.47,21.07,15.47,26.09,18.72,8.55,39,12.23,58.62,18,15.24,4.47,30,10.13,43.42,18.63,28.66,18.16,36.35,45.69,31.4,77.12-6.29,40-34.55,65.13-78.18,71.08-46.61,6.35-89.47-4.14-128.44-30.36-15-10.08-18.36-28-8.34-42.16,9.17-13,28.29-15.33,42.3-5.08,19.84,14.53,41.87,23.27,66.49,24.65,11.16.63,22.26-.52,32.35-6.1,17.42-9.65,17.8-30.92.62-41-15.89-9.3-33.85-12.77-51.34-17.42-19.28-5.13-38.28-10.85-55.37-21.54-15.68-9.81-26.06-23.58-29.3-41.87-5.61-31.65-1.19-60.8,24.07-83.55,16-14.39,35.37-21.4,56.54-23.55,6.08-.62,12.28-.1,18.43-.1" transform="translate(-141.36 -152.19)"/><path class="cls-4" d="M1629.31,174.42" transform="translate(-141.36 -152.19)"/><path class="cls-4" d="M1283.67,496.26" transform="translate(-141.36 -152.19)"/><path class="cls-4" d="M1629.31,174.42" transform="translate(-141.36 -152.19)"/><path class="cls-4" d="M1283.67,496.26" transform="translate(-141.36 -152.19)"/><path class="cls-3" d="M1410.73,378" transform="translate(-141.36 -152.19)"/><path class="cls-3" d="M1411.49,377.25" transform="translate(-141.36 -152.19)"/><path class="cls-2" d="M2044.18,355.87c-2.74-43.34-28.24-70.6-70.42-76.94a191,191,0,0,0-90.11,7.9c-16.82,5.62-24.39,19.4-19.33,34.78,4.53,13.79,18.19,19.81,34.42,15.07a140.07,140.07,0,0,1,48.64-5.19c22.47,1.46,35.52,12.84,38.36,32.64,1,7-.43,8.71-7.78,6.53a152.34,152.34,0,0,0-79.81-2.24c-29.84,7.13-49.28,28.13-50.81,54.25.25,7.1.35,14.19-.06,21.29,2.06,21.32,13.38,36.48,31.82,46.37,30.89,16.55,73,11.77,99.8-10.77,1.83-1.53,2.93-4.62,6.22-3.94,6,17.21,17.85,24.94,34.63,22.68,14-1.9,24.88-12.83,25-27.38C2045.16,432.57,2046.6,394.15,2044.18,355.87ZM1969,449.8c-16.1,8.93-33.3,11.54-50.32,3-16-8.09-17.86-30.43-4.12-42.11,6.48-5.5,14.29-7.8,22.5-8.84,3.76-.48,7.58-.42,11.38-.6,10.94-.24,21.47,1.93,31.83,5.27,4.33,1.4,6.37,3.54,6.52,8.68C1987.29,430.21,1982.37,442.41,1969,449.8Z" transform="translate(-141.36 -152.19)"/><text class="cls-5" transform="translate(1044.87 575.1)">INJU<tspan class="cls-6" x="282.9" y="0">R</tspan><tspan class="cls-7" x="359.58" y="0">Y L</tspan><tspan class="cls-8" x="552.64" y="0">A</tspan><tspan class="cls-7" x="631.16" y="0">WYERS</tspan></text><line class="cls-9" x1="885" y1="449.51" x2="2233.64" y2="449.51"/><path class="cls-10" d="M209.87,836.15c-35.93-3.51-67.92-37.54-68.13-74.51q-.75-127.85,0-255.71c.23-36.15,31.59-69.42,67.79-74.36a161.43,161.43,0,0,1,21.86-1.38q202.55.07,405.1.05c20.88,0,40,5.67,55.88,19.58,16.31,14.24,27.32,31.89,27.32,54,0,3.36,0,5.15,0,7.74q0,122.3,0,244.59c0,2.59,0,5.31,0,7.73,0,34.68-33.25,69.85-68.22,72.36l-1.72-.16q-219.09-.25-438.2,0l-1.72.11" transform="translate(-141.36 -152.19)"/></svg>