<?xml version="1.0" encoding="UTF-8"?> <svg xmlns="http://www.w3.org/2000/svg" id="Layer_1" data-name="Layer 1" viewBox="0 0 179.27 142.72"><defs><style>.cls-1{fill:#fff;}</style></defs><title>JSL-wc-icon</title><path class="cls-1" d="M189.48,135.14a3,3,0,0,0-4.15-1l-13.58,8.1-14.62-21.76a3,3,0,0,0-2.51-1.34H133.55V82.28c.7-5.65-1.56-16.57-15-18.84a2.92,2.92,0,0,0-.51,0H58L46.73,30.33a3,3,0,0,0-2.86-2H13.67a3,3,0,1,0,0,6h28L52.42,65.9V88.32a41.48,41.48,0,1,0,46.05,36.84h29v12.26a3.07,3.07,0,0,0,.4,1.51l4,6.91a14.84,14.84,0,1,0,5-3.49l-3.31-5.74V125.16H153L168.33,148a3,3,0,0,0,4.06.91l16-9.58A3,3,0,0,0,189.48,135.14Zm-46.76,12.07a8.89,8.89,0,1,1-7.58,4.28l3.48,6a3,3,0,1,0,5.24-3l-3.94-6.84A8.65,8.65,0,0,1,142.72,147.21ZM127.06,76.83a2.81,2.81,0,0,0-.77-.11H58.47V69.45h59.28C123.76,70.54,126.14,73.9,127.06,76.83ZM69.29,127.58a7.15,7.15,0,0,0-1.39-3.92l16.52-16.39a33.46,33.46,0,0,1,8.13,20.31Zm-47.32,6H45.42c.31,0,.76,1.73,1.32,2.63L30.26,152.88A35.15,35.15,0,0,1,22,133.63Zm7.8-26.2,16.58,16.71a12.63,12.63,0,0,0-1.2,3.44H21.89A33.52,33.52,0,0,1,29.77,107.43ZM63.5,129.52a6.28,6.28,0,1,1-6.28-6.27A6.28,6.28,0,0,1,63.5,129.52ZM53.63,94.25v23.4a12.12,12.12,0,0,0-3.35,1.59L33.77,102.81A36,36,0,0,1,53.63,94.25Zm-2.69,45.94a8.21,8.21,0,0,0,2.69,1.19v23.41a35.19,35.19,0,0,1-19.29-8.07Zm8.74,1.33a11.24,11.24,0,0,0,3.19-1.13L79.37,157a36,36,0,0,1-19.69,7.86ZM63.53,119a14.67,14.67,0,0,0-3.85-1.53V94.21a33.31,33.31,0,0,1,20.26,8.34Zm20.4,34L67.5,136.73c.65-1,1.17-3.1,1.52-3.1H92.47A35.11,35.11,0,0,1,83.93,153ZM97.38,119.1a41.55,41.55,0,0,0-38.91-31v-5.3h67.82a3,3,0,0,0,1.21-.25v26.89H103.28a3,3,0,0,0,0,6.06H127.5v3.63Z" transform="translate(-10.64 -28.28)"></path></svg> 