<?xml version="1.0" encoding="UTF-8"?> <!-- Generator: Adobe Illustrator 23.0.3, SVG Export Plug-In . SVG Version: 6.00 Build 0) --> <svg xmlns="http://www.w3.org/2000/svg" xmlns:xlink="http://www.w3.org/1999/xlink" id="Layer_1" x="0px" y="0px" viewBox="0 0 63 61" style="enable-background:new 0 0 63 61;" xml:space="preserve"> <style type="text/css"> .st0{fill:#44D62C;} </style> <g transform="translate(0 3)"> <path class="st0" d="M24.6,7.7l-3.3-3.3c-0.5-0.5-1.4-0.5-1.9,0s-0.5,1.4,0,1.9l3.3,3.3c0.3,0.3,0.6,0.4,1,0.4c0.4,0,0.7-0.1,1-0.4 C25.1,9.1,25.1,8.2,24.6,7.7z"></path> <path class="st0" d="M32.6,6.6V1.9c0-0.8-0.6-1.4-1.4-1.4c-0.8,0-1.4,0.6-1.4,1.4v4.6c0,0.4,0.1,0.7,0.4,1s0.6,0.4,1,0.4 C32,7.9,32.6,7.3,32.6,6.6z"></path> <path class="st0" d="M43.6,4.4c-0.5-0.5-1.3-0.5-1.9,0l-3.4,3.4c-0.5,0.5-0.5,1.4,0,1.9C38.6,9.9,39,10,39.3,10 c0.3,0,0.7-0.1,0.9-0.4l3.4-3.4C44.1,5.7,44.1,4.9,43.6,4.4z M54.9,28.8h-1c0.8-1,1.3-2.3,1.3-3.8v-1.7c0-3.4-2.8-6.2-6.3-6.2 s-6.3,2.8-6.3,6.2v1.3l-9.3-9.1c-0.5-0.5-1.3-0.7-2-0.4c-0.7-0.2-1.4-0.1-2,0.4l-9.3,9.1v-1.3c0-3.4-2.8-6.2-6.3-6.2 s-6.3,2.8-6.3,6.2V25c0,1.4,0.5,2.7,1.3,3.8h-1c-4.4,0-8.1,3.6-8.1,7.9v16.1C0,53.5,0.6,54,1.2,54h5.2c0.1,0,0.2,0,0.3,0 c0.1,0,0.2,0,0.4,0h13.8c0.7,0,1.2-0.5,1.2-1.2v-8.1c0-0.7-0.5-1.2-1.2-1.2s-1.2,0.5-1.2,1.2v6.9H8.4V37.8c0-0.7-0.6-1.2-1.2-1.2 s-1.2,0.5-1.2,1.2v13.8H2.5V36.7c0-3,2.5-5.5,5.6-5.5h8.6c0.3,0,0.6-0.1,0.9-0.4c0,0,4.3-4.2,12.8-12.6c-0.1,2.5-0.9,4.9-2.3,7 l-8.1,11.8c-0.1,0.2-0.2,0.4-0.2,0.7v11.3c0,0.7,0.5,1.2,1.2,1.2s1.2-0.5,1.2-11.2v-1L30,26.7c0.6-0.9,1.1-1.8,1.5-2.8 c0.4,1,0.9,1.9,1.5,2.8l7.8,11.5v14.7c0,0.7,0.5,1.2,1.2,1.2h13.8c0.1,0,0.2,0,0.3,0c0.1,0,0.2,0,0.3,0h5.2c0.7,0,1.2-0.5,1.2-1.2 V36.7C63,32.3,59.4,28.8,54.9,28.8z M17.8,25c0,2.1-1.7,3.8-3.8,3.8s-3.8-1.7-3.8-3.8v-1.7c0-2.1,1.7-3.8,3.8-3.8s3.8,1.7,3.8,3.8 V25z M45.2,23.3c0-2.1,1.7-3.8,3.8-3.8s3.8,1.7,3.8,3.8V25c0,2.1-1.7,3.8-3.8,3.8s-3.8-1.7-3.8-3.8V23.3z M57.1,51.6v-14 c0-0.7-0.5-1.2-1.2-1.2s-1.2,0.5-1.2,1.2v14H43.3V37.8c0-0.2-0.1-0.5-0.2-0.7l-8-11.8c-1.4-2.1-2.2-4.5-2.3-7l12.8,12.6 c0.3,0.2,0.5,0.4,0.9,0.4h8.5c3.1,0,5.6,2.5,5.6,5.5v14.9H57.1z"></path> </g> </svg> 