<?xml version="1.0" encoding="UTF-8"?> <!-- Generator: Adobe Illustrator 23.0.4, SVG Export Plug-In . SVG Version: 6.00 Build 0) --> <svg xmlns="http://www.w3.org/2000/svg" xmlns:xlink="http://www.w3.org/1999/xlink" id="Layer_1" x="0px" y="0px" viewBox="0 0 792 612" style="enable-background:new 0 0 792 612;" xml:space="preserve"> <style type="text/css"> .st0{fill:#11344E;} .st1{fill:#1E99D3;} </style> <g> <path class="st0" d="M239.4,176.9h-14.9v37.2h16.1c9.5,0,17.6-8.5,17.6-18.6C258.1,185.3,249.7,176.9,239.4,176.9z M249.1,195.5 c0,5.5-4.2,10.1-9.2,10.1h-6.6v-20.2h6C244.7,185.4,249.1,189.9,249.1,195.5z"></path> <polygon class="st0" points="270.9,200 286.9,200 286.9,192.1 270.9,192.1 270.9,185 290,185 290,176.9 262.1,176.9 262.1,214.1 291,214.1 291,206 270.9,206 "></polygon> <polygon class="st0" points="314.9,196.5 300.8,176.9 295.9,176.9 295.9,214.1 304.9,214.1 304.9,196.6 314.9,210.6 324.9,196.6 324.9,214.1 334,214.1 334,176.9 329,176.9 "></polygon> <path class="st0" d="M354.5,176.9l-17.7,37.2h9.7l3.1-7.2h14.5l3.2,7.2h9.7l-17.8-37.2H354.5z M360.7,199.1H353l3.8-8.4 L360.7,199.1z"></path> <polygon class="st0" points="404.3,197.7 384.6,176.9 379.8,176.9 379.8,214.1 388.8,214.1 388.8,193.3 408.5,214.1 413.4,214.1 413.4,176.9 404.3,176.9 "></polygon> <path class="st0" d="M434.7,176.9h-14.9v37.2h16.1c9.5,0,17.6-8.5,17.6-18.6C453.4,185.3,445,176.9,434.7,176.9z M444.4,195.5 c0,5.5-4.2,10.1-9.2,10.1h-6.6v-20.2h6C440,185.4,444.4,189.9,444.4,195.5z"></path> </g> <path class="st1" d="M539.6,214.1h-78.9c-1.1,0-2-0.9-2-2v-33.2c0-1.1,0.9-2,2-2h78.9c1.1,0,2,0.9,2,2v33.2 C541.6,213.2,540.7,214.1,539.6,214.1z"></path> <g> <path class="st0" d="M329.4,286.8h-14.9V324h16.1c9.5,0,17.6-8.5,17.6-18.6C348.1,295.2,339.7,286.8,329.4,286.8z M339.1,305.5 c0,5.5-4.2,10.1-9.2,10.1h-6.6v-20.2h6C334.7,295.3,339.1,299.9,339.1,305.5z"></path> <polygon class="st0" points="360.9,309.9 376.9,309.9 376.9,302 360.9,302 360.9,295 380,295 380,286.8 352.1,286.8 352.1,324 381,324 381,315.9 360.9,315.9 "></polygon> <polygon class="st0" points="404.9,306.4 390.8,286.8 385.9,286.8 385.9,324 394.9,324 394.9,306.5 404.9,320.5 414.9,306.6 414.9,324 424,324 424,286.8 419,286.8 "></polygon> <path class="st0" d="M444.5,286.8L426.7,324h9.7l3.1-7.2h14.5l3.2,7.2h9.7l-17.8-37.2H444.5z M450.7,309H443l3.8-8.4L450.7,309z"></path> <polygon class="st0" points="494.3,307.6 474.6,286.8 469.8,286.8 469.8,324 478.8,324 478.8,303.3 498.5,324 503.4,324 503.4,286.8 494.3,286.8 "></polygon> <path class="st0" d="M524.7,286.8h-14.9V324h16.1c9.5,0,17.6-8.5,17.6-18.6C543.4,295.2,535,286.8,524.7,286.8z M534.4,305.5 c0,5.5-4.2,10.1-9.2,10.1h-6.6v-20.2h6C530,295.3,534.4,299.9,534.4,305.5z"></path> </g> <path class="st1" d="M305.6,324h-78.9c-1.1,0-2-0.9-2-2v-33.2c0-1.1,0.9-2,2-2h78.9c1.1,0,2,0.9,2,2V322 C307.6,323.1,306.7,324,305.6,324z"></path> <g> <path class="st1" d="M250.9,258.4c0,4.6-2.8,7.6-7,7.6c-3.9,0-6.8-2.4-7.6-6.4l-0.3-1.1l-11.6,1.1l0.1,1.3 c1,10.1,9.5,17.6,19.6,17.6c12.7,0,20-8.4,20-23.2v-32.1h-13.3V258.4z"></path> <path class="st1" d="M306.9,253c0,9-3.6,13.2-11.5,13.2c-7.7,0-11.3-4.2-11.3-13.2v-29.7h-13v32.5c0,13.9,9.5,22.8,24.3,22.8 c14.8,0,24.4-9,24.4-22.8v-32.5h-13V253z"></path> <path class="st1" d="M349.6,244.5c-7.9-1.8-10.5-3.2-10.5-5.7c0-2.6,2.7-4.3,7-4.3c4.4,0,10.6,1.4,15.4,3.4l1.1,0.5l5.5-10.8 l-1.3-0.6c-4.5-2-11.8-4.3-20.5-4.3c-12.3,0-20.5,6.8-20.5,17c0,11.4,10.1,14.7,20.4,17c7.6,1.8,10.1,3.1,10.1,5.6 c0,4-4.9,4.6-7.8,4.6c-6.2,0-10.9-0.6-17.6-3.9l-1.2-0.6l-5,10.6l1.1,0.6c8.6,4.3,13.3,5.1,22.2,5.1c13,0,21.5-6.8,21.5-17.3 C369.5,251.1,361.5,247.2,349.6,244.5z"></path> <polygon class="st1" points="370.9,235.1 387.4,235.1 387.4,278 400.7,278 400.7,235.1 417.3,235.1 417.3,223.3 370.9,223.3 "></polygon> <rect x="422.7" y="223.3" class="st1" width="13.3" height="54.7"></rect> <path class="st1" d="M470.9,235.4c4.9,0,9.4,2.4,12.2,6.3l0.8,1.2l10.3-8.7l-0.8-1c-5.6-6.6-13.8-10.4-22.5-10.4 c-15.9,0-28.8,12.5-28.8,28c0,15.4,12.9,27.9,28.8,27.9c8.8,0,17-3.8,22.5-10.4l0.8-1l-10.3-8.7l-0.8,1.2 c-2.8,3.9-7.3,6.3-12.2,6.3c-8.7,0-15.2-6.6-15.2-15.3C455.7,241.8,462.1,235.4,470.9,235.4z"></path> <polygon class="st1" points="511.9,266.2 511.9,257.1 535.4,257.1 535.4,245.7 511.9,245.7 511.9,235.1 540,235.1 540,223.3 499,223.3 499,278 541.6,278 541.6,266.2 "></polygon> </g> <g> <path class="st1" d="M265.5,384.7c0,6.9-4.3,11.5-10.6,11.5c-5.9,0-10.2-3.6-11.6-9.7l-0.4-1.7l-17.3,1.7l0.2,1.9 c1.6,15.1,14.3,26.5,29.5,26.5c19.1,0,30.1-12.7,30.1-34.9v-48.3h-19.9V384.7z"></path> <path class="st1" d="M352,376.6c0,13.6-5.5,19.9-17.3,19.9c-11.7,0-17.1-6.3-17.1-19.9v-44.8h-19.4v48.9 c0,20.8,14.3,34.3,36.5,34.3c22.3,0,36.8-13.5,36.8-34.3v-48.9H352V376.6z"></path> <path class="st1" d="M418.3,331.8h-33v82.3h35.5c21.1,0,38.9-18.8,38.9-41.1C459.7,350.3,441.1,331.8,418.3,331.8z M404.6,350.3 h13.7c12.1,0,21.9,10.2,21.9,22.8c0,12.3-9.5,22.7-20.7,22.7h-14.9V350.3z"></path> <path class="st1" d="M501.9,331.8h-33v82.3h35.5c21.1,0,38.9-18.8,38.9-41.1C543.4,350.3,524.8,331.8,501.9,331.8z M488.3,350.3 h13.7c12.1,0,21.9,10.2,21.9,22.8c0,12.3-9.5,22.7-20.7,22.7h-14.9V350.3z"></path> </g> </svg> 