<?xml version="1.0" encoding="UTF-8"?> <svg xmlns="http://www.w3.org/2000/svg" id="Layer_1" data-name="Layer 1" viewBox="0 0 500 500"><defs><style>.cls-1{fill:#fff;}</style></defs><title>Untitled-2</title><path class="cls-1" d="M372,165.5a7.94,7.94,0,0,0-7.92,7.93,45.45,45.45,0,0,1-77.9,31.81,7.92,7.92,0,1,0-11.32,11.07A60.5,60.5,0,0,0,309.21,234a3,3,0,0,1,2.49,2.34,46.1,46.1,0,0,0,45,36.51,7.92,7.92,0,1,0,0-15.84,30.42,30.42,0,0,1-28.23-19.5,3,3,0,0,1,2.21-4,61.43,61.43,0,0,0,49.2-60.06A7.94,7.94,0,0,0,372,165.5Z"></path><path class="cls-1" d="M318.61,417.68a7.93,7.93,0,0,0,7.93-7.91A45.5,45.5,0,0,1,372,364.31a7.92,7.92,0,1,0,0-15.83c-1.36,0-2.77,0-4.19.15a3.07,3.07,0,0,1-2.2-.75,3,3,0,0,1-1-2.1,61.21,61.21,0,0,0-61.22-58.3,7.93,7.93,0,0,0,0,15.85,45.49,45.49,0,0,1,45.44,45.45c0,.82,0,1.65-.06,2.47a3,3,0,0,1-1.77,2.59,61.62,61.62,0,0,0-25.54,21.3,60.88,60.88,0,0,0-10.75,34.63A7.93,7.93,0,0,0,318.61,417.68Z"></path><path class="cls-1" d="M439,270.3a3,3,0,0,1,0-3.21,61.17,61.17,0,0,0-7.22-74.71,3,3,0,0,1-.71-2.85A61.25,61.25,0,0,0,387.7,114.2a3,3,0,0,1-1.85-1.44,3,3,0,0,1-.25-2.33,46.1,46.1,0,0,0-25.55-55.37,3.86,3.86,0,0,1-.65-.39c-26.89-21.3-56.38-34-78.9-34a38.55,38.55,0,0,0-28.29,12.47,3,3,0,0,1-2.21,1h0a3,3,0,0,1-2.21-1,38.49,38.49,0,0,0-28.27-12.47c-22.54,0-52,12.71-78.91,34a3.34,3.34,0,0,1-.65.4,46.05,46.05,0,0,0-25.55,55.37,3,3,0,0,1-2.11,3.77,61.3,61.3,0,0,0-45.58,59.23,60.17,60.17,0,0,0,2.18,16.1,3,3,0,0,1-.71,2.86A61.16,61.16,0,0,0,61,267.09a3,3,0,0,1,0,3.21A60.94,60.94,0,0,0,51.48,303,61.69,61.69,0,0,0,80.81,355.3a3,3,0,0,1,1.42,2.82c-.17,2-.25,3.95-.25,5.9a69,69,0,0,0,46.67,65.17,3,3,0,0,1,1.59,1.28,68.83,68.83,0,0,0,95.49,22.33A69.8,69.8,0,0,0,247.46,431a3,3,0,0,1,5.09,0,69.7,69.7,0,0,0,21.73,21.84,68.79,68.79,0,0,0,95.48-22.33,3,3,0,0,1,1.6-1.28A69,69,0,0,0,418,364c0-1.91-.09-3.89-.26-5.9a3,3,0,0,1,1.43-2.81A61.68,61.68,0,0,0,448.52,303,61,61,0,0,0,439,270.3ZM242.31,389.07c-.16,2-.23,3.76-.23,5.46a53.06,53.06,0,0,1-100,24.67,8,8,0,0,0-5-4,53,53,0,0,1-38.17-61.83,7.92,7.92,0,0,0-4.54-8.83,45.49,45.49,0,0,1-27-41.52,44.94,44.94,0,0,1,4-18.59,3,3,0,0,1,4.54-1.16,61.57,61.57,0,0,0,37,12.43,7.92,7.92,0,0,0,0-15.83,45.46,45.46,0,0,1-29.17-80.32,7.82,7.82,0,0,0,2.3-9,45.45,45.45,0,1,1,87.56-17.08,7.93,7.93,0,0,0,15.85,0,61.42,61.42,0,0,0-55.39-61,3,3,0,0,1-2.39-1.63,30.25,30.25,0,0,1,14.84-41.27,1.75,1.75,0,0,1,.32-.12,7.55,7.55,0,0,0,1-.42l.24-.1A30.2,30.2,0,0,1,185.7,84a8,8,0,0,0,7.14,4.45A7.92,7.92,0,0,0,200,77.09,46.29,46.29,0,0,0,176.85,55a3,3,0,0,1-.22-5.39C192.49,41,207.32,36.5,219.52,36.5a22.59,22.59,0,0,1,22.56,22.56v55a3,3,0,0,1-4.42,2.64,38.5,38.5,0,0,0-18.14-4.59,7.93,7.93,0,1,0,0,15.85,22.59,22.59,0,0,1,22.56,22.57V386.64a8.12,8.12,0,0,0,.17,1.59A3,3,0,0,1,242.31,389.07ZM387.23,295.7a61.57,61.57,0,0,0,37-12.43,3,3,0,0,1,4.54,1.16,44.78,44.78,0,0,1,4,18.59,45.47,45.47,0,0,1-27,41.52,7.88,7.88,0,0,0-4.54,8.82v0A55.15,55.15,0,0,1,402.18,364a53.11,53.11,0,0,1-39.28,51.2,7.86,7.86,0,0,0-4.92,3.95,53.05,53.05,0,1,1-60.77-75.83,7.9,7.9,0,0,0,4.82-3.72,7.8,7.8,0,0,0,.77-6,7.89,7.89,0,0,0-9.68-5.62A67.66,67.66,0,0,0,263,345.12a3,3,0,0,1-5.09-2.15V181a22.6,22.6,0,0,1,22.58-22.57,7.93,7.93,0,1,0,0-15.85,37.74,37.74,0,0,0-18.15,4.57,3,3,0,0,1-4.43-2.63V59.06A22.6,22.6,0,0,1,280.5,36.5c12.21,0,27,4.54,42.87,13.13a3,3,0,0,1-.23,5.39,46.2,46.2,0,0,0-23.07,22.06A7.92,7.92,0,1,0,314.31,84,30.21,30.21,0,0,1,352,68.89l.23.1a9.84,9.84,0,0,0,1.05.42,1.75,1.75,0,0,1,.32.12,30.21,30.21,0,0,1,14.82,41.27,3,3,0,0,1-2.39,1.63,61.43,61.43,0,0,0-55.37,61,7.93,7.93,0,0,0,15.85,0,45.44,45.44,0,1,1,87.55,17,7.86,7.86,0,0,0,2.26,9.05,45.45,45.45,0,0,1-29.12,80.35,7.92,7.92,0,0,0,0,15.83Z"></path><path class="cls-1" d="M128,271.55a46.1,46.1,0,0,0,45-36.5,3,3,0,0,1,2.49-2.34A60.69,60.69,0,0,0,209.94,215a7.94,7.94,0,0,0-.14-11.19,7.82,7.82,0,0,0-5.54-2.27A7.91,7.91,0,0,0,198.6,204a45.45,45.45,0,0,1-77.92-31.8,7.91,7.91,0,1,0-15.82,0A61.43,61.43,0,0,0,154,232.21a3,3,0,0,1,2.21,4A30.41,30.41,0,0,1,128,255.72a7.92,7.92,0,1,0,0,15.83Z"></path><path class="cls-1" d="M214.75,286.5a7.93,7.93,0,0,0-7.92-7.92,61.21,61.21,0,0,0-61.23,58.3,3,3,0,0,1-1,2.1,3,3,0,0,1-2.2.75c-1.41-.1-2.78-.15-4.18-.15a7.92,7.92,0,0,0,0,15.84,45.5,45.5,0,0,1,45.44,45.45,7.92,7.92,0,1,0,15.83,0,60.8,60.8,0,0,0-10.75-34.63,61.6,61.6,0,0,0-25.51-21.3,3,3,0,0,1-1.77-2.59q-.06-1.2-.06-2.49a45.49,45.49,0,0,1,45.44-45.45A7.92,7.92,0,0,0,214.75,286.5Z"></path></svg> 