<?xml version="1.0" encoding="UTF-8"?> <svg xmlns="http://www.w3.org/2000/svg" xmlns:xlink="http://www.w3.org/1999/xlink" width="158px" height="68px" viewBox="0 0 158 68"><!-- Generator: Sketch 57.1 (83088) - https://sketch.com --><title>car-03</title><desc>Created with Sketch.</desc><g id="Case-Type-Page" stroke="none" stroke-width="1" fill="none" fill-rule="evenodd" stroke-linecap="round" stroke-linejoin="round"><g id="Car-Accident---Case-Type-Page" transform="translate(-641.000000, -280.000000)" stroke="#FFFFFF" stroke-width="3.97"><g id="car-03" transform="translate(643.000000, 282.000000)"><path d="M17.66,32.14 L59.5,32.14" id="Path"></path><path d="M75.6,32.14 L129.18,32.14" id="Path"></path><path d="M67.62,46.1 L67.62,6.38" id="Path"></path><path d="M38.74,7.78 C31.56,11.7 30,18.44 33.22,18.78 C39.36,19.49 76.99,19.7 103.95,19.78" id="Path"></path><path d="M129.91,51.86 C133.71,51.86 142.99,51.86 144.97,50.4 C146.56,49.23 147.29,47.19 148.82,46.05 C150.15,45.05 152.5,45.11 153.42,43.68 C154.78,41.56 153.27,36.88 153.68,34.27 C154.68,28.27 149.74,22.13 130.68,19.63 C111.62,17.13 104.19,10.88 92.5,3.87 C80.81,-3.14 23.76,2 21.73,2.25 C19.7,2.5 20.42,5.5 20.42,5.5 C20.42,5.5 8.37,13.25 4.42,16.13 C1,18.64 3.92,21.44 3.86,24.48 C3.78,28.8 3.08,29.92 1.22,34 C-0.15,37 1.92,42.21 2.88,45 C4.16,48.74 7.23,48.92 16.88,50" id="Path"></path><path d="M43,51.94 C48.9,52 53,51.94 53,51.94 C53,51.94 80.67,51.94 106.36,52" id="Path"></path><path d="M39.27,60.4 C35.9376982,63.8358045 30.8600361,64.9183306 26.4161883,63.140353 C21.9723405,61.3623754 19.0427116,57.0761428 19,52.29 L19,52.29 C18.8749035,47.9941605 21.0952568,43.9700054 24.7961127,41.7851595 C28.4969686,39.6003136 33.0930314,39.6003136 36.7938873,41.7851595 C40.4947432,43.9700054 42.7150965,47.9941605 42.59,52.29 C42.59,52.49 42.59,52.68 42.59,52.88 C42.4275314,55.7052867 41.2482754,58.3763727 39.27,60.4 Z" id="Path"></path><path d="M126.62,60.4 C123.293623,63.8607305 118.201223,64.9592923 113.743941,63.1776976 C109.28666,61.396103 106.354493,57.0900876 106.33,52.29 L106.33,52.29 C106.33,45.7785628 111.608563,40.5 118.12,40.5 C124.631437,40.5 129.91,45.7785628 129.91,52.29 C129.91,52.49 129.91,52.68 129.91,52.88 C129.761045,55.7025761 128.59188,58.3749537 126.62,60.4 L126.62,60.4 Z" id="Path"></path><polyline id="Path" points="153.75 33.65 137.43 32.14 137.43 29.38"></polyline><path d="M0.76,36.69 C0.76,36.69 8.64,37.23 9.96,31.52 C11.28,25.81 12.86,18.33 12.86,18.33" id="Path"></path></g></g></g></svg> 