<?xml version="1.0" encoding="UTF-8"?> <svg xmlns="http://www.w3.org/2000/svg" xmlns:xlink="http://www.w3.org/1999/xlink" width="101px" height="101px" viewBox="0 0 101 101"><!-- Generator: Sketch 57.1 (83088) - https://sketch.com --><title>Group 3</title><desc>Created with Sketch.</desc><defs><polygon id="path-1" points="0 0 101 0 101 101 0 101"></polygon></defs><g id="Case-Results" stroke="none" stroke-width="1" fill="none" fill-rule="evenodd"><g transform="translate(-670.000000, -269.000000)" id="Group-3"><g transform="translate(670.000000, 269.000000)"><mask id="mask-2" fill="white"><use xlink:href="#path-1"></use></mask><g id="Clip-2"></g><path d="M23.4142061,17.7561607 C24.25827,18.2882143 25.3692601,18.0375179 25.9031125,17.19525 C31.2849216,8.68780357 40.4812502,3.60714286 50.5,3.60714286 C60.5187498,3.60714286 69.7150784,8.68780357 75.0968875,17.19525 C75.4413666,17.738125 76.0257185,18.0357143 76.6226953,18.0357143 C76.952746,18.0357143 77.2864037,17.9455357 77.5857939,17.7561607 C78.4280542,17.2241071 78.6787484,16.1095 78.1466996,15.2672321 C72.097575,5.7065 61.763203,0 50.5,0 C39.236797,0 28.902425,5.7065 22.8533004,15.2672321 C22.3230552,16.1095 22.5719458,17.2241071 23.4142061,17.7561607 M48.6964447,16.2321429 L55.910666,16.2321429 C56.9062285,16.2321429 57.7142213,15.4241429 57.7142213,14.4285714 C57.7142213,13.433 56.9062285,12.625 55.910666,12.625 L52.3035553,12.625 L52.3035553,10.8214286 C52.3035553,9.82585714 51.4955625,9.01785714 50.5,9.01785714 C49.5044375,9.01785714 48.6964447,9.82585714 48.6964447,10.8214286 L48.6964447,12.625 C45.7133642,12.625 43.2857787,15.0508036 43.2857787,18.0357143 C43.2857787,21.0188214 45.7133642,23.4464286 48.6964447,23.4464286 L52.3035553,23.4464286 C53.2973143,23.4464286 54.1071107,24.2562321 54.1071107,25.25 C54.1071107,26.2437679 53.2973143,27.0535714 52.3035553,27.0535714 L45.089334,27.0535714 C44.0937715,27.0535714 43.2857787,27.8615714 43.2857787,28.8571429 C43.2857787,29.8527143 44.0937715,30.6607143 45.089334,30.6607143 L48.6964447,30.6607143 L48.6964447,32.4642857 C48.6964447,33.4598571 49.5044375,34.2678571 50.5,34.2678571 C51.4955625,34.2678571 52.3035553,33.4598571 52.3035553,32.4642857 L52.3035553,30.6607143 C55.2866358,30.6607143 57.7142213,28.2331071 57.7142213,25.25 C57.7142213,22.2650893 55.2866358,19.8392857 52.3035553,19.8392857 L48.6964447,19.8392857 C47.7026857,19.8392857 46.8928893,19.0294821 46.8928893,18.0357143 C46.8928893,17.0419464 47.7026857,16.2321429 48.6964447,16.2321429 M84.3292872,66.4219286 L82.9639959,67.7890357 L70.0938251,54.91875 C63.7651494,48.5882143 53.4668485,48.5882143 47.1381729,54.9169464 L44.2524844,57.8062679 C40.7355515,61.3232321 35.014674,61.319625 31.4977411,57.8044643 L31.4075633,57.7142857 L46.8135329,42.3081786 C48.5106785,40.6110179 50.7669262,39.6767679 53.1638512,39.6767679 L67.7888813,39.6785714 L84.3292872,56.219125 C87.1428335,59.0326964 87.1428335,63.6101607 84.3292872,66.4219286 M82.4247328,76.0674286 C81.8457916,76.9205179 80.9782814,77.4435536 79.9809153,77.5373393 C78.9997813,77.6383393 78.0330756,77.2866429 77.3332961,76.5868571 L71.6142222,70.8659286 C70.9090321,70.1625357 69.7691851,70.1625357 69.063995,70.8659286 C68.3588048,71.5693214 68.3588048,72.7127857 69.063995,73.4161786 L74.7830689,79.1371071 L76.5866242,80.9406786 C77.8725592,82.226625 77.8725592,84.3187679 76.5866242,85.6047143 C75.3006893,86.8906607 73.2085651,86.8906607 71.9226302,85.6047143 L64.4000009,78.0802143 C63.6948108,77.3768214 62.5549638,77.3768214 61.8497737,78.0802143 C61.1445835,78.7836071 61.1445835,79.9270714 61.8497737,80.6304643 L69.3724029,88.1549643 C70.6583379,89.4409107 70.6583379,91.5330536 69.3724029,92.819 C68.086468,94.1049464 65.9943438,94.1049464 64.7084089,92.819 L57.1857796,85.2945 C56.4805895,84.5911071 55.3407425,84.5911071 54.6355524,85.2945 C53.9303622,85.9978929 53.9303622,87.1413571 54.6355524,87.84475 L58.5492674,91.7603036 C58.5492674,91.7603036 58.5492674,91.7621071 58.551071,91.7621071 C59.8370059,93.0480536 59.8370059,95.1401964 58.551071,96.4261429 C57.265136,97.7120893 55.1730118,97.7120893 53.8870769,96.4261429 L52.1827171,94.7199643 C52.5740886,92.5646964 51.9446478,90.2579286 50.2817698,88.5932321 C48.8479433,87.1593929 46.9361747,86.5137143 45.0532629,86.6075 C45.1470478,84.7245714 44.501375,82.8127857 43.0675485,81.3789464 C41.633722,79.9451071 39.7219534,79.2994286 37.8390416,79.3932143 C37.9328265,77.5102857 37.2871537,75.5985 35.8533272,74.1646607 C34.4195007,72.7308214 32.5077321,72.0851429 30.6248203,72.1789286 C30.7186052,70.296 30.0729324,68.3842143 28.6391059,66.950375 C25.9482014,64.2576429 21.5655619,64.2576429 18.8746574,66.950375 L18.0360041,67.7890357 L16.6707128,66.4219286 C13.8571665,63.6101607 13.8571665,59.0326964 16.6707128,56.219125 L33.2111187,39.6785714 L44.3498763,39.6767679 C44.322823,39.705625 44.290359,39.7290714 44.2633057,39.7579286 L27.5822225,56.4391607 C26.8770323,57.1425536 26.8770323,58.2842143 27.5822225,58.9894107 L28.9475139,60.3547143 C33.8712199,65.2784643 41.8808091,65.2766607 46.8027116,60.3565179 L49.6884001,57.469 C54.6121061,52.5470536 62.6216953,52.5470536 67.5435978,57.469 L81.8638271,71.7893571 C83.0397452,72.9652857 83.2814216,74.8049286 82.4247328,76.0674286 M47.7315426,95.8075179 L47.1129231,96.4261429 C45.8269882,97.7120893 43.734864,97.7120893 42.448929,96.4261429 C41.1629941,95.1401964 41.1629941,93.0480536 42.448929,91.7621071 L43.0675485,91.1434821 C43.7096142,90.5014107 44.5554816,90.180375 45.3995455,90.180375 C46.2436094,90.180375 47.0876733,90.5014107 47.7315426,91.1434821 C49.0174775,92.4294286 49.0174775,94.5215714 47.7315426,95.8075179 M40.5173213,88.5932321 L36.2915911,92.819 C35.0056562,94.1049464 32.913532,94.1049464 31.6275971,92.819 C30.3416621,91.5330536 30.3416621,89.4409107 31.6275971,88.1549643 L35.8533272,83.9291964 C36.4953929,83.287125 37.3412603,82.9660893 38.1853242,82.9660893 C39.0293881,82.9660893 39.873452,83.287125 40.5173213,83.9291964 C41.8032562,85.2151429 41.8032562,87.3072857 40.5173213,88.5932321 M24.4133758,85.6047143 C23.1274408,84.3187679 23.1274408,82.226625 24.4133758,80.9406786 L28.6391059,76.7149107 C29.2811716,76.0728393 30.127039,75.7518036 30.9711029,75.7518036 C31.8151668,75.7518036 32.6592307,76.0728393 33.3031,76.7149107 C34.5890349,78.0008571 34.5890349,80.093 33.3031,81.3789464 L29.0773698,85.6047143 C27.7914349,86.8906607 25.6993107,86.8906607 24.4133758,85.6047143 M19.0027098,76.5868571 C17.7167749,75.3009107 17.7167749,73.2087679 19.0027098,71.9228214 L21.4248846,69.500625 C22.0669503,68.8585536 22.9128177,68.5375179 23.7568816,68.5375179 C24.6009455,68.5375179 25.4450094,68.8585536 26.0888787,69.500625 C27.3748136,70.7865714 27.3748136,72.8787143 26.0888787,74.1646607 L23.6667039,76.5868571 C22.3807689,77.8728036 20.2886447,77.8728036 19.0027098,76.5868571 M100.471107,56.4391607 C99.7659173,55.7339643 98.6260703,55.7339643 97.9208802,56.4391607 L93.7853278,60.57475 L69.2822252,36.0714286 L82.4355541,22.9179821 C83.1407443,22.2127857 83.1407443,21.071125 82.4355541,20.3677321 C81.730364,19.6625357 80.590517,19.6625357 79.8853269,20.3677321 L65.4568843,34.7963036 C65.105191,35.148 64.9284426,35.6097143 64.9284426,36.0714286 L53.1638512,36.0714286 C52.2241989,36.0714286 51.3025821,36.18325 50.4062151,36.3834464 C49.5188659,36.1904643 48.6333202,36.0714286 47.7748279,36.0714286 L36.0715574,36.0714286 C36.0715574,35.6097143 35.894809,35.148 35.5431157,34.7963036 L21.1146731,20.3677321 C20.409483,19.6625357 19.269636,19.6625357 18.5644459,20.3677321 C17.8592557,21.071125 17.8592557,22.2127857 18.5644459,22.9179821 L31.7177748,36.0714286 L7.21467219,60.57475 L3.07911983,56.4391607 C2.3739297,55.7339643 1.23408273,55.7339643 0.528892599,56.4391607 C-0.176297533,57.1425536 -0.176297533,58.2842143 0.528892599,58.9894107 L5.93955858,64.400125 C6.29125186,64.7518214 6.75296203,64.9285714 7.21467219,64.9285714 C7.67638235,64.9285714 8.13809252,64.7518214 8.48978581,64.400125 L10.9786922,61.9093929 C11.1229766,64.5786786 12.2159311,67.0694107 14.1204855,68.9721786 L15.5849725,70.4366786 C13.8030598,73.1167857 14.0916286,76.7762321 16.4524826,79.1371071 C17.5183838,80.2048214 18.8512111,80.8306607 20.2363416,81.0525 C19.4193311,83.463875 19.9441657,86.2359643 21.8631485,88.1549643 C23.2086008,89.5022321 24.9778886,90.1749643 26.7453728,90.1749643 C26.8626039,90.1749643 26.9762279,90.1479107 27.0916554,90.1406964 C26.9978706,92.023625 27.6435434,93.9354107 29.0773698,95.36925 C30.4228221,96.7165179 32.1921099,97.38925 33.9595941,97.38925 C35.4493308,97.38925 36.921032,96.8824464 38.1582709,95.9283571 C38.4648753,97.0429643 39.0239775,98.1016607 39.8987018,98.9763929 C41.2441541,100.323661 43.0134418,101 44.7809261,101 C46.5502138,101 48.3176981,100.323661 49.6631503,98.9763929 L50.2817698,98.3577679 C50.3557156,98.2838214 50.4080187,98.1954464 50.4783573,98.1178929 L51.3368497,98.9763929 C52.6823019,100.323661 54.4497862,101 56.2190739,101 C57.9865582,101 59.7558459,100.323661 61.1012982,98.9763929 C61.9760225,98.1016607 62.5351247,97.0429643 62.8417291,95.9283571 C64.078968,96.8824464 65.5506692,97.38925 67.0404059,97.38925 C68.8078901,97.38925 70.5771779,96.7165179 71.9226302,95.36925 C73.3564566,93.9354107 74.0021294,92.023625 73.9083446,90.1406964 C74.0255757,90.1479107 74.1391997,90.1749643 74.2546272,90.1749643 C76.0221114,90.1749643 77.7913992,89.5022321 79.1368515,88.1549643 C81.0594414,86.2323571 81.5824725,83.4530536 80.7582477,81.0380714 C82.6375523,80.7350714 84.3202695,79.6998214 85.4114204,78.0910357 C86.962478,75.8041071 86.8885322,72.8047679 85.3825635,70.4709464 L86.8795145,68.9721786 C88.7840689,67.0694107 89.878827,64.5786786 90.0213078,61.9093929 L92.5102142,64.400125 C92.8619075,64.7518214 93.3236176,64.9285714 93.7853278,64.9285714 C94.247038,64.9285714 94.7087481,64.7518214 95.0604414,64.400125 L100.471107,58.9894107 C101.176298,58.2842143 101.176298,57.1425536 100.471107,56.4391607" id="Fill-1" fill="#FFFFFF" mask="url(#mask-2)"></path></g></g></g></svg> 