<?xml version="1.0" encoding="UTF-8"?> <svg xmlns="http://www.w3.org/2000/svg" id="Layer_1" data-name="Layer 1" viewBox="0 0 500 500"><defs><style>.cls-1{fill:#fff;}</style></defs><title>unti</title><path class="cls-1" d="M162.52,55.92a42.24,42.24,0,1,0-42.26,42.24A42.29,42.29,0,0,0,162.52,55.92ZM94,55.92a26.32,26.32,0,1,1,26.3,26.32A26.33,26.33,0,0,1,94,55.92Z"></path><path class="cls-1" d="M213.36,471.26A8,8,0,1,0,221.5,485l165.77-98.58a8.06,8.06,0,0,0,1.84-1.5l98-108.32a8,8,0,1,0-11.8-10.68L378.11,373.29Z"></path><path class="cls-1" d="M458.27,212.42c-18-10.47-35.61-20.77-53-31C369.6,160.61,336,140.93,299.7,120.26a27.93,27.93,0,0,0-13.85-4c-11.24,0-18.66,8.29-21.88,11.88l-74.82,84.52.06-54.82c0-33.85-14.65-51.73-44.76-54.67a8,8,0,0,0-5.78,1.74l-18.41,14.89-18.4-14.89a7.92,7.92,0,0,0-5.77-1.74C66,106.1,51.34,124,51.34,157.85l.15,62.38c0,12.7,8,22.21,20.27,25.07v35.63l-40.3,23.45c-17.91,11.53-24,28.06-23.8,39.69.19,9,4,16.61,10.26,20.27l162.24,94.29c5.45,3,13.87,3.35,21.67-1.19l162.74-94.61a40.35,40.35,0,0,0,7.58-5.77l80-90.31c8.05-8,17.31-22.29,16.28-36C467.53,219.15,461.76,214.45,458.27,212.42Zm-390.86,7.8-.14-62.39c0-24.19,7.93-35.55,27.2-38.43l20.79,16.82a8,8,0,0,0,10,0l20.79-16.83c19.28,2.89,27.22,14.25,27.22,38.43l-.06,64.1L87.68,271.67V238.22a8,8,0,0,0-8-8C71.9,230.26,67.41,226.6,67.41,220.22Zm373.13,35.62-79.64,90a24.23,24.23,0,0,1-4.33,3.28l-162.73,94.6c-1.61.94-4.45,1.78-6.24.86L26,350.61c-.92-.54-2.32-2.82-2.4-6.86-.15-7.33,4.1-18,16.19-25.8l159.48-92.76a7.72,7.72,0,0,0,2-1.63l74.65-84.86c6.6-7.36,9.94-8,15.94-4.61,36.18,20.63,69.79,40.29,105.37,61.1,17.29,10.11,34.71,20.3,52.56,30.69a7.71,7.71,0,0,1,2.77,5.83C452.93,238.35,448,248.34,440.54,255.84Z"></path><path class="cls-1" d="M315.72,171.3a41.52,41.52,0,0,0-35.42,63.12,67.21,67.21,0,0,0-14.22-1.64,72.69,72.69,0,0,0-56.63,27.38,8,8,0,0,0,5.41,12.93c5.16.5,19.25,4.38,43,28.68-11,11.34-26.49,21.46-46.15,30.13a18.89,18.89,0,0,0-10.91,14.24c-1.22,6.65.66,13.56,4.79,17.62a25.68,25.68,0,0,0,18.16,7.37,28.66,28.66,0,0,0,9.14-1.51c31.81-10.57,59.36-33.71,62.41-36.31,19.14-16.39,29.45-36.22,28.29-54.4a42.89,42.89,0,0,0-9.75-24.65c.64,0,1.27.13,1.92.13a41.55,41.55,0,0,0-.08-83.09ZM285,321.22c-10.14,8.69-33.57,25.49-57.06,33.29-4.24,1.41-8.37.6-11-2a5.74,5.74,0,0,1-.28-4,2.72,2.72,0,0,1,1.56-2c24.92-11,44-24.39,56.69-39.81a8,8,0,0,0-.29-10.46c-18.38-19.87-32.93-30-43.9-34.88a56.16,56.16,0,0,1,35.4-12.62,48.07,48.07,0,0,1,26.11,7.36c9.71,6.38,14.95,14.41,15.55,23.85C308.58,293.06,300.29,308.11,285,321.22Zm55.76-102.65a25.66,25.66,0,1,1-3.28-19.32A25.41,25.41,0,0,1,340.73,218.57Z"></path></svg> 