<?xml version="1.0" encoding="UTF-8"?> <svg xmlns="http://www.w3.org/2000/svg" id="Layer_1" data-name="Layer 1" viewBox="0 0 500 500"><defs><style>.cls-1{fill:#fff;}</style></defs><title>Untitled-2</title><path class="cls-1" d="M144.92,215.28c2-10,1.44-16.66-7.32-22.65-12.79-8.73-13.07-25.44-2.33-36.88,5.53-5.9,11.27-11.61,17.14-17.17,11.47-10.84,29.07-10.47,37.69,2.53,5.82,8.77,12.37,8.46,22.08,7,0-6.84-.07-13.89,0-20.94.2-18.91,9.55-29.07,28.12-28,12,.7,18-2.89,23.81-13.93,24-45.47,70.52-68.11,118.43-58.43,30.64,6.19,54.32,23.88,70.6,50.07C484.47,127.3,486,179.69,456.56,231c-44.13,77-144.57,77.6-190,1.39-7.5-12.59-13.9-19.47-29.65-18.22-15.19,1.2-24.43-10.2-24.74-25.81-.15-7.43,0-14.86,0-22.77-9-1.29-16.13-2.65-22,6.73A66.08,66.08,0,0,1,170,192.57c-9.15,5.71-9.24,12.65-7.41,22.73,7,0,14.39-.05,21.74,0,17.17.14,28.23,9.58,27,26.31-1.06,13.8,4.24,19.83,15.67,26.53C266,291,288,324.82,285.67,371.53,284.34,397.76,273,419.94,255,438.7c-53.68,56-152.56,54.66-204.95-2.63-46-50.28-35.27-125.44,23.39-164,3.5-2.3,6.94-5.22,10.83-6.29,11.1-3.06,12.11-10.65,11.77-20.5-.74-21,8.67-30,29.81-30ZM460.85,157a129,129,0,0,0-10.64-52.43c-17-40.24-52.61-65.5-92.19-63.87-37.24,1.53-64.37,21.3-80.19,53.63-8.26,16.88-17.65,23.51-35.41,20.64-5.59-.91-13.18-.55-13.52,6.71-.36,7.41-5.35,16.33,4.59,22.54,8.78,5.49,10.27,18.58,2,23.71-8.67,5.41-7.14,12.44-7.39,19.87-.24,7.19,3.53,10.53,10.28,10.79a183.28,183.28,0,0,0,19.75,0c7.17-.5,10.62,2.74,13.49,9.06a144.08,144.08,0,0,0,14.08,24.92c38,52.59,107.5,54.22,148.07,3.56C452.31,213.11,460.52,186.37,460.85,157ZM169.72,231.79c-1.59,8.38-5.58,15.31-14.21,15.19-5.17-.06-13.76-3.32-14.79-6.89-3-10.52-10-8.8-17.34-9-8.1-.18-11.49,3.87-11.6,11.44-.08,6-.4,12,.08,18,.6,7.4-2.38,11.31-9.22,14.3a132.13,132.13,0,0,0-25,14C25.6,327,23.88,396.9,73.76,436.54c45,35.74,111.45,36.81,157.13,2,23.82-18.14,38.86-41.91,38.94-72.51.1-42.46-22.9-70.86-59.5-88.58-11.19-5.42-15.52-11-15-23.4C196.44,230.37,194.83,229.57,169.72,231.79ZM174,147.85c-13.85.5-18.88,12.3-27.19,19.36-2.1,1.78-2,6.12-2.48,7.68l19.92,1.29,11.05-10.81C170.28,160.09,168.74,154.55,174,147.85Z"></path><path class="cls-1" d="M435.3,156.63c-.29,26.72-7.9,50.49-26.58,69.72-34.07,35.07-84.15,26.22-103.41-18.67-14.62-34.06-14.73-69,.43-102.84,19.79-44.25,69.44-52.4,103.14-17.48C427.51,106.66,435.08,130.43,435.3,156.63Zm-15.77-.52c-1.06-25.4-8.54-48.17-29.74-64.28C367,74.46,338.17,79.39,324.38,104.48c-18.89,34.38-18.95,70.17.05,104.54,14.11,25.51,42.91,30.16,66.05,12.13C411.49,204.78,418.65,181.92,419.53,156.11Z"></path><path class="cls-1" d="M153.17,438.3c-20.91,0-40.34-5.25-57.57-17.19-22.53-15.61-35.53-36.66-32.07-64.78,3.2-26,20.67-41.34,43.78-50,32.07-12,64.68-11.88,96.35,1.48,46.8,19.75,55.13,72.42,17.17,106.25C201.62,431.18,178.64,438.35,153.17,438.3ZM153,422.54c23.83-.56,45.1-7.08,61.72-24.72,22.15-23.5,18.16-56.23-10.11-71.22-34-18-69.3-17.88-103.06.75C75.67,341.6,71.25,372.22,90.3,394.92,106.64,414.4,128.54,421.64,153,422.54Z"></path></svg> 