<?xml version="1.0" encoding="UTF-8"?> <svg xmlns="http://www.w3.org/2000/svg" id="Layer_1" data-name="Layer 1" viewBox="0 0 500 500"><defs><style>.cls-1{fill:#fff;}</style></defs><title>Untitled-2</title><path class="cls-1" d="M463.5,189.78,428.84,152.1a7.47,7.47,0,0,0-5.52-2.42H383.45a7.06,7.06,0,0,0-1.1-.55l-225.63-87a7.48,7.48,0,0,0-7.24,1L49.13,139.52l-.22.18H33.55V212h80.51v-9.6h32.46V456.24H92v15H373v-15H214.79V202.36H458a7.51,7.51,0,0,0,5.52-12.58ZM212,149.68,171.82,84l170.26,65.69Zm-17.59,0H161.52V95.89ZM146.52,84.22v65.46H114.06v-10H73.65ZM99.06,197H48.55V154.7H99.06Zm62.46,124.81,34.7,29.94-34.7,30ZM199.79,335l-36.14-31.19,36.14-31.19Zm0,33.46v62.94l-36.47-31.47Zm-38.27-82.63V225.92l34.7,30Zm0,170.43V418.17l38.27,33v5Zm38.27-217.11-38.27-33v-3.74h38.27Zm-85.73-51.77V164.68H420l20.86,22.68Z"></path><path class="cls-1" d="M385.08,219.08l-11.85,73.65H357.17l-11.85-73.65-14.81,2.38L342,292.77a7.5,7.5,0,0,0-6.61,8.56L341,339a7.49,7.49,0,0,0,7.42,6.4h8.69V366h7.5a11.86,11.86,0,1,1-11.86,11.85,7.5,7.5,0,0,0-15,0,26.86,26.86,0,1,0,34.36-25.79v-6.66h9.39a7.51,7.51,0,0,0,7.41-6.3L395,301.43a7.5,7.5,0,0,0-6.6-8.66l11.48-71.31Zm-10,111.33H354.87l-3.37-22.68h27.29Z"></path></svg> 