<?xml version="1.0" encoding="UTF-8"?> <svg xmlns="http://www.w3.org/2000/svg" id="Layer_1" data-name="Layer 1" viewBox="0 0 500 500"><defs><style>.cls-1{fill:#fff;}</style></defs><title>Untitled-2</title><path class="cls-1" d="M335.16,224.73a84.67,84.67,0,1,0-84.67-84.67A84.77,84.77,0,0,0,335.16,224.73Zm0-154.32a69.65,69.65,0,1,1-69.65,69.65A69.74,69.74,0,0,1,335.16,70.41Z"></path><path class="cls-1" d="M463.62,279.18c11.27-14.42,12-27.63,10-34.46-4.13-14-19.37-20.19-34.21-26.58-15.8-6.8-26.07-10.93-35.43-10.93-16.85,0-23.54,14-27.12,24.63-.5,1.49-.93,3-1.29,4.46H288.46A88.06,88.06,0,0,0,223.68,265a84.49,84.49,0,0,0-19.2,35.2h-.23c-6.78,22.7-7.08,49-7.08,49.43l.12,113.74a7.5,7.5,0,0,0,7.51,7.5H472.65a7.51,7.51,0,0,0,7.52-7.5l.11-113.74C480.28,349.06,479.77,301.61,463.62,279.18Zm-72.5-42.54C396,222.23,401,222.23,404,222.23c6.94,0,17.89,4.72,29.49,9.71,13.44,5.78,23.87,10.71,25.75,17.05,1.33,4.52-1.14,11.54-7.37,20.87-5.72,8.59-15.21,10.39-22.17,10.39a54.4,54.4,0,0,1-21.67-5C395.44,269.71,384.38,256.63,391.12,236.64Zm74,219.19h-56.1l-2.53-51.77a7.32,7.32,0,0,0-7.86-7.13,7.5,7.5,0,0,0-7.14,7.86l2.49,51H283.44l2.49-51a7.5,7.5,0,0,0-7.13-7.86,7.32,7.32,0,0,0-7.87,7.13l-2.52,51.77H212.3l-.1-106.23c0-13.87,2.55-33.18,7.28-47.56a69.67,69.67,0,0,1,15.28-26.92,73,73,0,0,1,53.7-23.8h85.83c1.16,16.27,11,30.32,27.65,37.7a69.37,69.37,0,0,0,27.76,6.25,44.21,44.21,0,0,0,22.73-5.86c8.3,13.07,12.83,41.59,12.83,60.19Z"></path><path class="cls-1" d="M154,202a84.67,84.67,0,1,0-84.67-84.67A84.76,84.76,0,0,0,154,202Zm0-154.32a69.65,69.65,0,1,1-69.65,69.65A69.74,69.74,0,0,1,154,47.66Z"></path><path class="cls-1" d="M99.09,374.47a6.76,6.76,0,1,0-13.48-1l-4.44,61.61H30.79V291.22c0-37.37,34.75-67.77,77.47-67.77h77.46c17.88,0,35.28,5.51,49,15.52l8-10.91c-16-11.7-36.23-18.13-57-18.13H108.26c-50.17,0-91,36.46-91,81.29V440.59a8.13,8.13,0,0,0,8.2,8H189.7V435.11h-95Z"></path></svg> 