<?xml version="1.0" encoding="UTF-8"?> <svg xmlns="http://www.w3.org/2000/svg" id="Layer_1" data-name="Layer 1" viewBox="0 0 500 500"><defs><style>.cls-1{fill:#fff;}</style></defs><title>Untitled-2</title><path class="cls-1" d="M383.3,457.31H187.44a10.51,10.51,0,0,1-10.5-10.5V429a28.34,28.34,0,0,1,28.31-28.31H239.3c-11.43-19.39-26.24-51.13-17.07-73.59,8.87-21.73,31-44.35,85.91-28.68a10.5,10.5,0,1,1-5.76,20.19C259,306.24,247,322.06,241.68,335c-6.7,16.4,12.06,51.62,25.46,70a10.5,10.5,0,0,1-8.48,16.69H205.25a7.32,7.32,0,0,0-7.31,7.31v7.31H379.53c9.3-7.69,38.42-31.75,50.36-42,8.66-7.43,4.25-14.41,2.69-16.37,0-.05-4.19-5.2-7.45-2.81-15.14,11.13-35.26,26.45-35.47,26.6a10.5,10.5,0,0,1-16.86-8.35v-8.9c0-77-16.7-93.21-36-111.93-1.8-1.74-3.61-3.49-5.41-5.29l-71.22-71.22A10.5,10.5,0,0,1,275,181.2l71.22,71.22c1.72,1.72,3.45,3.39,5.17,5.05,19.84,19.22,40.33,39.06,42.27,114.93,6.09-4.57,13-9.71,19.05-14.18,11.17-8.21,26.78-5.34,36.32,6.67a32,32,0,0,1,7,21.77c-.38,6.21-2.85,15.34-12.49,23.6-14.39,12.34-53.18,44.33-53.57,44.65A10.5,10.5,0,0,1,383.3,457.31Z"></path><path class="cls-1" d="M160.73,457.31H116.22a10.51,10.51,0,0,1-10.5-10.5V429a28.34,28.34,0,0,1,20.13-27.1l22.92-76.41c-36.24-33.64-43.05-57.9-43.05-92.35,0-25.06,10.38-64.71,15.52-82.79-22.81-8.9-48.74-18.28-62-23.08a10.5,10.5,0,0,1-6.65-7.44c-6.2-26.06-9.18-38.94-9.18-46.95,0-17.19,11.11-28.3,28.3-28.3h40c1.81-1.86,4.14-4.19,6.33-6.18,8.61-7.82,19.65-11.63,33.77-11.63,19.69,0,60.56,7.87,77.29,19.74,26.95,19.11,40,51,40,97.6a46.14,46.14,0,0,1-54.93,45.28c-21.77-4.07-37.45-23.79-37.29-46.89.26-37.2,9.67-55.85,10.07-56.63a10.5,10.5,0,0,1,18.7,9.56c-.2.4-7.55,15.87-7.77,47.22-.09,12.71,8.58,23.93,20.16,26.1a25.14,25.14,0,0,0,30.06-24.64c0-39.27-10.2-65.59-31.18-80.47-5.27-3.73-16.72-7.87-30.65-11.08-12.64-2.91-26.19-4.79-34.5-4.79-11.4,0-16.49,3.3-19.65,6.17-3.69,3.36-8.23,8.23-8.27,8.28a10.51,10.51,0,0,1-7.69,3.36H71.7c-5,0-7.3,1.09-7.3,7.3,0,5.37,3,18.43,7.3,36.57,16.41,6,44,16,66.22,24.91a10.49,10.49,0,0,1,6.07,13c-.15.46-17.27,56.34-17.27,85.73,0,27.06,2.85,47.34,41,81.17a10.51,10.51,0,0,1,3.09,10.87l-26.71,89A10.5,10.5,0,0,1,134,421.69a7.31,7.31,0,0,0-7.3,7.31v7.31h34a10.5,10.5,0,0,1,0,21Z"></path></svg> 