<?xml version="1.0" encoding="UTF-8"?> <svg xmlns="http://www.w3.org/2000/svg" xmlns:xlink="http://www.w3.org/1999/xlink" width="86px" height="91px" viewBox="0 0 86 91"><!-- Generator: Sketch 57.1 (83088) - https://sketch.com --><title>Group 23</title><desc>Created with Sketch.</desc><defs><polygon id="path-1" points="0 0.491805322 13.5701071 0.491805322 13.5701071 14.2474073 0 14.2474073"></polygon><polygon id="path-3" points="0.05096 0.89375 23.1855 0.89375 23.1855 42.9 0.05096 42.9"></polygon></defs><g id="About-Us" stroke="none" stroke-width="1" fill="none" fill-rule="evenodd"><g id="About-Us-Hover" transform="translate(-142.000000, -1660.000000)"><g id="Group-23" transform="translate(142.000000, 1660.000000)"><path d="M36.31043,18.82335 C32.01653,18.82335 28.52473,15.33025 28.52473,11.03635 C28.52473,6.74375 32.01653,3.25065 36.31043,3.25065 C40.60433,3.25065 44.09613,6.74375 44.09613,11.03635 C44.09613,15.33025 40.60433,18.82335 36.31043,18.82335 M36.31043,0.00065 C30.22513,0.00065 25.27473,4.95105 25.27473,11.03635 C25.27473,17.12165 30.22513,22.07335 36.31043,22.07335 C42.39573,22.07335 47.34613,17.12165 47.34613,11.03635 C47.34613,4.95105 42.39573,0.00065 36.31043,0.00065" id="Fill-1" fill="#FFFFFF"></path><path d="M34.32871,24.02777 C31.93671,24.02777 29.99191,24.21367 28.33181,24.60107 C28.88301,25.54487 29.31461,26.56277 29.60971,27.64047 C30.84601,27.40647 32.37351,27.27777 34.32871,27.27777 L41.23821,27.27777 C42.42641,27.27777 43.73031,27.51957 44.93021,27.90047 C45.82461,26.89167 46.82691,26.16497 47.96831,25.63977 C45.99361,24.65047 43.49111,24.02777 41.23821,24.02777 L34.32871,24.02777 Z" id="Fill-3" fill="#FFFFFF"></path><path d="M40.89592,87.19594 C39.55952,87.19594 38.39082,86.56934 37.69012,85.47734 C37.39372,85.01324 36.88022,84.73244 36.32902,84.73114 L36.32252,84.73114 C35.77522,84.73114 35.26302,85.00674 34.96272,85.46694 C34.24512,86.56544 33.04522,87.19594 31.66982,87.19594 C31.11082,87.19594 30.59862,87.05684 30.11892,86.84494 C29.83162,87.92654 29.37012,88.93534 28.75132,89.83104 C29.64702,90.23144 30.62982,90.44594 31.66982,90.44594 C33.43912,90.44594 35.05632,89.85834 36.31992,88.79104 C37.57312,89.84794 39.18252,90.44594 40.89592,90.44594 C42.74842,90.44594 44.42542,89.75434 45.69292,88.56874 C45.06502,87.39094 44.65032,86.05064 44.51382,84.59334 C43.92492,86.21054 42.58722,87.19594 40.89592,87.19594" id="Fill-5" fill="#FFFFFF"></path><path d="M7.64686,68.78638 L7.64686,84.37598 C7.64686,87.72218 10.36906,90.44568 13.71526,90.44568 C15.01396,90.44568 16.24246,90.04268 17.26166,89.30558 C18.28086,90.04268 19.51066,90.44568 20.80806,90.44568 C24.15426,90.44568 26.87646,87.72348 26.87646,84.37988 L26.90376,68.79808 C29.36596,67.87378 30.48526,65.62348 30.48526,63.55388 L30.51256,52.59358 C30.51256,44.27748 25.44386,42.15588 21.07196,41.83478 L14.94896,41.83478 C15.56126,42.87998 15.98896,43.97718 16.23076,45.08348 L20.95106,45.08088 C25.37496,45.40978 27.26256,47.65618 27.26256,52.58838 L27.23526,63.54998 C27.23526,64.03488 27.07796,65.63908 25.04866,65.93158 C24.24916,66.04858 23.65636,66.73108 23.65506,67.53838 L23.62646,84.37728 C23.62646,85.93078 22.36156,87.19568 20.80806,87.19568 C19.91756,87.19568 19.09856,86.78748 18.55646,86.07378 C18.24836,85.66818 17.76996,85.43158 17.26166,85.43158 C16.75466,85.43158 16.27626,85.66818 15.96816,86.07378 C15.42606,86.78748 14.60576,87.19568 13.71526,87.19568 C12.16176,87.19568 10.89686,85.93078 10.89686,84.37598 L10.89686,67.53708 C10.89686,66.73368 10.30926,66.05118 9.51496,65.93158 C8.12916,65.72098 7.33486,64.85258 7.33486,63.54478 L7.32056,56.91478 C6.52496,57.05908 4.92726,56.93038 4.06926,56.54948 L4.08486,63.54738 C4.08486,66.01218 5.44336,67.95178 7.64686,68.78638" id="Fill-7" fill="#FFFFFF"></path><g id="Group-11" transform="translate(0.000000, 39.796640)"><mask id="mask-2" fill="white"><use xlink:href="#path-1"></use></mask><g id="Clip-10"></g><path d="M5.36939,5.36822 C6.27549,4.64412 7.39999,3.75102 8.14749,3.74055414 C8.70519,3.73282 9.13289,4.41922 9.56709,5.05622 C10.72539,6.95162 10.51999,9.01082 9.05749,10.18212 C8.40359,10.70472 7.57939,10.99722 6.73569,10.9933585 C5.33429,10.98682 4.35929,10.08462 3.73659,9.09532 C2.83569,7.59772 3.33359,6.99452 5.36939,5.36822 M0.93249,10.73592 C2.30139,13.04342 3.89129,14.13542 6.73569,14.24332 C8.31389,14.30312 9.86089,13.70252 11.08809,12.71842 C13.84409,10.51362 14.36669,6.66302 12.34519,3.36882 C11.16869,1.45002 10.06369,0.50492 8.18649,0.491805322 C6.26119,0.47762 4.65049,1.80362 3.34139,2.82802 C1.31209,4.41922 -1.47771,6.67602 0.93249,10.73592" id="Fill-9" fill="#FFFFFF" mask="url(#mask-2)"></path></g><path d="M17.28649,36.99163 C13.99619,36.99163 11.31949,34.31493 11.31949,31.02593 C11.31949,27.73563 13.99619,25.05763 17.28649,25.05763 C20.57679,25.05763 23.25479,27.73563 23.25479,31.02593 C23.25479,34.31493 20.57679,36.99163 17.28649,36.99163 M17.28649,21.80763 C12.20479,21.80763 8.06949,25.94293 8.06949,31.02593 C8.06949,36.10763 12.20479,40.24163 17.28649,40.24163 C22.36949,40.24163 26.50479,36.10763 26.50479,31.02593 C26.50479,25.94293 22.36949,21.80763 17.28649,21.80763" id="Fill-12" fill="#FFFFFF"></path><path d="M44.18154,36.03119 C41.90914,44.11459 40.11124,54.27669 39.98384,55.53639 C39.76414,57.68919 41.34104,59.50009 45.00834,61.50599 C44.65864,63.35849 44.34144,65.27079 44.10094,67.12979 C43.84614,69.09019 45.01484,70.60079 46.30834,71.08309 C46.63464,71.20269 46.99214,71.30149 47.39514,71.37949 L47.38864,83.51499 C47.38864,87.56189 50.06924,90.49599 53.76384,90.49599 C55.26014,90.49599 56.64334,90.02149 57.75354,89.15569 C58.83124,90.02279 60.18324,90.49599 61.65744,90.49599 C62.56744,90.49599 63.42804,90.31399 64.21324,89.98119 C63.56714,89.10629 63.08744,88.10529 62.81704,87.02109 C62.45694,87.15499 62.07604,87.24599 61.65744,87.24599 C60.57714,87.24599 59.71004,86.78189 59.15234,85.90049 C58.85854,85.43639 58.35024,85.15169 57.80164,85.14389 L57.77954,85.14389 C57.23874,85.14389 56.73304,85.41299 56.43144,85.86279 C55.83084,86.75719 54.88314,87.24599 53.76384,87.24599 C51.86454,87.24599 50.63864,85.78219 50.63864,83.51629 L50.64644,69.95209 C50.64644,69.10189 49.99124,68.39469 49.14234,68.33099 C48.37924,68.27379 47.81894,68.17629 47.46794,68.05019 C47.42764,68.02289 47.29764,67.85909 47.32234,67.54839 C47.64474,63.47029 49.68314,55.09179 50.90124,50.42739 C51.44334,48.64249 50.45274,47.77669 49.31264,47.86639 C48.42214,47.93399 47.96194,48.69579 47.73444,49.65129 C47.39904,50.89539 46.53194,54.18569 45.68174,58.16109 C44.15814,57.33559 43.30274,56.41779 43.22214,55.86139 C43.44444,54.46259 45.03304,44.66969 47.29894,36.94509 C49.02274,31.05999 50.26814,30.88839 53.91854,30.51139 L63.85184,30.52049 C65.29744,30.55559 66.48824,30.69469 67.42164,31.17699 C68.37844,30.46719 69.44834,29.90169 70.60534,29.52599 C70.07234,28.99169 69.48344,28.57959 68.85684,28.26759 C66.83924,27.26399 64.47454,27.25749 62.62204,27.25749 L53.83404,27.26139 C48.25314,27.26139 45.91184,29.87439 44.18154,36.03119" id="Fill-14" fill="#FFFFFF"></path><g id="Group-18" transform="translate(62.400000, 47.596640)"><mask id="mask-4" fill="white"><use xlink:href="#path-3"></use></mask><g id="Clip-17"></g><path d="M8.35536,4.14765 L14.69676,4.13985 C18.36926,4.41025 19.93576,6.27445 19.93576,10.37075 L19.91496,19.63065 C19.91496,20.11425 19.75246,21.26475 18.24056,21.52085 C17.46056,21.65345 16.88856,22.32815 16.88726,23.12115 L16.86386,37.38475 C16.86386,38.63405 15.84596,39.65065 14.59406,39.65065 C13.91806,39.65065 13.28106,39.35165 12.84686,38.83035 C12.53876,38.46115 12.08116,38.24535 11.60016,38.24535 L11.59886,38.24535 C11.11786,38.24535 10.66026,38.45985 10.35086,38.83035 C9.91536,39.35035 9.27836,39.65065 8.60106,39.65065 C7.35046,39.65065 6.33126,38.63405 6.33126,37.38215 L6.33126,23.11595 C6.33126,22.33075 5.77226,21.65865 5.00006,21.51565 C3.93536,21.32065 3.32306,20.63295 3.32306,19.62415 L3.30096,10.37725 C3.30096,6.27705 4.84926,4.41285 8.35536,4.14765 M8.60106,42.90065 C9.68006,42.90065 10.71486,42.58865 11.59886,42.01795 C12.48156,42.58865 13.51766,42.90065 14.59406,42.90065 C17.63736,42.90065 20.11386,40.42675 20.11386,37.38735 L20.13596,24.33015 C22.21726,23.43055 23.16496,21.44415 23.16496,19.63455 L23.18576,10.37465 C23.18576,3.04395 18.69946,1.17585 14.81506,0.89375 L8.23316,0.90155 C4.50086,1.17975 0.05096,3.04785 0.05096,10.37985 L0.07306,19.62935 C0.07306,21.72495 1.23786,23.47345 3.08126,24.30155 L3.08126,37.38215 C3.08126,40.42545 5.55906,42.90065 8.60106,42.90065" id="Fill-16" fill="#FFFFFF" mask="url(#mask-4)"></path></g><path d="M58.67186,8.12058 C62.60696,8.12058 65.80886,11.32248 65.80886,15.25888 C65.80886,19.19528 62.60696,22.39718 58.67186,22.39718 C54.73546,22.39718 51.53356,19.19528 51.53356,15.25888 C51.53356,11.32248 54.73546,8.12058 58.67186,8.12058 M48.28356,15.25888 C48.28356,20.98668 52.94406,25.64718 58.67186,25.64718 C64.39966,25.64718 69.05886,20.98668 69.05886,15.25888 C69.05886,9.53108 64.39966,4.87058 58.67186,4.87058 C52.94406,4.87058 48.28356,9.53108 48.28356,15.25888" id="Fill-19" fill="#FFFFFF"></path><path d="M74.0155,44.0102 C71.2998,44.0102 69.0898,41.8002 69.0898,39.0832 C69.0898,36.3649 71.2998,34.1536 74.0155,34.1536 C76.7364,34.1536 78.949,36.3649 78.949,39.0832 C78.949,41.8002 76.7364,44.0102 74.0155,44.0102 M74.0155,30.9036 C69.5071,30.9036 65.8398,34.5735 65.8398,39.0832 C65.8398,43.5916 69.5071,47.2602 74.0155,47.2602 C78.5278,47.2602 82.199,43.5916 82.199,39.0832 C82.199,34.5735 78.5278,30.9036 74.0155,30.9036" id="Fill-21" fill="#FFFFFF"></path></g></g></g></svg> 