<?xml version="1.0" encoding="UTF-8"?> <svg xmlns="http://www.w3.org/2000/svg" xmlns:xlink="http://www.w3.org/1999/xlink" width="95px" height="95px" viewBox="0 0 95 95"><!-- Generator: Sketch 57.1 (83088) - https://sketch.com --><title>Group 23</title><desc>Created with Sketch.</desc><defs><path d="M0.0451713852,25.7649024 C1.40208746,25.9611052 2.70949444,26.5588817 3.74735187,27.5949055 L3.74735187,27.5949055 L10.7464717,34.5940253 C13.3117765,37.1611638 13.3117765,41.360269 10.7464717,43.9274075 L10.7464717,43.9274075 L3.74735187,50.9246936 C6.34566279,55.4281881 9.75995703,59.9096785 13.9242224,64.0757776 L13.9242224,64.0757776 C18.0903215,68.240043 22.5718119,71.6525035 27.0753064,74.2526481 L27.0753064,74.2526481 L34.0725925,67.2535283 C36.639731,64.6882235 40.8388362,64.6882235 43.4059747,67.2535283 L43.4059747,67.2535283 L50.4050945,74.2526481 C51.4411183,75.2905056 52.0388948,76.5979125 52.2350976,77.9548286 L52.2350976,77.9548286 C67.307868,72.1072538 77.9981663,57.4782315 77.9981663,40.3389146 L77.9981663,40.3389146 C77.9981663,18.0616532 59.9383468,0 37.6592518,0 L37.6592518,0 C20.5217685,0 5.89274621,10.692132 0.0451713852,25.7649024 L0.0451713852,25.7649024 Z" id="path-1"></path></defs><g id="About-Us" stroke="none" stroke-width="1" fill="none" fill-rule="evenodd"><g id="About-Us-Hover" transform="translate(-325.000000, -2265.000000)"><g id="Group-23" transform="translate(327.000000, 2267.000000)"><path d="M60.3968953,86.5804463 C51.3805947,95.5986356 31.5403334,90.3754558 16.0817228,74.9185837 C0.623112282,59.4598782 -4.5982021,39.619495 4.41993183,30.6031391 L8.09758515,26.9236298 C10.6624092,24.3587901 14.8607273,24.3587901 17.4273846,26.9236298 L24.4251926,33.9214807 C26.9900166,36.4881538 26.9900166,40.6864977 24.4251926,43.2513375 L17.4273846,50.2491884 C20.0270419,54.7518664 23.4406961,59.2325443 27.6023477,63.3960547 C31.7676659,67.5595652 36.2483163,70.9714071 40.7509666,73.5729136 L47.7487746,66.5750627 C50.3135986,64.0083896 54.5119167,64.0083896 57.0767407,66.5750627 L64.076382,73.5729136 C66.641206,76.1395867 66.641206,80.3379306 64.076382,82.9027704 L60.3968953,86.5804463 Z" id="Stroke-1" stroke="#FFFFFF" stroke-width="3" stroke-linecap="round" stroke-linejoin="round"></path><g id="Group-5" transform="translate(13.000000, 0.000000)"><mask id="mask-2" fill="white"><use xlink:href="#path-1"></use></mask><g id="Clip-4"></g><path d="M77.9990832,40.3398314 C77.9990832,62.6189264 59.93743,80.6805796 37.6583349,80.6805796 C15.3810736,80.6805796 -2.6824133,62.6189264 -2.6824133,40.3398314 C-2.6824133,18.06257 15.3810736,-0.000916835187 37.6583349,-0.000916835187 C59.93743,-0.000916835187 77.9990832,18.06257 77.9990832,40.3398314 Z" id="Stroke-3" stroke="#FFFFFF" stroke-width="3" stroke-linecap="round" stroke-linejoin="round" mask="url(#mask-2)"></path></g><g id="Group-22" transform="translate(13.000000, 0.000000)" stroke="#FFFFFF" stroke-linecap="round" stroke-linejoin="round" stroke-width="3"><path d="M77.8642033,40.4057053 C77.8642033,18.1665526 59.8334474,0.133966156 37.5924642,0.133966156 C20.4842972,0.133966156 5.88030015,10.8078076 0.0427285079,25.8547937 C1.3991539,26.0506608 2.70249382,26.6474148 3.73857584,27.6834968 L10.7257226,34.6706435 C13.2884696,37.2333906 13.2884696,41.4253125 10.7257226,43.986229 L3.73857584,50.9715452 C6.33427248,55.4691663 9.74272604,59.9429904 13.8998678,64.1001322 C18.0570096,68.257274 22.5308337,71.663897 27.0284548,74.2614242 L34.013771,67.2742774 C36.5746875,64.7115304 40.7666094,64.7115304 43.3293565,67.2742774 L50.3165032,74.2614242 C51.3525852,75.2975062 51.9475086,76.6008461 52.1452063,77.9572715 C67.1921924,72.1196999 77.8642033,57.5157028 77.8642033,40.4057053 Z" id="Stroke-6"></path><path d="M36.2623985,47.8190002 L24.686104,47.8190002 C24.6366796,47.8190002 24.5945773,47.7787285 24.5945773,47.7274736 C24.5945773,45.6882591 27.1554938,43.8485729 29.8701751,41.8990546 C32.9601159,39.6767868 36.1562275,37.3776366 36.1562275,34.5146821 C36.1562275,31.6169474 34.0566055,29.5136643 31.1607013,29.5136643 C25.694728,29.5136643 24.7831223,34.6373278 24.7776307,34.6904133 C24.768478,34.7361766 24.7300368,34.7654652 24.686104,34.7654652 L24.6714597,34.7654652 C24.6238659,34.758143 24.5872552,34.7123797 24.5945773,34.6611248 C24.60373,34.6062087 25.5391327,29.3324415 31.1607013,29.3324415 C34.113352,29.3324415 36.3392809,31.5620314 36.3392809,34.5146821 C36.3392809,37.4746549 33.1028975,39.797602 29.9763461,42.0454973 C27.3458693,43.9364385 24.8600047,45.7248698 24.7794612,47.6377774 L36.2623985,47.6377774 C36.3099923,47.6377774 36.3539251,47.6798797 36.3539251,47.7274736 C36.3539251,47.7787285 36.3099923,47.8190002 36.2623985,47.8190002 Z" id="Stroke-8"></path><path d="M40.8209763,42.9424587 L50.7552821,42.9424587 L50.7552821,29.7003787 L40.8209763,42.9424587 Z M50.8468088,47.8190002 C50.7973844,47.8190002 50.7552821,47.7787285 50.7552821,47.7274736 L50.7552821,43.1273426 L40.6379229,43.1273426 C40.6031428,43.1273426 40.5720237,43.1053762 40.5555489,43.0742572 C40.5409046,43.0449686 40.5427352,43.0065274 40.562871,42.9809 L50.7735875,29.3672216 C50.7973844,29.3361025 50.8376561,29.3287804 50.8760973,29.3361025 C50.9145385,29.3489163 50.9365049,29.3836964 50.9365049,29.4221376 L50.9365049,42.9424587 L54.1619051,42.9424587 C54.209499,42.9424587 54.2534318,42.9827305 54.2534318,43.0339854 C54.2534318,43.0852404 54.209499,43.1273426 54.1619051,43.1273426 L50.9365049,43.1273426 L50.9365049,47.7274736 C50.9365049,47.7787285 50.8980637,47.8190002 50.8468088,47.8190002 Z" id="Stroke-10"></path><path d="M37.5924642,5.71672752 C37.5448703,5.71672752 37.502768,5.67645578 37.502768,5.62520084 L37.502768,0.133600049 C37.502768,0.0860061759 37.5448703,0.0439039032 37.5924642,0.0439039032 C37.6418886,0.0439039032 37.6839909,0.0860061759 37.6839909,0.133600049 L37.6839909,5.62520084 C37.6839909,5.67645578 37.6418886,5.71672752 37.5924642,5.71672752 Z" id="Stroke-12"></path><path d="M77.8642033,40.4968659 L72.3726025,40.4968659 C72.3250086,40.4968659 72.2829064,40.4565941 72.2829064,40.4053392 C72.2829064,40.3577453 72.3250086,40.315643 72.3726025,40.315643 L77.8642033,40.315643 C77.9136277,40.315643 77.95573,40.3577453 77.95573,40.4053392 C77.95573,40.4565941 77.9136277,40.4968659 77.8642033,40.4968659 Z" id="Stroke-14"></path><path d="M62.1867814,15.9043792 C62.1629844,15.9043792 62.141018,15.8970571 62.1208822,15.8787517 C62.086102,15.8439716 62.086102,15.7853945 62.1208822,15.7506144 L66.007105,11.8643916 C66.0400546,11.8296114 66.1004622,11.8296114 66.1334118,11.8643916 C66.1700225,11.8991717 66.1700225,11.9595793 66.1334118,11.9925289 L62.2490195,15.8787517 C62.2325447,15.8970571 62.2105783,15.9043792 62.1867814,15.9043792 Z" id="Stroke-16"></path><path d="M66.0695262,68.9739279 C66.0457292,68.9739279 66.0237628,68.9666057 66.007288,68.9483004 L62.1210652,65.0620776 C62.0862851,65.029128 62.0862851,64.9687204 62.1210652,64.9339402 C62.1558454,64.8991601 62.216253,64.8991601 62.2492026,64.9339402 L66.1335949,68.820163 C66.1702055,68.8549432 66.1702055,68.9135203 66.1335949,68.9483004 C66.1152895,68.9666057 66.0933231,68.9739279 66.0695262,68.9739279 Z" id="Stroke-18"></path><path d="M12.9999775,15.9043792 C12.9761806,15.9043792 12.9542142,15.8970571 12.9377394,15.8787517 L9.05151655,11.9925289 C9.01673641,11.9595793 9.01673641,11.8991717 9.05151655,11.8643916 C9.08629669,11.8296114 9.1467043,11.8296114 9.1796539,11.8643916 L13.0658767,15.7506144 C13.1006569,15.7853945 13.1006569,15.8439716 13.0658767,15.8787517 C13.0457409,15.8970571 13.0237745,15.9043792 12.9999775,15.9043792 Z" id="Stroke-20"></path></g></g></g></g></svg> 