<?xml version="1.0" encoding="UTF-8"?> <svg xmlns="http://www.w3.org/2000/svg" xmlns:xlink="http://www.w3.org/1999/xlink" width="108px" height="61px" viewBox="0 0 108 61"><!-- Generator: Sketch 57.1 (83088) - https://sketch.com --><title>Group 21</title><desc>Created with Sketch.</desc><g id="About-Us" stroke="none" stroke-width="1" fill="none" fill-rule="evenodd"><g id="About-Us-Hover" transform="translate(-976.000000, -1686.000000)" stroke="#FFFFFF" stroke-width="3"><g id="Group-21" transform="translate(978.000000, 1688.000000)"><path d="M44,10 L26,10" id="Stroke-1"></path><g id="Group-6" stroke-linecap="round" stroke-linejoin="round"><polygon id="Stroke-2" points="0 31.3826455 9.87133333 -0.000172727273 26.8736 5.66528182 17.0022667 37.0481"></polygon><polygon id="Stroke-4" points="77.1265733 5.66597273 94.12884 0.000518181818 104.000173 31.3833364 86.9979067 37.0487909"></polygon></g><path d="M76,38 L85,31" id="Stroke-7" stroke-linejoin="round"></path><g id="Group-20" transform="translate(18.000000, 9.000000)"><path d="M6.95865946,33.282 C5.70460541,31.854 5.85509189,29.6871429 7.29595676,28.4442857 L11.2103351,25.0688571 C12.6529297,23.826 14.8375784,23.9751429 16.0916324,25.4031429 C17.3456865,26.8311429 17.1934703,28.998 15.7526054,30.2408571 L11.838227,33.6162857 C10.3973622,34.8608571 8.21271351,34.71 6.95865946,33.282 Z" id="Stroke-8"></path><path d="M12.8056649,37.3292571 C11.5516108,35.9012571 11.7020973,33.7344 13.1429622,32.4915429 L17.0573405,29.1144 C18.4999351,27.8715429 20.6845838,28.0224 21.9386378,29.4504 C23.1926919,30.8784 23.0404757,33.0435429 21.5996108,34.2881143 L17.6869622,37.6635429 C16.2460973,38.9064 14.0597189,38.7572571 12.8056649,37.3292571 Z" id="Stroke-10"></path><path d="M18.6528432,41.3754857 C17.3987892,39.9474857 17.5492757,37.7806286 18.9901405,36.5377714 L22.9045189,33.1623429 C24.3471135,31.9194857 26.5317622,32.0686286 27.7858162,33.4966286 C29.0398703,34.9246286 28.8876541,37.0914857 27.4467892,38.3343429 L23.5341405,41.7114857 C22.0932757,42.9543429 19.9068973,42.8034857 18.6528432,41.3754857 Z" id="Stroke-12"></path><path d="M24.5000216,45.4227429 C23.2459676,43.9947429 23.3964541,41.8278857 24.8390486,40.5850286 L28.7516973,37.2078857 C30.1942919,35.9650286 32.3789405,36.1158857 33.6329946,37.5438857 C34.8870486,38.9718857 34.7365622,41.1370286 33.2939676,42.3816 L29.3813189,45.7570286 C27.9404541,46.9998857 25.7540757,46.8507429 24.5000216,45.4227429 Z" id="Stroke-14"></path><path d="M30.6352,44.676 L33.8974703,47.0554286 C34.776173,47.6862857 35.8537946,48.0034286 36.9366054,48.0000275 C37.976173,47.9965714 39.0226595,47.6948571 39.9013622,47.22 L59.4230919,37.4005714 C61.6492541,36.2674286 62.0263351,32.9742857 59.9990919,30.9634286 L57.8819027,28.8908571 L40.6364973,12 L32.5846054,12 C32.5846054,12 28.9400649,18.54 28.1893622,19.7142857 C26.7830919,21.9102857 24.1884973,22.9817143 21.4866595,22.2857143 C19.3331459,21.7302857 18.1500108,19.212 18.9993081,16.8754286 L24.0812541,3.42857143 C24.0812541,3.42857143 25.6656865,0 30.2425514,0 L59.5683892,0" id="Stroke-16" stroke-linejoin="round"></path><path d="M0.453491892,22.6640571 L7.79273514,28.0177714" id="Stroke-18" stroke-linejoin="round"></path></g></g></g></g></svg> 