<?xml version="1.0" encoding="UTF-8"?> <svg xmlns="http://www.w3.org/2000/svg" xmlns:xlink="http://www.w3.org/1999/xlink" width="87px" height="92px" viewBox="0 0 87 92"><!-- Generator: Sketch 57.1 (83088) - https://sketch.com --><title>Group 13</title><desc>Created with Sketch.</desc><defs><polygon id="path-1" points="0.0455921053 0.225333333 35.075656 0.225333333 35.075656 35.6158667 0.0455921053 35.6158667"></polygon><polygon id="path-3" points="0 0.634266667 86.9947273 0.634266667 86.9947273 47.9996 0 47.9996"></polygon></defs><g id="About-Us" stroke="none" stroke-width="1" fill="none" fill-rule="evenodd"><g id="About-Us-Hover" transform="translate(-557.000000, -1659.000000)"><g id="Group-13" transform="translate(557.000000, 1659.000000)"><path d="M22,32.6063106 C21.2433862,31.7888282 20.5357143,30.9245178 19.9060847,30 C15.6587302,34.0325566 14.3452381,38.7474635 14,42 L17.3439153,41.8862749 C17.6984127,39.2759505 18.8240741,35.7197012 22,32.6063106" id="Fill-1" fill="#FFFFFF"></path><path d="M58.6297147,28.6817819 C64.1362954,31.1842222 67.4646233,34.9964504 68.6040986,40 L72,39.8841956 C70.7836764,33.5056349 66.7544387,28.7217144 60.0540588,25.6775224 C59.5664694,25.4326027 58.983482,25.2116426 58.3580956,25 C57.9738539,26.0542195 57.5326385,27.0818174 57,28.0535096 C57.6174366,28.2478481 58.1778995,28.4541663 58.6297147,28.6817819" id="Fill-3" fill="#FFFFFF"></path><g id="Group-7" transform="translate(20.000000, 0.000000)"><mask id="mask-2" fill="white"><use xlink:href="#path-1"></use></mask><g id="Clip-6"></g><path d="M17.5573252,3.55853333 C25.3980846,3.55853333 31.7767838,10.0012 31.7767838,17.9212 C31.7767838,25.8398667 25.3980846,32.2825333 17.5573252,32.2825333 C9.72184398,32.2825333 3.34446429,25.8398667 3.34446429,17.9212 C3.34446429,10.0012 9.72184398,3.55853333 17.5573252,3.55853333 M17.5573252,35.6158667 C27.2164229,35.6158667 35.075656,27.6785333 35.075656,17.9212 C35.075656,8.16386667 27.2164229,0.2252 17.5573252,0.2252 C7.90218609,0.2252 0.0455921053,8.16386667 0.0455921053,17.9212 C0.0455921053,27.6785333 7.90218609,35.6158667 17.5573252,35.6158667" id="Fill-5" fill="#FFFFFF" mask="url(#mask-2)"></path></g><path d="M32.9934912,62.0541011 C33.9663126,60.3490958 35.7298766,59.3300886 37.7093341,59.3300886 C39.4781003,59.3300886 41.0947006,60.1732671 42.1442553,61.6411701 C42.4498877,62.0700856 42.9362984,62.3231723 43.4539227,62.3245043 L43.4565238,62.3245043 C43.9728475,62.3245043 44.4592582,62.0727496 44.7661911,61.6464983 C45.8235492,60.1745991 47.4440512,59.3300886 49.2128174,59.3300886 C51.2625054,59.3300886 53.1379178,60.4902915 54.1068376,62.3591373 C55.070555,64.2133306 54.9509032,66.295302 53.7816967,68.0682412 C51.5798429,71.4009939 45.7077991,76.3681541 43.4071024,78.2529843 C41.0829956,76.51601 35.2265585,71.9031713 33.0897329,68.02162 C31.9972596,66.0382192 31.9621444,63.8630053 32.9934912,62.0541011 M42.538326,81.7082842 C42.815346,81.9027614 43.1365852,82 43.4565238,82 C43.8063754,82 44.1575275,81.8841129 44.4488537,81.6536708 C44.814312,81.3646191 53.4305446,74.5406015 56.4764641,69.9317588 C58.3128596,67.1451406 58.5001408,63.7298017 56.9784816,60.7966597 C55.4438167,57.8382089 52.4681277,56 49.2128174,56 C47.0538822,56 45.0341072,56.788565 43.4539227,58.2111789 C41.8750387,56.8045494 39.8331541,56 37.7093341,56 C34.5606701,56 31.7475514,57.6357395 30.1868753,60.3744044 C28.579379,63.1916594 28.6066908,66.6616118 30.2571058,69.6586915 C33.3069269,75.1959629 42.1624632,81.4458733 42.538326,81.7082842" id="Fill-8" fill="#FFFFFF"></path><g id="Group-12" transform="translate(0.000000, 44.000000)"><mask id="mask-4" fill="white"><use xlink:href="#path-3"></use></mask><g id="Clip-11"></g><path d="M5.14025,30.3489333 C3.79438636,28.9689333 3.22756818,25.9929333 3.30270455,20.7036 C3.38179545,15.1662667 6.02870455,13.6582667 7.30997727,13.2542667 C7.23747727,13.7289333 7.36402273,14.1249333 7.51825,14.4129333 C8.15361364,15.5796 9.88570455,16.1716 11.2249773,16.2289333 C13.6187955,16.3302667 16.8022045,17.2182667 16.8180735,23.7196 C16.8246136,26.3636 16.18925,28.3502667 14.9290682,29.6289333 C13.6873409,30.8862667 11.7641136,31.5249333 9.21211364,31.5249333 C7.45497727,31.5249333 6.09065909,31.3249333 5.14025,30.3489333 L5.14025,30.3489333 Z M12.7777955,6.2636 C12.7777955,6.14226667 12.8700682,6.0436 12.9900227,6.04093333 L73.9902045,3.9676 C74.0126136,3.9676 74.0508409,3.9676 74.1154318,4.0316 C74.1576136,4.07293333 74.1826591,4.1316 74.1826591,4.19293333 L74.1826591,13.0569333 C70.9715682,13.6196 66.9023409,15.8742667 66.8825682,23.7102667 C66.8720227,27.2689333 67.8316591,30.0516 69.7337955,31.9836 C70.9030227,33.1676 72.3925682,33.9889333 74.1826591,34.4422667 L74.1826591,44.4436 C74.1826591,44.5662667 74.0837955,44.6662667 73.9625227,44.6662667 L12.99925,44.6662667 C12.8753409,44.6662667 12.7777955,44.5689333 12.7777955,44.4436 L12.7777955,34.4516 C14.5837045,34.0009333 16.0851136,33.1769333 17.2609318,31.9836 C19.1630682,30.0542667 20.1227045,27.2716 20.1134773,23.7116 C20.0937045,15.8449333 15.9915227,13.6022667 12.7777955,13.0502667 L12.7777955,6.2636 Z M79.4936136,14.3822667 C79.6372955,14.1076 79.7559318,13.7236 79.6860682,13.2582667 C80.9910682,13.6729333 83.6129318,15.1916 83.6920227,20.7036 C83.7684773,25.9916 83.2029773,28.9676 81.8544773,30.3489333 C80.9053864,31.3249333 79.53975,31.5249333 77.7839318,31.5249333 C75.2306136,31.5249333 73.3073864,30.8862667 72.0669773,29.6289333 C70.8054773,28.3489333 70.1701136,26.3622667 70.1779498,23.7196 C70.1938409,17.2182667 73.37725,16.3302667 75.7710682,16.2289333 C77.1116591,16.1716 78.8424318,15.5796 79.4936136,14.3822667 L79.4936136,14.3822667 Z M9.48234091,34.8489333 L9.48234091,44.4436 C9.48234091,46.4049333 11.0602045,47.9996 12.99925,47.9996 L73.9625227,47.9996 C75.9015682,47.9996 77.4781136,46.4049333 77.4781136,44.4436 L77.4781136,34.8476 C80.7762045,34.8476 82.42525,34.3716 84.2034773,32.6902667 C86.3587045,30.6516 87.07975,27.0769333 86.9874773,20.6542667 C86.8952045,14.3049333 83.9859773,11.6569333 81.7622045,10.5569333 C80.3912955,9.8796 79.2800682,9.78626667 79.2523864,9.78493333 L77.4781136,9.67026667 L77.4781136,4.19293333 C77.4781136,3.23426667 77.0879318,2.30226667 76.4051136,1.63426667 C75.7460227,0.988933333 74.8865682,0.634266667 73.9902045,0.634266667 L12.8792955,2.71026667 C10.9745227,2.77293333 9.48234091,4.33426667 9.48234091,6.2636 L9.48234091,9.67293333 L7.74497727,9.78493333 C7.71597727,9.78626667 6.58497727,9.88226667 5.19825,10.5769333 C2.97711364,11.6876 0.0982045455,14.3382667 0.00725,20.6542667 C-0.0837045455,27.0796 0.61625,30.6796 2.79256818,32.6902667 C5.24175,34.9529333 8.61497727,34.9676 9.48234091,34.8489333 L9.48234091,34.8489333 Z" id="Fill-10" fill="#FFFFFF" mask="url(#mask-4)"></path></g></g></g></g></svg> 