<?xml version="1.0" encoding="UTF-8"?> <svg xmlns="http://www.w3.org/2000/svg" xmlns:xlink="http://www.w3.org/1999/xlink" width="69px" height="86px" viewBox="0 0 69 86"><!-- Generator: Sketch 57.1 (83088) - https://sketch.com --><title>Group 12</title><desc>Created with Sketch.</desc><g id="About-Us" stroke="none" stroke-width="1" fill="none" fill-rule="evenodd"><g id="About-Us-Hover" transform="translate(-748.000000, -2267.000000)" fill="#FFFFFF"><g id="Group-12" transform="translate(748.000000, 2267.000000)"><polygon id="Fill-1" points="10.4292 18.0012 10.4292 26.4252 2.0012 26.4252 2.0012 30.4252 14.4332 30.4252 14.4332 18.0012"></polygon><path d="M9.7848,15.9996 L0.0008,25.7716 L0.0008,85.9756 L52.0248,85.9756 L52.0248,15.9996 L9.7848,15.9996 Z M4.0008,27.4276 L11.4408,19.9996 L48.0248,19.9996 L48.0248,81.9756 L4.0008,81.9756 L4.0008,27.4276 Z" id="Fill-2"></path><polygon id="Fill-3" points="12.044 65.9804 32.04 65.9804 32.04 61.9764 12.044 61.9764"></polygon><polygon id="Fill-4" points="12.044 73.9764 32.04 73.9764 32.04 69.9764 12.044 69.9764"></polygon><polygon id="Fill-5" points="12.044 57.9804 32.04 57.9804 32.04 53.9804 12.044 53.9804"></polygon><polygon id="Fill-6" points="36.024 65.9804 40.024 65.9804 40.024 53.9764 36.024 53.9764"></polygon><polygon id="Fill-7" points="36.024 73.9764 40.024 73.9764 40.024 69.9764 36.024 69.9764"></polygon><polygon id="Fill-8" points="16.044 50.0004 20.044 50.0004 20.044 37.9964 16.044 37.9964"></polygon><polygon id="Fill-9" points="12.044 45.9964 24.044 45.9964 24.044 41.9964 12.044 41.9964"></polygon><polygon id="Fill-10" points="60.0244 79.9764 56.0244 79.9764 56.0244 12.0004 14.6124 12.0004 14.6124 8.0004 60.0244 8.0004"></polygon><polygon id="Fill-11" points="22.6152 0.0012 22.6152 4.0012 64.0272 4.0012 64.0272 71.9772 68.0232 71.9772 68.0232 0.0012"></polygon></g></g></g></svg> 