<?xml version="1.0" encoding="UTF-8"?> <svg xmlns="http://www.w3.org/2000/svg" xmlns:xlink="http://www.w3.org/1999/xlink" width="82px" height="100px" viewBox="0 0 82 100"><!-- Generator: Sketch 57.1 (83088) - https://sketch.com --><title>Group 10</title><desc>Created with Sketch.</desc><defs><polygon id="path-1" points="0 0.557083333 81.2478621 0.557083333 81.2478621 99.9994389 0 99.9994389"></polygon></defs><g id="Blog-/-Firm-News" stroke="none" stroke-width="1" fill="none" fill-rule="evenodd"><g id="Blog" transform="translate(-678.000000, -290.000000)"><g id="Group-10" transform="translate(678.000000, 289.000000)"><path d="M11.3165408,17.3686277 L11.3165408,55.977782 C11.3165408,60.4341955 12.8262066,64.6745235 15.5723339,67.9158066 C21.2476636,74.6144584 29.7339009,81.2682093 41.4985917,88.2390727 C53.2689156,81.2625967 61.755153,74.6088458 67.4248496,67.9158066 C70.1709768,64.6745235 71.6834592,60.4341955 71.6834592,55.977782 L71.6834592,17.3686277 L57.5162591,13.4678627 C47.0359109,10.5857867 35.9612726,10.5857867 25.4837409,13.4678627 L11.3165408,17.3686277 Z M41.4985917,91.5 L40.7831904,91.0790541 C28.3678786,83.7882718 19.416912,76.8061832 13.4204967,69.7258738 C10.2462553,65.9766493 8.5,61.0964837 8.5,55.977782 L8.5,15.2302227 L24.734541,10.762584 C35.7021508,7.74580533 47.2950326,7.74580533 58.2626424,10.762584 L74.5,15.2302227 L74.5,55.977782 C74.5,61.0964837 72.7509282,65.9794556 69.5766867,69.7258738 C63.583088,76.8005706 54.6321214,83.7854655 42.2139931,91.0790541 L41.4985917,91.5 Z" id="Fill-1" fill="#FFFFFF"></path><g id="Group-5" transform="translate(0.500000, 0.500000)"><mask id="mask-2" fill="white"><use xlink:href="#path-1"></use></mask><g id="Clip-4"></g><path d="M2.82758621,11.12505 L2.82758621,53.49455 C2.82758621,61.5998 5.76544828,69.1130778 11.0954483,74.65405 C18.1163448,81.9428833 27.7782069,89.1728 40.623931,96.7421889 C53.4696552,89.1728 63.1343448,81.9428833 70.1552414,74.65405 C75.4852414,69.1130778 78.4202759,61.5998 78.4202759,53.4917444 L78.4202759,11.12505 L56.2435172,5.39610556 C46.0217931,2.68313333 35.226069,2.68313333 25.0156552,5.39610556 L2.82758621,11.12505 Z M40.623931,99.9994389 L39.9057241,99.5786056 C26.4746897,91.7258556 16.3830345,84.2041611 9.05110345,76.5898833 C3.21496552,70.5270778 0,62.3264389 0,53.49455 L0,8.95635556 L24.2946207,2.68313333 C34.9744138,-0.153283333 46.2762759,-0.153283333 56.9645517,2.68593889 L81.2478621,8.95635556 L81.2478621,53.4917444 C81.2478621,62.3236333 78.0357241,70.5270778 72.1967586,76.5898833 C64.8648276,84.2041611 54.7731724,91.7258556 41.3421379,99.5786056 L40.623931,99.9994389 Z" id="Fill-3" fill="#FFFFFF" mask="url(#mask-2)"></path></g><path d="M42,31.2744061 C34.4810127,31.2744061 28.3611063,37.2088608 28.3611063,44.5 C28.3611063,51.7939136 34.4810127,57.7255939 42,57.7255939 C49.5189873,57.7255939 55.6388937,51.7939136 55.6388937,44.5 C55.6388937,37.2088608 49.5189873,31.2744061 42,31.2744061 M42,60.5 C32.901682,60.5 25.5,53.3226114 25.5,44.5 C25.5,35.6773886 32.901682,28.5 42,28.5 C51.098318,28.5 58.5,35.6773886 58.5,44.5 C58.5,53.3226114 51.098318,60.5 42,60.5" id="Fill-6" fill="#FFFFFF"></path><polygon id="Fill-8" fill="#FFFFFF" points="39.6513843 50.5 34.5 45.2493632 36.4434518 43.2684666 39.6513843 46.5382068 46.5565482 39.5 48.5 41.4808966"></polygon></g></g></g></svg> 