<?xml version="1.0" encoding="UTF-8"?> <svg xmlns="http://www.w3.org/2000/svg" id="Layer_1" data-name="Layer 1" viewBox="0 0 500 500"><defs><style>.cls-1{fill:#fff;}</style></defs><title>unti</title><path class="cls-1" d="M143.93,206.14a9.2,9.2,0,0,0,8.77,6.55,8.94,8.94,0,0,0,2.6-.38c26-7.69,59.54-11.93,94.51-11.93s68.48,4.24,94.46,11.93h0a9.15,9.15,0,0,0,5.2-17.55c-27.63-8.18-63-12.68-99.72-12.68s-72,4.5-99.65,12.68A9.16,9.16,0,0,0,143.93,206.14Z"></path><path class="cls-1" d="M25.65,425.79h0c23.33,2.73,35.21-9.36,43.89-18.2,3.72-3.78,7.24-7.36,11.25-9.45a9,9,0,0,0,2.45-.48,16.19,16.19,0,0,1,3.13-.76c7.74-1.1,13.66,4.89,21.16,12.46l.1.11c7.92,8,16.89,17.07,29.74,17.92a54.16,54.16,0,0,0,6.33.38c19.22,0,29.69-11,37.54-19.24,5.69-6,10.19-10.7,16.78-11.63,7.72-1.09,13.66,4.89,21.17,12.48l.09.09c7.93,8,16.93,17.11,30.12,18a11.81,11.81,0,0,0,1.19,0c13.2-.85,22.2-9.94,30.13-18,7.56-7.64,13.53-13.67,21.26-12.57,6.59.93,11.09,5.65,16.78,11.63,8.17,8.58,18.34,19.26,37.32,19.26a53.58,53.58,0,0,0,6.23-.37c13.16-.88,22.13-9.94,30.06-18,7.55-7.63,13.52-13.66,21.26-12.56a16.62,16.62,0,0,1,2.86.66A8.69,8.69,0,0,0,419,398c4.09,2.06,7.7,5.73,11.51,9.6,8.68,8.83,20.57,20.93,43.89,18.2a9.15,9.15,0,1,0-2.12-18.18c-14.43,1.68-20.73-4.72-28.72-12.85a83.23,83.23,0,0,0-11.29-10.05,365.68,365.68,0,0,0,21.08-44.5c8.88-23.25,11.63-41.14,8.19-53.18-2-7.06-6.06-12.2-12-15.29s-16.66-7-32.37-11.82V179a9.16,9.16,0,0,0-6.14-8.64c-.46-.16-4.36-1.51-11-3.55V127.14a9.2,9.2,0,0,0-6.55-8.77A623.65,623.65,0,0,0,299.61,100L276,29.5a9.14,9.14,0,0,0-8.67-6.25H232.12a9.14,9.14,0,0,0-8.67,6.25L199.88,100A624.79,624.79,0,0,0,106,118.37a9.2,9.2,0,0,0-6.55,8.77v39.64c-6.65,2.05-10.52,3.39-11,3.55A9.16,9.16,0,0,0,82.36,179v81C66.64,264.73,56,268.6,50,271.74S40,280,38,287C30.52,313.22,55,362.51,67.43,385a84.33,84.33,0,0,0-11,9.83c-8,8.11-14.26,14.5-28.69,12.82a9.15,9.15,0,1,0-2.13,18.18ZM398.83,254.57c-58.38-16.44-143.44-35.28-147.11-36.09a9.08,9.08,0,0,0-3.95,0c-3.67.81-88.72,19.65-147.11,36.09v-69c21.12-6.68,85-25.06,149.06-25.71,64.15.65,128,19,149.11,25.71Zm-149.08.36a9.16,9.16,0,0,0-9.15,9.15v139c0,.25,0,.5,0,.75a106.89,106.89,0,0,1-8.35-7.87c-8.91-9-20-20.21-36.84-17.82-12.89,1.84-21,10.32-27.45,17.13l-.09.09c-7.92,8.31-14.18,14.87-28.82,13.18h-.15c-6.26-.4-12.11-6.31-18.3-12.57-8.78-8.88-19.68-19.89-36.13-17.91-17.31-30.64-33.48-70-28.92-86,.88-3.07,2.25-3.78,2.84-4.08,27.81-14.46,171.8-46.84,191.32-51.19,19.52,4.35,163.52,36.74,191.31,51.18.59.31,2,1,2.83,4.09C448.46,308,432.3,347.4,415,378c-16.21-1.69-27,9.18-35.65,18-6.19,6.26-12,12.17-18.62,12.6h-.16c-14.3,1.67-20.58-4.91-28.58-13.3-6.48-6.81-14.56-15.29-27.45-17.13a33.58,33.58,0,0,0-4.51-.32c-14.38,0-24.25,10-32.33,18.14a98.64,98.64,0,0,1-8.9,8.31,9.25,9.25,0,0,0,.09-1.19v-139A9.17,9.17,0,0,0,249.75,254.93Zm-132-93.44V134.11c19.16-5.09,75.59-18.69,132-19,56.37.35,112.83,14,132,19v27.38c-33.15-9-81.69-19.34-131.54-19.89h-.81C199.51,142.14,151,152.47,117.77,161.49Zm132-64.72h-.11c-9.48.06-19.51.49-29.87,1.28l18.89-56.51h22.07l18.89,56.51C269.31,97.26,259.28,96.83,249.8,96.77Z"></path><path class="cls-1" d="M472.23,459.1h0c-14.43,1.68-20.74-4.73-28.72-12.85C437,439.67,429,431.48,416.2,429.66c-16.88-2.38-27.95,8.82-36.83,17.82-6.2,6.26-12.05,12.17-18.63,12.6h-.16c-14.3,1.66-20.59-4.92-28.58-13.3-6.48-6.82-14.56-15.3-27.45-17.13-16.84-2.38-27.93,8.82-36.84,17.82-6,6.07-11.68,11.8-17.71,12.51-6-.71-11.71-6.44-17.71-12.51-8.91-9-20-20.2-36.84-17.82-12.89,1.83-21,10.31-27.45,17.13l-.09.08c-7.92,8.32-14.18,14.89-28.82,13.19h-.15c-6.26-.41-12.1-6.31-18.3-12.57-8.9-9-20-20.2-36.84-17.82-12.78,1.82-20.83,10-27.31,16.6-8,8.12-14.28,14.53-28.72,12.84a9.15,9.15,0,0,0-2.12,18.18C49,480,60.86,467.92,69.54,459.08c5.69-5.79,10.19-10.36,16.83-11.3,7.74-1.1,13.64,4.87,21.13,12.43l.13.14c7.92,8,16.9,17.07,29.74,17.92,23.32,2.71,35.2-9.76,43.88-18.86,5.68-6,10.18-10.7,16.77-11.63,7.72-1.1,13.64,4.88,21.14,12.45l.12.12c7.93,8,16.93,17.11,30.11,18a9.45,9.45,0,0,0,1.19,0c13.21-.85,22.2-9.94,30.14-18l.1-.1c7.51-7.58,13.43-13.57,21.16-12.47,6.59.93,11.09,5.65,16.78,11.63,8.17,8.58,18.35,19.26,37.32,19.26a53.84,53.84,0,0,0,6.23-.37c13.16-.87,22.14-9.95,30.12-18,7.52-7.6,13.46-13.59,21.2-12.51,6.64.94,11.14,5.51,16.83,11.3,8.68,8.84,20.58,20.94,43.89,18.2a9.15,9.15,0,1,0-2.12-18.18Z"></path></svg> 