<?xml version="1.0" encoding="UTF-8"?> <svg xmlns="http://www.w3.org/2000/svg" id="Layer_1" data-name="Layer 1" viewBox="0 0 500 500"><defs><style>.cls-1{fill:#fff;}</style></defs><title>Untitled-2</title><path class="cls-1" d="M437.06,282.16H388.43V241.87a15.34,15.34,0,0,0-11.16-14.72c-109.52-30.7-208.52-30.76-318.26,0a15.34,15.34,0,0,0-11.16,14.72v180a15.3,15.3,0,0,0,15.29,15.28H437.06a15.29,15.29,0,0,0,15.28-15.28V297.43A15.29,15.29,0,0,0,437.06,282.16ZM284.15,422.79H222.87V350.36h61.28Zm76.79,0H298.47V350.36h62.47Zm77.07-1a.94.94,0,0,1-.95,1h-61.8v-79.6A7.16,7.16,0,0,0,368.1,336H215.7a7.17,7.17,0,0,0-7.16,7.16v79.6H63.14a1,1,0,0,1-1-1v-180a1,1,0,0,1,.7-.92c107.06-30,203.43-30,310.52,0a1,1,0,0,1,.71.93v47.45a7.15,7.15,0,0,0,7.16,7.16h55.79a1,1,0,0,1,.95.95Z"></path><path class="cls-1" d="M159.76,251.11H112.9a7.17,7.17,0,0,0-7.17,7.16v46.86a7.16,7.16,0,0,0,7.17,7.16h46.86a7.16,7.16,0,0,0,7.16-7.16V258.27A7.17,7.17,0,0,0,159.76,251.11ZM152.59,298H120.06V265.44h32.53Z"></path><path class="cls-1" d="M245.47,251.11H198.61a7.16,7.16,0,0,0-7.16,7.16v46.86a7.15,7.15,0,0,0,7.16,7.16h46.86a7.16,7.16,0,0,0,7.16-7.16V258.27A7.17,7.17,0,0,0,245.47,251.11ZM238.3,298H205.77V265.44H238.3Z"></path><path class="cls-1" d="M159.76,331.55H112.9a7.17,7.17,0,0,0-7.17,7.17v46.85a7.17,7.17,0,0,0,7.17,7.17h46.86a7.17,7.17,0,0,0,7.16-7.17V338.72A7.17,7.17,0,0,0,159.76,331.55Zm-7.17,46.86H120.06V345.88h32.53Z"></path><polygon class="cls-1" points="243.91 134.7 273.68 134.7 273.68 158.09 288 158.09 288 96.97 273.68 96.97 273.68 120.37 243.91 120.37 243.91 96.97 229.58 96.97 229.58 158.09 243.91 158.09 243.91 134.7"></polygon><path class="cls-1" d="M205.66,67a7.16,7.16,0,0,0-7.16,7.16V180.92a7.17,7.17,0,0,0,7.16,7.17H311.92a7.16,7.16,0,0,0,7.16-7.17V74.14A7.15,7.15,0,0,0,311.92,67Zm99.1,106.78H212.83V81.3h91.93Z"></path></svg> 