<?xml version="1.0" encoding="UTF-8"?> <svg xmlns="http://www.w3.org/2000/svg" id="Layer_1" data-name="Layer 1" viewBox="0 0 500 500"><defs><style>.cls-1{fill:#fff;}</style></defs><title>Untitled-2</title><path class="cls-1" d="M412.31,244.41a72.81,72.81,0,0,0-26.27,5l-25.42-48C395,180.57,439,186.84,470.06,217.85a8.85,8.85,0,1,0,12.51-12.51c-36.07-36.08-89.33-43.59-130.24-19.57L323.3,131c-1.94-3.89-9.1-16.58-20-16.58H287.56a8.85,8.85,0,1,0,0,17.69h14.91c1.32,1,3.66,4.14,5.09,7l6.62,12.48c-27.07.28-36.5,2.34-55.41,17.57l-13.38,11.21L102.16,167.12c-2.81-.35-48.25-5.73-80.14,9.47a8.85,8.85,0,0,0,7.62,16c20.43-9.74,49.12-9.39,62.71-8.54v4.5c0,.39.05.72.05,1.1h-27a8.79,8.79,0,0,0-2.69.42l-20.62,6.59a8.86,8.86,0,0,0-6.15,8.43v17.18a8.84,8.84,0,0,0,6.15,8.42l20.62,6.61a9.1,9.1,0,0,0,2.69.42H108.8a61.11,61.11,0,0,0,12.91,11.13,72.73,72.73,0,0,0-24.82-4.42,73.38,73.38,0,1,0,73.37,73.38c0-1-.11-2-.16-3.07l46.55-7.65,1.51,4.08a21.72,21.72,0,0,0,20.29,14.12h42.07a21.45,21.45,0,0,0,20.57-14.95L320.81,253a91.54,91.54,0,0,1,22.91-38.3c.85-.85,1.75-1.62,2.62-2.43l24.07,45.4a73.27,73.27,0,1,0,41.9-13.23Zm-186-48.06-.13.12a25.81,25.81,0,0,1-19.75,6.45l-63-5.82a2.33,2.33,0,0,1-.88-.77c-1.12-1.41-2.06-4.16-2.45-7.94ZM66.78,220l-13.16-4.21v-4.26l13.16-4.21H94.15A71.66,71.66,0,0,0,98,220Zm85.79,97.79a55.83,55.83,0,1,1-2.91-17.64l-12.43,2a43.43,43.43,0,1,0,2.83,17.47l12.5-2.06C152.56,317.67,152.57,317.73,152.57,317.79ZM107.83,307a15.4,15.4,0,1,0,2.82,17.47l11.42-1.87a25.84,25.84,0,1,1-3-17.45Zm59.45-9.77a73.56,73.56,0,0,0-31.69-41.68,64.34,64.34,0,0,0,19.82,3.7h34.26c.1,0,9.64.1,12.74,9.34l8,21.55Zm163.94-95.1A108.85,108.85,0,0,0,304,247.54l-19.69,57.27a3.92,3.92,0,0,1-3.76,2.77H238.45a4,4,0,0,1-3.7-2.56l-15.66-42.29C213.5,246,198,241.58,189.67,241.58H155.54c-1.86,0-45.5-1.27-45.5-53.05v-2.92l12.12,1.12c.25,8.39,2.47,15.53,6.5,20.61a19.15,19.15,0,0,0,13,7.36l63.07,5.84c1.43.14,2.86.2,4.28.2a43,43,0,0,0,28.79-10.94l16.14-13.52L270,182.81c16.13-13,20.51-13.56,53.53-13.59l14.26,26.9C335.53,198,333.33,200,331.22,202.15Zm81.09,171.32a55.61,55.61,0,0,1-33.53-100l5.93,11.18a45.08,45.08,0,1,0,15.62-8.31l-5.94-11.19a55.66,55.66,0,1,1,17.92,108.35Zm-19.05-72.73,5.38,10.16a15.23,15.23,0,0,0-1.7,6.89,15.37,15.37,0,1,0,17.33-15.18l-5.38-10.15a25.78,25.78,0,1,1-15.63,8.28Z"></path><path class="cls-1" d="M259.76,250.09a25.73,25.73,0,1,0,25.72,25.73A25.75,25.75,0,0,0,259.76,250.09Zm0,33.76a8,8,0,1,1,8-8A8,8,0,0,1,259.76,283.85Z"></path><path class="cls-1" d="M291,224.34H250.19a8.85,8.85,0,0,0,0,17.7H291a8.85,8.85,0,0,0,0-17.7Z"></path><path class="cls-1" d="M300.23,200.53H264.17a8.85,8.85,0,1,0,0,17.69h36.06a8.85,8.85,0,1,0,0-17.69Z"></path></svg> 