<?xml version="1.0" encoding="UTF-8"?> <svg xmlns="http://www.w3.org/2000/svg" id="Layer_1" data-name="Layer 1" viewBox="0 0 500 500"><defs><style>.cls-1{fill:#fff;}</style></defs><title>unti</title><path class="cls-1" d="M137,255.92l-121.41,54a9.43,9.43,0,0,0-4.12,13.67l46.08,72.39a62.46,62.46,0,0,1,16.07-9.82L33.24,322.66l104-46.22,55,86.51,8.95-21.05-52.46-82.43A9.43,9.43,0,0,0,137,255.92Z"></path><path class="cls-1" d="M481,477.75a9.36,9.36,0,0,0,2.21-7.49l-21.82-155.8C450.34,245,410.82,206.8,350.07,206.8c-45.36,0-81.26,26.89-101.09,75.7L202.91,390.91l-95.8,10,9.52-25.86A9.42,9.42,0,0,0,99,368.57L86.13,403.41c-19.55,6.15-30.33,21.78-30.33,44,0,29.15,19.33,46.54,51.7,46.54H255.05c9.88,0,25.45-2.71,34.41-19.59l59.8-120.84a9.42,9.42,0,0,0-16.86-8.4L276.71,458.05c-7.87,15.58-18.64,17.11-31.54,17.11H107.5c-21.8,0-32.86-9.33-32.86-27.7,0-13.91,5.27-22.18,16.6-25.95l119.15-12.45a9.39,9.39,0,0,0,7.68-5.68l48.3-113.64c16.81-41.4,46.51-64.1,83.7-64.1,51.11,0,83.16,31.68,92.67,91.62L463,462.16H316.68L307.26,481h166.6A9.41,9.41,0,0,0,481,477.75Z"></path><path class="cls-1" d="M368.54,110.62a103.21,103.21,0,1,0-103.2,103.2A103.33,103.33,0,0,0,368.54,110.62Zm-187.58,0A84.37,84.37,0,1,1,265.34,195,84.47,84.47,0,0,1,181,110.62Z"></path></svg> 