<?xml version="1.0" encoding="UTF-8"?> <svg xmlns="http://www.w3.org/2000/svg" id="Layer_1" data-name="Layer 1" width="98px" height="99px" viewBox="0 0 500 500"><defs><style>.cls-1{fill:#fff;}</style></defs><title>unti</title><path class="cls-1" d="M385.57,332c-1.15-18-2.34-36.6-2.66-54.69-1.26-68.43-30.52-97.63-97.84-97.63H229.6c-56.62,0-109,12.23-109,100.46l-2.28,39.09a17.49,17.49,0,0,0-6.46,13.43V369c0,21,17.62,38.06,39.29,38.06h14.54v77.1a8.48,8.48,0,0,0,8.48,8.48H330.35a8.5,8.5,0,0,0,8.48-8.53l-.18-27.32c37.53-.87,47.25-23.88,48.72-43.24C389.23,389.15,387.45,361.39,385.57,332Zm-248-51.37c0-70.61,32.35-84,92.06-84h61.67c-7.81,46.12-28.95,95-40,118.18H203.4c-.61-11.08-1.16-26.76-.64-42.7l-16.95-.55c-.53,16.23,0,31.91.59,43.25H135.55Zm13.6,109.41c-10.78,0-22.34-8.48-22.34-21.1V332.67c0-.31.6-.88,1.57-.88H257.56c30,0,30,14.48,30,20.67v36.71c0,.31-.6.88-1.57.88Zm219.32,22.16c-1.47,19.35-11.65,27.6-34,27.6-1.88,0-3.82-.07-5.8-.18a8.49,8.49,0,0,0-9,8.51l.17,27.49H182.63V407h109c23.21,0,42.14-20.75,42.14-46.08s-18.88-46-42.09-46H270c12.08-26.17,31.06-72.23,38.33-116.92,35.25,4.79,56.59,23.58,57.61,79.56.33,18.49,1.53,37.29,2.7,55.47C370.48,361.87,372.23,389,370.46,412.21Zm-70.39-78.48c9.71,4,16.71,14.64,16.71,27.2,0,10.52-4.94,19.67-12.24,24.74V352.46A39,39,0,0,0,300.07,333.73Z"></path><path class="cls-1" d="M337,89.51a82.09,82.09,0,1,0-82.11,82.09A82.2,82.2,0,0,0,337,89.51Zm-147.22,0a65.13,65.13,0,1,1,65.11,65.13A65.2,65.2,0,0,1,189.78,89.51Z"></path></svg> 