<?xml version="1.0" encoding="UTF-8"?> <svg xmlns="http://www.w3.org/2000/svg" xmlns:xlink="http://www.w3.org/1999/xlink" width="98px" height="99px" viewBox="0 0 98 99"><!-- Generator: Sketch 57.1 (83088) - https://sketch.com --><title>Group 6</title><desc>Created with Sketch.</desc><defs><polygon id="path-1" points="0 0.000446218487 97.9997773 0.000446218487 97.9997773 98.1680672 0 98.1680672"></polygon></defs><g id="PIP" stroke="none" stroke-width="1" fill="none" fill-rule="evenodd"><g id="Tablet" transform="translate(-335.000000, -290.000000)"><g id="Group-6" transform="translate(335.000000, 290.000000)"><path d="M30.2303264,35.8449324 C29.6642834,35.8449324 29.2052092,36.3040067 29.2052092,36.8700497 L29.2052092,43.1277218 C29.2052092,43.6937648 29.6642834,44.1550676 30.2303264,44.1550676 L42.7434421,44.1550676 C43.9022703,44.1550676 44.8449324,45.0977297 44.8449324,46.2565579 L44.8449324,58.7696736 C44.8449324,59.3379451 45.3040067,59.7970194 45.8722782,59.7970194 L52.1277218,59.7970194 C52.6959933,59.7970194 53.1550676,59.3379451 53.1550676,58.7696736 L53.1550676,46.2565579 C53.1550676,45.0977297 54.0977297,44.1550676 55.2565579,44.1550676 L67.7696736,44.1550676 C68.3379451,44.1550676 68.7970194,43.6937648 68.7970194,43.1277218 L68.7970194,36.8700497 C68.7970194,36.3040067 68.3379451,35.8449324 67.7696736,35.8449324 L55.2565579,35.8449324 C54.0977297,35.8449324 53.1550676,34.9022703 53.1550676,33.7434421 L53.1550676,21.2303264 C53.1550676,20.6642834 52.6959933,20.2029806 52.1277218,20.2029806 L45.8722782,20.2029806 C45.3040067,20.2029806 44.8449324,20.6642834 44.8449324,21.2303264 L44.8449324,33.7434421 C44.8449324,34.9022703 43.9022703,35.8449324 42.7434421,35.8449324 L30.2303264,35.8449324 Z M42.7434421,64 C41.584614,64 40.6419518,63.0551093 40.6419518,61.8985097 L40.6419518,49.3853939 C40.6419518,48.8171224 40.1828776,48.3580482 39.6146061,48.3580482 L27.1014903,48.3580482 C25.9426621,48.3580482 25,47.415386 25,46.2565579 L25,33.7434421 C25,32.584614 25.9426621,31.6419518 27.1014903,31.6419518 L39.6146061,31.6419518 C40.1828776,31.6419518 40.6419518,31.1828776 40.6419518,30.6146061 L40.6419518,18.1014903 C40.6419518,16.9426621 41.584614,16 42.7434421,16 L55.2565579,16 C56.415386,16 57.3580482,16.9426621 57.3580482,18.1014903 L57.3580482,30.6146061 C57.3580482,31.1828776 57.8171224,31.6419518 58.3853939,31.6419518 L70.8985097,31.6419518 C72.0573379,31.6419518 73,32.584614 73,33.7434421 L73,46.2565579 C73,47.415386 72.0573379,48.3580482 70.8985097,48.3580482 L58.3853939,48.3580482 C57.8171224,48.3580482 57.3580482,48.8171224 57.3580482,49.3853939 L57.3580482,61.8985097 C57.3580482,63.0551093 56.415386,64 55.2565579,64 L42.7434421,64 Z" id="Fill-1" fill="#FFFFFF"></path><g id="Group-5"><mask id="mask-2" fill="white"><use xlink:href="#path-1"></use></mask><g id="Clip-4"></g><path d="M93.7991409,71.8550092 C93.7991409,73.6822739 92.3157773,75.1681815 90.4916409,75.1681815 L7.50791364,75.1681815 C5.68377727,75.1681815 4.20041364,73.6822739 4.20041364,71.8550092 L4.20041364,7.52145882 C4.20041364,5.69419412 5.68377727,4.20828655 7.50791364,4.20828655 L90.4916409,4.20828655 C92.3157773,4.20828655 93.7991409,5.69419412 93.7991409,7.52145882 L93.7991409,71.8550092 Z M61.7575955,93.4720639 C61.5705045,93.7754924 61.2386409,93.9606731 60.8845045,93.9606731 L37.1172773,93.9606731 C36.7609136,93.9606731 36.4312773,93.7754924 36.2441864,93.4720639 C36.0570955,93.1686353 36.0392773,92.7893496 36.1996409,92.4725345 C37.7876864,89.2932277 38.5939591,85.2326395 38.5939591,80.4045555 C38.5939591,79.8356269 39.0527773,79.3760218 39.6207318,79.3760218 L58.38105,79.3760218 C58.9467773,79.3760218 59.4055955,79.8356269 59.4055955,80.4045555 C59.4055955,85.2326395 60.2118682,89.2932277 61.8021409,92.4725345 C61.9602773,92.7893496 61.9446864,93.1686353 61.7575955,93.4720639 L61.7575955,93.4720639 Z M90.4916409,0.000446218487 L7.50791364,0.000446218487 C3.36741364,0.000446218487 -0.000222727273,3.37385798 -0.000222727273,7.52145882 L-0.000222727273,71.8550092 C-0.000222727273,76.0026101 3.36741364,79.3760218 7.50791364,79.3760218 L33.36655,79.3760218 C33.9345045,79.3760218 34.3933227,79.8356269 34.3933227,80.4045555 C34.3933227,89.3311563 31.3152318,92.7045681 29.9944591,93.7420261 C29.8118227,93.884816 29.5890955,93.9606731 29.3619136,93.9606731 L20.8604136,93.9606731 C19.7022318,93.9606731 18.7600955,94.9044252 18.7600955,96.0645933 C18.7600955,97.2247613 19.7022318,98.1685134 20.8604136,98.1685134 L77.1413682,98.1685134 C78.2973227,98.1685134 79.2394591,97.2247613 79.2394591,96.0645933 C79.2394591,94.9044252 78.2973227,93.9606731 77.1413682,93.9606731 L68.6064591,93.9606731 C68.37705,93.9606731 68.1543227,93.884816 67.9739136,93.7420261 C66.6598227,92.7112613 63.6062318,89.3467739 63.6062318,80.4045555 C63.6062318,79.8356269 64.0672773,79.3760218 64.6330045,79.3760218 L90.4916409,79.3760218 C94.6321409,79.3760218 97.9997773,76.0026101 97.9997773,71.8550092 L97.9997773,7.52145882 C97.9997773,3.37385798 94.6321409,0.000446218487 90.4916409,0.000446218487 L90.4916409,0.000446218487 Z" id="Fill-3" fill="#FFFFFF" mask="url(#mask-2)"></path></g></g></g></g></svg> 