<?xml version="1.0" encoding="UTF-8"?> <svg xmlns="http://www.w3.org/2000/svg" id="Layer_1" data-name="Layer 1" viewBox="0 0 500 500"><defs><style>.cls-1{fill:#fff;}</style></defs><title>unti</title><g id="a9ZoWm"><path class="cls-1" d="M43.59,296.58c5.32-5.32,10.71-10.58,15.91-16a6.71,6.71,0,0,0,1.81-4.24q-.35-20.7-1.11-41.39a5.67,5.67,0,0,0-1.71-3.69C47.81,222,37.18,212.7,26.21,203.82c-4.73-3.82-6-7.69-4.3-13.6A270,270,0,0,1,41.34,140c2.17-4.25,5.13-6,10-5.84,14.41.56,28.85.8,43.27,1a5.13,5.13,0,0,0,3.53-1.81A193,193,0,0,1,127,103a4.41,4.41,0,0,0,1.73-4.29c-1.22-14.48-2.26-29-3.54-43.46-.37-4.3,1.14-7.1,4.83-9.29a254.37,254.37,0,0,1,51.69-23.15c4.24-1.36,7.34-.3,10.34,2.92,9.92,10.62,20,21.1,30.13,31.52a5.07,5.07,0,0,0,3.8,1.21,211.78,211.78,0,0,1,42.27-1.16A5.14,5.14,0,0,0,272,55.74c9.32-10.75,18.64-21.5,27.66-32.49,3.21-3.9,6.48-5.2,11.45-3.88a257.64,257.64,0,0,1,51.74,19.79c4.11,2.1,5.93,4.93,5.74,9.7-.55,14.31-.79,28.64-1,43a6.44,6.44,0,0,0,1.8,4.23q15,14.69,30.33,29.07a6.51,6.51,0,0,0,4.44,1.31c14.39-1,28.79-2.11,43.16-3.41,4.42-.4,7.31,1,9.55,4.87A254.89,254.89,0,0,1,480,179.6c1.32,4.13.33,7.21-2.76,10.11-10.53,9.87-20.91,19.9-31.44,29.78-1.63,1.53-2,3.07-1.88,5.23.55,13.78.89,27.57,1.44,41.35a5.63,5.63,0,0,0,1.72,3.62q16.69,14.52,33.57,28.81c3,2.53,3.94,5.33,3,9.15a245,245,0,0,1-20.69,54.06c-1.92,3.67-4.91,4.73-8.8,4.62-14.43-.4-28.85-.74-43.28-.94a6.37,6.37,0,0,0-4.21,1.77c-9.6,9.91-19,20-28.62,29.9a5.62,5.62,0,0,0-1.81,4.92c1.22,14.39,2.25,28.78,3.5,43.16.37,4.23-.9,7.14-4.66,9.36a254.66,254.66,0,0,1-51.68,23.17c-4.25,1.36-7.34.42-10.35-2.81-9.69-10.41-19.59-20.62-29.37-30.95a5,5,0,0,0-4.88-1.83,178.82,178.82,0,0,1-41.61,1.29,4.71,4.71,0,0,0-4.51,1.93c-9.45,11.19-19,22.29-28.47,33.45a7.93,7.93,0,0,1-8.66,2.83,243.86,243.86,0,0,1-54.6-21c-3.54-1.86-4.53-4.82-4.43-8.6.38-14,.55-28,1-42,.1-2.9-.85-4.6-3-6.58-9.75-9-19.25-18.28-28.74-27.57a5.63,5.63,0,0,0-4.92-1.84c-14.37,1.24-28.77,2.25-43.15,3.53-4.39.39-7.31-1-9.57-4.86a249.72,249.72,0,0,1-23.21-52,8.27,8.27,0,0,1,2.37-9.34c5.28-5.07,10.38-10.32,15.56-15.5Zm403.52-98.7.75.75c5.17-5.17,10.29-10.41,15.56-15.48,1.49-1.44,1.86-2.59,1.16-4.61a240.73,240.73,0,0,0-17.24-38.6,3.73,3.73,0,0,0-4.2-2.24c-14.17,1.22-28.35,2.25-42.52,3.47-3.66.32-6.24-1-8.85-3.52-11.21-11-22.48-21.85-34.09-32.38-3.1-2.8-4.75-5.4-4.61-9.56.45-14.11.65-28.22,1-42.33.05-1.77-.27-2.83-2-3.67a242.94,242.94,0,0,0-39.79-15.2c-2.13-.61-3.33-.2-4.77,1.51-9.21,11-18.6,21.8-27.85,32.73A8.71,8.71,0,0,1,271.41,72a171.13,171.13,0,0,0-47.83,1.32,8.91,8.91,0,0,1-8.69-3c-9.68-10.28-19.52-20.4-29.15-30.72-1.7-1.83-3-2.24-5.37-1.43a253.11,253.11,0,0,0-38.3,17.15c-1.84,1-2.34,2.2-2.16,4.25,1.2,14.06,2.19,28.15,3.46,42.21.34,3.81-.62,6.67-3.64,9a168.22,168.22,0,0,0-32.65,34.54,9.39,9.39,0,0,1-8.78,4.21C84.19,149.22,70.07,149,56,148.6a3.93,3.93,0,0,0-4.29,2.6,244.29,244.29,0,0,0-15,39.22c-.66,2.31-.07,3.5,1.7,5,11,9.2,21.84,18.55,32.76,27.82a9,9,0,0,1,3.28,7.11q.57,24.78,1.38,49.55a9.8,9.8,0,0,1-3.33,8c-10.44,9.81-20.74,19.77-31.12,29.65-1.22,1.16-1.85,2.18-1.2,4.05a245.35,245.35,0,0,0,17.67,39.44c1,1.79,2.13,1.89,3.79,1.76,13.23-1.08,26.51-1.83,39.7-3.3,6-.66,9.85,1.24,14,5.46,9.91,10.16,20.18,20,30.85,29.39,3.95,3.46,5.94,6.62,5.71,11.88-.57,13.58-.71,27.18-.88,40.77a4.5,4.5,0,0,0,1.69,3.45,205.13,205.13,0,0,0,40.89,15.72,4,4,0,0,0,3.33-1.07q14-16.1,27.76-32.4a10.15,10.15,0,0,1,9.84-4,160.42,160.42,0,0,0,45.94-1.4c4.46-.78,7.55.44,10.55,3.66,9.5,10.16,19.24,20.09,28.77,30.22a3.69,3.69,0,0,0,4.6,1.09A245.1,245.1,0,0,0,362.93,445a3.54,3.54,0,0,0,2.09-4c-1.2-13.85-2.1-27.73-3.42-41.57-.42-4.41.87-7.46,4.06-10.47,11.78-11.13,23.56-22.28,33.27-35.38,1.69-2.29,4.14-2.86,6.95-2.78,14.53.4,29.06.66,43.59,1.06a3.29,3.29,0,0,0,3.57-2.17,245.3,245.3,0,0,0,14.77-38.28c.86-3,.67-4.83-1.88-6.94q-16.33-13.49-32.22-27.48c-1.66-1.46-3.15-4.33-3-6.42,1.2-16.67,0-33.24-1.5-49.81a9.49,9.49,0,0,1,3.23-8.36C437.43,207.73,442.23,202.76,447.11,197.88Z"></path><path class="cls-1" d="M345.9,344c-51.29,51.39-135.37,51.44-186.75.11-51.95-51.9-52.23-135.77-.33-187.4,52.38-52.13,135-51.49,186-1.15C398.08,208.19,398.22,291.59,345.9,344Zm-177-177.28a118.34,118.34,0,0,0,.1,167.2c46.36,46.39,121.39,46,168-1.38a117.53,117.53,0,0,0-2.52-167.23C288,120.38,214.91,121.16,168.92,166.74Z"></path></g></svg> 