<?xml version="1.0" encoding="UTF-8"?> <svg xmlns="http://www.w3.org/2000/svg" xmlns:xlink="http://www.w3.org/1999/xlink" width="100px" height="60px" viewBox="0 0 100 60"><!-- Generator: Sketch 57.1 (83088) - https://sketch.com --><title>Group 7 Copy</title><desc>Created with Sketch.</desc><defs><polygon id="path-1" points="0.00090328125 0.867893557 46.167608 0.867893557 46.167608 59.3837535 0.00090328125 59.3837535"></polygon><polygon id="path-3" points="0.311941765 0.867893557 46.9413882 0.867893557 46.9413882 59.3837535 0.311941765 59.3837535"></polygon></defs><g id="Testimonials" stroke="none" stroke-width="1" fill="none" fill-rule="evenodd"><g transform="translate(-978.000000, -925.000000)" id="Group-7-Copy"><g transform="translate(978.000000, 925.000000)"><g id="Group-3"><mask id="mask-2" fill="white"><use xlink:href="#path-1"></use></mask><g id="Clip-2"></g><path d="M23.669883,43.3955686 C24.103458,43.3955686 24.5129455,43.5796583 24.8019955,43.9003305 C25.0970673,44.2299104 25.2295486,44.6782577 25.1572861,45.1147283 C24.5310111,48.9717031 22.7124048,52.2051485 20.9058423,54.586437 C40.1878861,46.6111989 42.7622377,28.2734958 42.9820361,26.2752325 C42.9790252,26.1980336 42.9820361,26.1178655 42.9940798,26.0376975 C43.0874189,25.2478936 43.1566705,24.4462129 43.1566705,23.6326555 C43.1566705,12.7179216 34.1509564,3.83708123 23.0857611,3.83708123 C12.0175548,3.83708123 3.01184078,12.7179216 3.01184078,23.6326555 C3.01184078,34.5473894 12.0175548,43.4252605 23.0857611,43.4252605 C23.1068377,43.4252605 23.6066533,43.3955686 23.6247189,43.3955686 L23.669883,43.3955686 Z M15.6818658,59.3846443 C15.1218314,59.3846443 14.5949173,59.0728796 14.3329658,58.5621793 C14.0168173,57.9327115 14.1914517,57.1666611 14.7514861,56.7301905 C14.8086939,56.6886218 20.0477252,52.5584818 21.8031017,46.3588179 C9.66902359,45.6996583 0.00090328125,35.7588179 0.00090328125,23.6326555 C0.00090328125,11.07893 10.3555173,0.867893557 23.0857611,0.867893557 C35.8129939,0.867893557 46.167608,11.07893 46.167608,23.6326555 C46.167608,24.4966891 46.1043783,25.3429076 46.0080283,26.1802185 C46.0080283,26.2277255 46.0080283,26.2752325 46.0050173,26.3257087 C45.9839408,26.5810588 43.7016502,52.0626275 16.0702767,59.3341681 C15.9408064,59.3668291 15.8113361,59.3846443 15.6818658,59.3846443 L15.6818658,59.3846443 Z" id="Fill-1" fill="#FA5095" mask="url(#mask-2)"></path></g><g id="Group-6" transform="translate(53.000000, 0.000000)"><mask id="mask-4" fill="white"><use xlink:href="#path-3"></use></mask><g id="Clip-5"></g><path d="M24.21863,43.3955686 C24.6565594,43.3955686 25.0701594,43.5796583 25.3621124,43.9003305 C25.6601476,44.2299104 25.7939594,44.6782577 25.7209712,45.1147283 C25.0884065,48.9717031 23.2515359,52.2051485 21.42683,54.586437 C40.9025241,46.6111989 43.50273,28.2734958 43.7247359,26.2752325 C43.7216947,26.1980336 43.7247359,26.1178655 43.7369006,26.0376975 C43.8311771,25.2478936 43.9011241,24.4462129 43.9011241,23.6326555 C43.9011241,12.7179216 34.8049653,3.83708123 23.6286418,3.83708123 C12.4492771,3.83708123 3.35311824,12.7179216 3.35311824,23.6326555 C3.35311824,34.5473894 12.4492771,43.4252605 23.6286418,43.4252605 C23.64993,43.4252605 24.1547653,43.3955686 24.1730124,43.3955686 L24.21863,43.3955686 Z M16.1503888,59.3846443 C15.58473,59.3846443 15.0525241,59.0728796 14.7879418,58.5621793 C14.4686182,57.9327115 14.6450065,57.1666611 15.2106653,56.7301905 C15.2684476,56.6886218 20.5600947,52.5584818 22.3331006,46.3588179 C10.0771594,45.6996583 0.311941765,35.7588179 0.311941765,23.6326555 C0.311941765,11.07893 10.7705476,0.867893557 23.6286418,0.867893557 C36.4836947,0.867893557 46.9423006,11.07893 46.9423006,23.6326555 C46.9423006,24.4966891 46.8784359,25.3429076 46.7811182,26.1802185 C46.7811182,26.2277255 46.7811182,26.2752325 46.7780771,26.3257087 C46.7567888,26.5810588 44.4515771,52.0626275 16.5427006,59.3341681 C16.41193,59.3668291 16.2811594,59.3846443 16.1503888,59.3846443 L16.1503888,59.3846443 Z" id="Fill-4" fill="#FA5095" mask="url(#mask-4)"></path></g></g></g></g></svg> 