<?xml version="1.0" encoding="UTF-8"?> <svg xmlns="http://www.w3.org/2000/svg" xmlns:xlink="http://www.w3.org/1999/xlink" width="138px" height="82px" viewBox="0 0 138 82"><!-- Generator: Sketch 57.1 (83088) - https://sketch.com --><title>Group 7</title><desc>Created with Sketch.</desc><defs><polygon id="path-1" points="0.00124921875 0.200586088 63.8488195 0.200586088 63.8488195 81.1475257 0.00124921875 81.1475257"></polygon><polygon id="path-3" points="0.431408824 0.200586088 64.9189412 0.200586088 64.9189412 81.1475257 0.431408824 81.1475257"></polygon></defs><g id="Testimonials" stroke="none" stroke-width="1" fill="none" fill-rule="evenodd"><g transform="translate(-652.000000, -278.000000)" id="Group-7"><g transform="translate(652.000000, 278.000000)"><g id="Group-3"><mask id="mask-2" fill="white"><use xlink:href="#path-1"></use></mask><g id="Clip-2"></g><path d="M32.7349445,59.0305366 C33.3345695,59.0305366 33.900882,59.2851939 34.300632,59.7287906 C34.7087102,60.1847093 34.8919289,60.8049232 34.7919914,61.4087075 C33.9258664,66.7441893 31.4107727,71.217122 28.9123352,74.5112378 C55.5789914,63.4788251 59.1392648,38.1116692 59.4432414,35.3474049 C59.4390773,35.2406132 59.4432414,35.129714 59.4598977,35.0188148 C59.5889836,33.9262528 59.684757,32.8172612 59.684757,31.6918401 C59.684757,16.5931248 47.2300461,4.30796237 31.9271164,4.30796237 C16.6200227,4.30796237 4.16531172,16.5931248 4.16531172,31.6918401 C4.16531172,46.7905553 16.6200227,59.0716104 31.9271164,59.0716104 C31.9562648,59.0716104 32.6474992,59.0305366 32.6724836,59.0305366 L32.7349445,59.0305366 Z M21.6876867,81.1487579 C20.9131711,81.1487579 20.1844602,80.7174834 19.8221867,80.0110147 C19.3849602,79.1402509 19.6264758,78.0805478 20.4009914,77.4767635 C20.4801086,77.4192602 27.7255773,71.7058998 30.1532258,63.1296981 C13.3720539,62.2178606 0.00124921875,48.4663648 0.00124921875,31.6918401 C0.00124921875,14.3258531 14.3214602,0.200586088 31.9271164,0.200586088 C49.5286086,0.200586088 63.8488195,14.3258531 63.8488195,31.6918401 C63.8488195,32.8870866 63.7613742,34.0576888 63.6281242,35.2159689 C63.6281242,35.2816869 63.6281242,35.3474049 63.6239602,35.4172303 C63.5948117,35.7704647 60.4384523,71.019968 22.2248508,81.0789325 C22.0457961,81.1241136 21.8667414,81.1487579 21.6876867,81.1487579 L21.6876867,81.1487579 Z" id="Fill-1" fill="#FFFFFF" mask="url(#mask-2)"></path></g><g id="Group-6" transform="translate(73.000000, 0.000000)"><mask id="mask-4" fill="white"><use xlink:href="#path-3"></use></mask><g id="Clip-5"></g><path d="M33.49385,59.0305366 C34.0994971,59.0305366 34.6714971,59.2851939 35.0752618,59.7287906 C35.4874382,60.1847093 35.6724971,60.8049232 35.5715559,61.4087075 C34.6967324,66.7441893 32.1563794,71.217122 29.63285,74.5112378 C56.5673206,63.4788251 60.16335,38.1116692 60.4703794,35.3474049 C60.4661735,35.2406132 60.4703794,35.129714 60.4872029,35.0188148 C60.6175853,33.9262528 60.7143206,32.8172612 60.7143206,31.6918401 C60.7143206,16.5931248 48.1345265,4.30796237 32.6779088,4.30796237 C17.2170853,4.30796237 4.63729118,16.5931248 4.63729118,31.6918401 C4.63729118,46.7905553 17.2170853,59.0716104 32.6779088,59.0716104 C32.70735,59.0716104 33.4055265,59.0305366 33.4307618,59.0305366 L33.49385,59.0305366 Z M22.3356441,81.1487579 C21.55335,81.1487579 20.8173206,80.7174834 20.4514088,80.0110147 C20.0097912,79.1402509 20.2537324,78.0805478 21.0360265,77.4767635 C21.1159382,77.4192602 28.4341735,71.7058998 30.8862029,63.1296981 C13.9364971,62.2178606 0.431408824,48.4663648 0.431408824,31.6918401 C0.431408824,14.3258531 14.8954382,0.200586088 32.6779088,0.200586088 C50.4561735,0.200586088 64.9202029,14.3258531 64.9202029,31.6918401 C64.9202029,32.8870866 64.8318794,34.0576888 64.6972912,35.2159689 C64.6972912,35.2816869 64.6972912,35.3474049 64.6930853,35.4172303 C64.6636441,35.7704647 61.4755853,71.019968 22.8782029,81.0789325 C22.69735,81.1241136 22.5164971,81.1487579 22.3356441,81.1487579 L22.3356441,81.1487579 Z" id="Fill-4" fill="#FFFFFF" mask="url(#mask-4)"></path></g></g></g></g></svg> 