<?xml version="1.0" encoding="UTF-8"?> <svg xmlns="http://www.w3.org/2000/svg" id="Layer_1" data-name="Layer 1" viewBox="0 0 60.06 90.63"><defs><style>.cls-1{fill:#fff;}</style></defs><title>shield-sword-icon</title><path class="cls-1" d="M52.76,22.18V18.33a7.57,7.57,0,1,0-9.88,0v3.85H17.75V65.59L47.82,95.66,77.47,66l.35-.35V22.18ZM47.82,7.4a5.2,5.2,0,1,1-5.2,5.2A5.2,5.2,0,0,1,47.82,7.4ZM45.26,19.72a7.49,7.49,0,0,0,2.56.45,7.59,7.59,0,0,0,2.57-.45v2.46H45.26Zm-5.9,23.84h7.27V91.11l-7.27-7.28ZM49,63l7.28-7.27v2.94L49,65.92Zm0,12.6,7.28-7.27v2.94L49,78.52ZM56.29,65,49,72.22V69.28L56.29,62Zm0-12.6L49,59.62V56.68l7.28-7.27ZM49,81.88l7.28-7.27v2.61L49,84.5Zm7.28-35.83L49,53.32V50.39l6.83-6.83h.45ZM49,47V43.56h3.47Zm0,40.83,7.28-7.28v3.25L49,91.11ZM37,41.18v1.19a4.17,4.17,0,0,1-4.16,4.27,4.27,4.27,0,0,1,0-8.54h30a4.27,4.27,0,1,1,0,8.54,4.18,4.18,0,0,1-4.16-4.27V41.18ZM50.39,31.09H45.26V29h5.13Zm-5.13,4.64V33.46h5.13v2.27Zm5.13-9.1H45.26V24.55h5.13ZM20.13,24.55H42.88V35.73H32.82a6.65,6.65,0,0,0,0,13.29A6.47,6.47,0,0,0,37,47.53V81.46L20.13,64.6ZM75.44,64.68,58.66,81.46V47.53A6.49,6.49,0,0,0,62.82,49a6.65,6.65,0,0,0,0-13.29H52.76V24.55H75.44Z" transform="translate(-17.75 -5.03)"></path></svg> 