<?xml version="1.0" encoding="UTF-8"?> <svg xmlns="http://www.w3.org/2000/svg" id="Layer_1" data-name="Layer 1" viewBox="0 0 500 500"><defs><style>.cls-1{fill:#fff;}</style></defs><title>unti</title><path class="cls-1" d="M189.24,233.49c-6-3.22-14-2.92-22,.63-3.14,1.35-77.13,33.43-98.39,48.29-11.37,8-9.13,26.11-3.24,35.61,5.6,9,13.88,14,23.34,14a24.77,24.77,0,0,0,8.82-1.51l74-24.55,5.79,4.48-59.16,83.89C113.37,400,108.22,414,123.32,429c13.17,13.1,27.51,11.47,35.11,4.31l73.39-81c38.45,32.09,76,23.4,92.28.49,9.16-12.88,28.11-43.35,39.13-61.27l-27.47,63.35c-5.93,13.73,1.51,25.56,11.56,31.21a27.18,27.18,0,0,0,13.2,3.77c10,0,16.43-7,18.76-11.36L426.8,301c4.58-7.5,8.37-16.69,1.87-28-.39-.69-41-69.87-55.49-82.72-10.54-9.32-18.91-11.3-32.11-13l-59.7-10.58-49.69-44.9a22.61,22.61,0,0,0-14.52-5.47c-5.61,0-11,2.15-15.89,6.4-10,8.64-12.05,22-5,30.67,1.27,1.73,31,42.76,44.33,55.31,6.93,6.55,27,13,53.49,20.59l-28,45.3ZM150,421c-4.21,3.67-10.94,3.35-16.38-2.22-8.45-8.64-5.38-13.59-4.34-14.79l59-83.52,31.05,24ZM274.84,288l36.62-59.25a7.37,7.37,0,0,0,.33-6.51,7.73,7.73,0,0,0-5-4.42c-17.63-5-50.46-14.23-56.2-19.66-12.32-11.62-42.24-52.86-42.77-53.58-2.59-3.19-.41-8,2.94-10.88,2.23-1.91,4.4-2.89,6.44-2.89a8.26,8.26,0,0,1,4.76,1.69l51.28,46.34a7.17,7.17,0,0,0,3.6,1.75l61.61,10.92c11.33,2,17.73,3,25.17,9.62,10.65,9.42,44.42,65,52.54,79.08,2.18,3.8,2.42,6.47-1.68,13.21l-46.79,76.28a10,10,0,0,1-13.26,3.69c-2.07-1.11-8.5-5.48-5.33-12.8l31-71.56a7.22,7.22,0,0,0-.6-6.86l-8-12.16a7.24,7.24,0,0,0-6.05-3.26h-.13a7.23,7.23,0,0,0-6.06,3.48c-.34.56-34.2,56.11-46.93,74.11-16.29,23-50,13.32-65.24,1.37-15.51-12.16-69.42-53.56-69.42-53.56a7.23,7.23,0,0,0-6.71-1.14L92.82,316.93a11.51,11.51,0,0,1-3.82.62c-4.44,0-8-2.35-11-7.16-3.3-5.32-3.71-14.05-.77-16.11,20.05-14,95.08-46.54,95.92-46.9,3.75-1.67,7.37-2.17,9.25-1.13l82.87,44.34A7.27,7.27,0,0,0,274.84,288Z"></path><path class="cls-1" d="M410.73,116.33a55.1,55.1,0,1,0-55.1,55.1A55.16,55.16,0,0,0,410.73,116.33Zm-95.71,0a40.61,40.61,0,1,1,40.61,40.61A40.65,40.65,0,0,1,315,116.33Z"></path><path class="cls-1" d="M466.42,322.34a87.71,87.71,0,0,0,8.92-58.69,86.37,86.37,0,0,0-48-61.53l-6.23,13.09a72.05,72.05,0,0,1,40,51.29A73,73,0,0,1,454,314.77l-13.26-8.09a2.9,2.9,0,0,0-4.37,3l5.64,33.6a2.89,2.89,0,0,0,1.34,2,2.85,2.85,0,0,0,1.52.43,2.8,2.8,0,0,0,.86-.13l32.79-10.16a2.89,2.89,0,0,0,.65-5.24Z"></path><path class="cls-1" d="M44.35,267.19A73.12,73.12,0,0,1,83.05,236l4.75,15a2.91,2.91,0,0,0,2.41,2,2.11,2.11,0,0,0,.35,0A2.88,2.88,0,0,0,93,251.65l17.84-29a2.88,2.88,0,0,0-1.3-4.16l-31.4-13.91a2.89,2.89,0,0,0-3.93,3.52l4.45,14.08a87.62,87.62,0,0,0-46.76,37.57A86.43,86.43,0,0,0,26,337.54l13.42-5.48A72.06,72.06,0,0,1,44.35,267.19Z"></path></svg> 