<?xml version="1.0" encoding="UTF-8"?> <svg xmlns="http://www.w3.org/2000/svg" id="Layer_1" data-name="Layer 1" viewBox="0 0 500 500"><defs><style>.cls-1{fill:#fff;}</style></defs><title>unti</title><path class="cls-1" d="M274.49,388c41.17-.62,66-20.33,73.87-58.58.28-1.36.5-2.7.75-4a71.74,71.74,0,0,0-16.73-12c-.59,4.07-1.26,8.18-2.11,12.33-2.42,11.79-8.84,43.1-56.07,43.83-5.25.09-11.9-.19-19.77-.81-8.06-.64-16.73-1.59-25.24-2.67-.26,1.72-.54,3.42-.67,5.18a70.89,70.89,0,0,0,.23,13.37c8.18,1,16.47,1.92,24.23,2.53C261.43,387.79,268.67,388.08,274.49,388Z"></path><path class="cls-1" d="M102.44,294.49a33.47,33.47,0,0,0,15.14,4.94c2.53.2,8.21.14,15.6-.08-2.78,3.44-4.44,7-6,9.5-17.65,28.69-52.92,100-52.92,100C64.78,427.12,69.91,446.1,87,456.09a42.18,42.18,0,0,0,17.8,6c10.84.85,20.74-3.66,29.4-13.39,3.67-4.1,27.34-37.69,43-60.05a124.52,124.52,0,0,1-.3-21.53c.21-2.69.65-5.3,1-7.93a9.19,9.19,0,0,0-5.13,3.53c-23,33-49.23,70.08-52.4,73.68-6.26,7-11.08,7.52-14.16,7.27a24.12,24.12,0,0,1-10-3.55c-8.54-5-10.61-13.28-5.67-22.76,2-3.82,4.77-9.29,8.11-15.86,11.76-23.09,29.51-58,43.3-81.37.47-.82.95-1.72,1.59-2.92,3.75-7.15,6.7-11.49,15.95-11.54l39.7.13a123.8,123.8,0,0,1,54.17-42.95c-.09-1.81-.14-3.64-.34-5.5-1.06-10-11.57-10.84-16.28-5.25-4.43,5.26-11.83,14.1-15.12,17.51-5,5.26-6.86,6.94-12.46,7.35-12.26.93-81.58,4.73-90.27,4-5.28-.42-11.62-2.91-11.83-12.41-.25-11,9.36-13.9,13.49-14.62,17.68-3.08,65.69-12.18,71.1-13.21a9.23,9.23,0,0,0,5.82-3.74c.31-.43,32.32-45.49,41.77-58.18,9.81-13.16,20-24.94,38-23.51,33.23,2.83,47.5,43.93,53.62,77.91a255.39,255.39,0,0,1,3.07,25.36A122.21,122.21,0,0,1,354,266.46l2-25.28,28.89-12.12a9.24,9.24,0,1,0-7.15-17l-29.71,12.46c-13.77-68.36-45-85.5-69.15-87.55-29.8-2.35-45.73,19.36-54.38,31-8.07,10.83-32.7,45.35-39.84,55.43-12.81,2.43-51.73,9.77-67.18,12.47C99.64,239,88.35,252,88.74,269a36.52,36.52,0,0,0,.56,5,25.77,25.77,0,0,0,11.83,19.2Z"></path><path class="cls-1" d="M169.63,73.77A59.67,59.67,0,1,0,233.81,19,59.72,59.72,0,0,0,169.63,73.77Zm100.55,7.94a41.2,41.2,0,1,1-37.82-44.32A41.24,41.24,0,0,1,270.18,81.71Z"></path><path class="cls-1" d="M308.08,270.68a106.49,106.49,0,1,0,97.79,114.55A106.62,106.62,0,0,0,308.08,270.68ZM292.76,464.59a88,88,0,1,1,94.69-80.82A88.12,88.12,0,0,1,292.76,464.59Z"></path></svg> 