<?xml version="1.0" encoding="UTF-8"?> <svg xmlns="http://www.w3.org/2000/svg" xmlns:xlink="http://www.w3.org/1999/xlink" width="147px" height="99px" viewBox="0 0 147 99"><!-- Generator: Sketch 57.1 (83088) - https://sketch.com --><title>truck-01</title><desc>Created with Sketch.</desc><g id="Case-Type-Page" stroke="none" stroke-width="1" fill="none" fill-rule="evenodd" stroke-linecap="round" stroke-linejoin="round"><g id="Truck-Accident---Case-Type-Page" transform="translate(-647.000000, -249.000000)" stroke="#FFFFFF" stroke-width="3.97"><g id="truck-01" transform="translate(649.000000, 251.000000)"><path d="M62.94,20.54 C57.05,17.9 54.19,18 47.56,15.94 L47.56,71.94 L93.56,71.94 L93.56,79.94 C93.56,79.94 93.75,83.76 99.09,83.76 L110.72,83.76" id="Path"></path><path d="M100.57,47.66 C98.76,42.09 95.72,32.93 90.87,29.23 C85.61,25.23 78.44,25.56 71.17,25.56" id="Path"></path><polyline id="Path" points="137.79 75.32 137.79 53.81 134.16 50 116.92 50"></polyline><path d="M142.390012,89.11 C142.392285,86.8786457 142.055094,84.659929 141.39,82.53 C139.11,75.3 133.17,70.14 126.21,70.14 C118.85,70.14 112.64,75.89 110.68,83.77 C110.246991,85.5169454 110.028712,87.3101908 110.029994,89.11" id="Path"></path><path d="M117.729994,85.89 C117.735521,90.572069 121.534588,94.3636772 126.216659,94.3600001 C130.89873,94.3563176 134.691832,90.5587425 134.689994,85.8766706 C134.688155,81.1945987 130.892072,77.4 126.21,77.4 C123.95923,77.4 121.800792,78.294797 120.210196,79.887269 C118.6196,81.479741 117.727346,83.639232 117.729994,85.89 Z" id="Path"></path><path d="M30.5999941,85.89 C30.6055213,90.572069 34.404588,94.3636772 39.0866588,94.3600001 C43.7687296,94.3563176 47.5618317,90.5587425 47.5599941,85.8766706 C47.5581552,81.1945987 43.7620722,77.4 39.08,77.4 C36.8292305,77.4 34.6707925,78.294797 33.0801962,79.887269 C31.4895999,81.479741 30.5973458,83.639232 30.5999941,85.89 Z" id="Path"></path><path d="M6.9399941,85.89 C6.94552131,90.572069 10.744588,94.3636772 15.4266588,94.3600001 C20.1087296,94.3563176 23.9018317,90.5587425 23.8999941,85.8766706 C23.8981552,81.1945987 20.1020722,77.4 15.42,77.4 C13.1692305,77.4 11.0107925,78.294797 9.42019619,79.887269 C7.82959993,81.479741 6.93734579,83.639232 6.9399941,85.89 Z" id="Path"></path><rect id="Rectangle" x="63.98" y="78.87" width="23.01" height="9.8" rx="2.82"></rect><polyline id="Path" points="47.55 71.9 3.29 71.9 0.34 81.88"></polyline><path d="M64,0 C68.2035911,2.81950306 70.7706359,7.50958347 70.88,12.57 L70.88,71.9" id="Path"></path><path d="M56.48,4.05 C60.29,6.48 63.36,10.28 63.36,15.12 L63.36,71.9" id="Path"></path><path d="M130.53,56.6 L130.53,69.81" id="Path"></path><path d="M104,47.66 L72.53,47.66" id="Path"></path><path d="M94.65,34.53 L77.35,34.53" id="Path"></path><rect id="Rectangle" x="100.57" y="47.66" width="10.1" height="15.22"></rect><path d="M100.57,60.72 C100.57,63.26 100.57,69.88 99.43,71.9" id="Path"></path><path d="M77.82,63.46 L77.82,57.16" id="Path"></path><rect id="Rectangle" x="47.55" y="34.53" width="15.81" height="13.45"></rect><polyline id="Path" points="110.66 34.53 110.66 47.66 105.18 47.66"></polyline></g></g></g></svg> 