<?xml version="1.0" encoding="UTF-8"?> <svg xmlns="http://www.w3.org/2000/svg" id="Layer_1" data-name="Layer 1" viewBox="0 0 500 500"><defs><style>.cls-1{fill:#fff;}</style></defs><title>Untitled-2</title><path class="cls-1" d="M449.39,243.74a10,10,0,0,0-7.07-2.92h0c-3.36,0-14.43-.88-20.81-1.45-9.69-1.36-17.62-6.27-24.22-15-13.7-18.14-21-52.11-21.22-98.24a512.4,512.4,0,0,1,4.25-66.75,10,10,0,0,0-6.82-11L307.14,27a10,10,0,0,0-13.08,9.34q-.1,5.81-.45,11.18c-28.55,7.72-50.89,7.39-64.81,5.65a97.72,97.72,0,0,1-22.37-5.21c-.25-3.73-.42-7.59-.49-11.62A10,10,0,0,0,192.86,27L126.53,48.41a10,10,0,0,0-6.82,11A512.78,512.78,0,0,1,124,125.84c-.15,46.26-7.48,80.32-21.21,98.5-6.61,8.75-14.54,13.67-24.24,15-6.38.57-17.44,1.45-20.79,1.45h0a10,10,0,0,0-10,10V465.89a10,10,0,0,0,10,10H442.32a10,10,0,0,0,10-10V250.82A10,10,0,0,0,449.39,243.74ZM245.82,322.07h186.5V365H245.82ZM359.42,64.9C356,94.35,347.79,192,381.28,236.4c9.9,13.1,22.59,20.78,37.73,22.82l.44,0c1.06.09,7.06.63,12.87,1v41.76H245.82V215.23c0-20.44,8.86-44.76,17.13-54.66.1-.11.18-.22.27-.33,1.86-2.42,4.36-5.13,7.26-8.27,14.78-16,38.85-42.12,43-101.92ZM67.68,385H204.05a10,10,0,0,0,0-20H67.68V322.07H203.59a10,10,0,0,0,0-20H67.68V260.31c5.81-.41,11.8-.95,12.86-1l.43,0c15.15-2,27.84-9.72,37.74-22.83C152.21,192,144,94.35,140.57,64.9l45.94-14.85c3.43,50.1,20.64,76.33,35.68,93.78a10,10,0,0,0,15.15-13.06c-10.74-12.46-22.75-30.21-28.3-61.06a146.24,146.24,0,0,0,37.11,4.49,197,197,0,0,0,45-5.43c-6.73,38.58-23.47,56.76-35.35,69.63-3,3.3-5.92,6.42-8.3,9.51-12.16,14.67-21.66,44.18-21.66,67.32v211.5a51.53,51.53,0,0,0,8.9,29.16h-167Zm208.44,70.94h-4.76c-14.08,0-25.54-13.08-25.54-29.16V385h186.5v70.94Z"></path></svg> 