<svg style="display: none;"><defs>      <path id="g-plus-path-1" d="M12.92785,26 L0,26 L0,0.579 L12.92785,0.579 L25.8557,0.579 L25.8557,26 L12.92785,26 L12.92785,26 Z"/> <path id="g-plus-path-3" d="M12.746,12.6799 L12.746,0.6129 L0.4751,0.6129 L0.4751,12.6799 L12.746,12.6799 L12.746,12.6799 Z"/>  </defs><symbol viewBox="-1 0 12 13" id="shape-arrow"><title>arrow</title>  <path fill-rule="evenodd" clip-rule="evenodd" d="M10.093,3.836V0L0,6l10.093,6V8.164"/> </symbol><symbol viewBox="0 0 200.066 193" id="shape-attorney-female"><title>attorney-female</title> <path d="M12.533,193h101c0,0-8.5-23.25-22-35.5c0,0-2.5,3-3.125,6.375c0,0-16.75-15-31.125-20.375l8.5-12.75
	c0,0,29.875,10.875,34.783,17c0,0,17.467,32.25,17.967,34.25c0,0,6.75-19.5,6.75-35c0,0,4.25-9.5,2.75-19.5c0,0,12.5,14.25,13,20.5
	c0,0-5.75-3.25-10.75-2.25c-1.222,6.252-1,47.25-1,47.25h58.25c0,0-3.5-33.596-4.5-41.846s-5.5-14.154-11.5-14.904s-34-4.25-34-4.25
	c4.25-14.25,2.5-33,4.25-42.75s2.75-16.5,3-22.75s2.125-22.5-4.625-34.25s-10.875-18-20.875-17.5c-0.125-3.5-4.5-7.25-13.25-7.25
	s-34,9.25-44.5,34.25s-23.625,76.125-12.25,98.803c0,0-9.89,1.208-19.368,3.231c-9.135,1.951-12.119,8.198-13.119,15.198
	S12.533,193,12.533,193z"/> </symbol><symbol viewBox="0 0 200.066 193" id="shape-attorney-male"><title>attorney-male</title> <g> <path d="M0,164.837V193h114.971c-3.827-19-41.184-66.477-41.018-83.692C61.312,131.848,17,149.369,0,164.837z"/> <path d="M138.59,125.083c9.979,8.65,49.438,23.875,56.203,31.694c6.767,7.816,5.067,26.496,5.121,35.825l-56.002,0.179
		c-0.165-10.812,1.664-34.931-0.165-43.579C141.916,140.552,138.59,125.083,138.59,125.083z"/> <path d="M77.879,110.447c0,0,22.121,30.106,40.584,30.106c9.187,0,14.639-13.141,14.639-13.141l1.496-15.47
		c0,0,5.156-3.825,7.318-11.144c2.163-7.319,5.157-20.792,5.157-20.792s5.655-3.991,5.489-13.306
		c-0.167-9.315-3.161-10.646-3.161-10.646s4.159-21.791,2.163-31.271C150.34,18.968,136.593,0,113.973,0
		C91.352,0,75.351,13.754,72.057,16.966c-6.653,6.487-2.496,40.752-2.496,40.752s-6.153-0.999-6.153,4.325
		c0,2.58,2.356,6.878,3.614,11.268c1.337,4.668,0.975,9.567,5.959,9.567c0,0,1.996,15.443,5.155,18.104L77.879,110.447z"/> <path d="M118.138,142.817c1.291-1.05,5.893-0.96,8.113-0.593c2.222,0.366,6.442,4.248,7.003,7.376
		c0.562,3.13-3.418,12.659-3.418,12.659S140.12,180,139.709,193h-18.75c0,0,2.17-20.976-1.667-30.431c0,0-6.988-8.003-6.988-9.923
		C112.304,150.729,116.848,143.867,118.138,142.817z"/> </g> </symbol><symbol viewBox="0 0 17 17" id="shape-btn-close"><title>btn-close</title>  <path fill-rule="evenodd" clip-rule="evenodd" d="M0.586,16.142c-0.781-0.781-0.781-2.047,0-2.828L13.314,0.586
	c0.781-0.781,2.047-0.781,2.829,0l0,0c0.781,0.781,0.781,2.047,0,2.828L3.415,16.142C2.633,16.923,1.367,16.923,0.586,16.142
	L0.586,16.142z"/> <path fill-rule="evenodd" clip-rule="evenodd" d="M0.586,0.586c0.781-0.781,2.047-0.781,2.829,0l12.728,12.728
	c0.781,0.781,0.781,2.047,0,2.828l0,0c-0.781,0.781-2.047,0.781-2.829,0L0.586,3.414C-0.195,2.633-0.195,1.367,0.586,0.586
	L0.586,0.586z"/> </symbol><symbol viewBox="0 0 22 22" id="shape-btn-menu"><title>btn-menu</title>  <path fill-rule="evenodd" clip-rule="evenodd" d="M0,20c0-1.104,0.896-2,2-2h18c1.104,0,2,0.896,2,2l0,0
	c0,1.105-0.896,2-2,2H2C0.896,22,0,21.105,0,20L0,20z"/> <path fill-rule="evenodd" clip-rule="evenodd" d="M0,11c0-1.104,0.896-2,2-2h18c1.104,0,2,0.896,2,2l0,0
	c0,1.104-0.896,2-2,2H2C0.896,13,0,12.104,0,11L0,11z"/> <path fill-rule="evenodd" clip-rule="evenodd" d="M0,2c0-1.104,0.896-2,2-2h18c1.104,0,2,0.896,2,2l0,0
	c0,1.105-0.896,2-2,2H2C0.896,4,0,3.105,0,2L0,2z"/> </symbol><symbol viewBox="0 0 789 577" id="shape-checkmark"><title>checkmark</title>  <polygon points="711.239,0 288.576,422.662 77.399,211.486 0,288.886 211.487,499.752 288.886,577.151 
	365.975,500.062 788.639,77.399 "/> </symbol><symbol viewBox="0 0 124 153" id="shape-document"><title>document</title>  <g> <defs> <rect id="document-SVGID_1_" width="124.129" height="152.812"/> </defs> <clipPath id="document-SVGID_2_"> <use xlink:href="#document-SVGID_1_" overflow="visible"/> </clipPath> <path clip-path="url(#document-SVGID_2_)" d="M69.791,38.456c-2.889,0-5.251-2.371-5.251-5.273V0H13.13
		C5.908,0,0,5.933,0,13.186v105.44c0,7.252,5.908,13.185,13.13,13.185h76.576c7.22,0,13.126-5.933,13.126-13.185v-80.17H69.791z"/> <path clip-path="url(#document-SVGID_2_)" d="M112.129,52.292v85.521c0,1.625-1.375,3-3,3l-87.191-0.004
		c1.398,6.826,7.47,12.004,14.695,12.004h72.496c8.25,0,15-6.75,15-15V64.292L112.129,52.292z"/> </g> </symbol><symbol viewBox="0 0 7.436 16" id="shape-facebook"><title>facebook</title> <g> <path d="M4.902,3.521c0-0.625,0.414-0.77,0.705-0.77c0.29,0,1.786,0,1.786,0V0.01L4.933,0
		C2.201,0,1.58,2.045,1.58,3.354v1.828H0v2.824h1.58c0,3.627,0,7.994,0,7.994h3.322c0,0,0-4.412,0-7.994h2.242l0.291-2.824H4.902
		V3.521z"/> </g> </symbol><symbol viewBox="0 0 41 27" id="shape-g-plus"><title>Artboard</title><desc>Created with Sketch.</desc> <!-- Generator: Sketch 3.6.1 (26313) - http://www.bohemiancoding.com/sketch -->    <g id="g-plus-Page-1" stroke-width="1" fill-rule="evenodd"> <g id="g-plus-Artboard"> <g id="g-plus-Page-1"> <g id="g-plus-Group-3" transform="translate(0.000000, 0.420900)"> <mask id="g-plus-mask-2"> <use xlink:href="#g-plus-path-1"/> </mask>  <path d="M12.9277,26 C5.7877,26 -0.0003,20.311 -0.0003,13.29 C-0.0003,6.27 5.7877,0.579 12.9277,0.579 C16.2897,0.579 19.3507,1.844 21.6487,3.911 L17.8387,7.578 C16.5137,6.477 14.7997,5.809 12.9277,5.809 C8.7257,5.809 5.3197,9.158 5.3197,13.29 C5.3197,17.422 8.7257,20.771 12.9277,20.771 C16.1797,20.771 18.9527,18.766 20.0417,15.945 L12.7647,15.945 L12.7647,10.636 L25.5727,10.636 C25.7567,11.492 25.8557,12.38 25.8557,13.29 C25.8557,20.311 20.0677,26 12.9277,26" id="g-plus-Fill-1" mask="url(#g-plus-mask-2)"/> </g> <g id="g-plus-Group-6" transform="translate(28.000000, 6.420900)"> <mask id="g-plus-mask-4"> <use xlink:href="#g-plus-path-3"/> </mask>  <path d="M12.7461,8.2559 L8.2461,8.2559 L8.2461,12.6799 L4.9751,12.6799 L4.9751,8.2559 L0.4751,8.2559 L0.4751,5.0369 L4.9751,5.0369 L4.9751,0.6129 L8.2461,0.6129 L8.2461,5.0369 L12.7461,5.0369 L12.7461,8.2559 Z" id="g-plus-Fill-4" mask="url(#g-plus-mask-4)"/> </g> </g> </g> </g> </symbol><symbol viewBox="0 0 67.241 67.236" id="shape-instagram"><title>instagram</title> <g> <path d="M58.611,0H8.634C3.886,0,0,3.883,0,8.631v49.978c0,4.747,3.886,8.627,8.634,8.627h49.978
		c4.748,0,8.63-3.88,8.63-8.627V8.631C67.241,3.883,63.359,0,58.611,0z M45.957,10.499c0-1.667,1.36-3.032,3.028-3.032h7.599
		c1.664,0,3.027,1.365,3.027,3.032v7.242c0,1.667-1.363,3.029-3.027,3.029h-7.599c-1.668,0-3.028-1.362-3.028-3.029V10.499z
		 M33.684,20.389c7.459,0,13.506,5.856,13.506,13.087c0,7.223-6.047,13.084-13.506,13.084c-7.456,0-13.502-5.861-13.502-13.084
		C20.182,26.245,26.229,20.389,33.684,20.389z M59.639,56.839c0,1.471-1.198,2.668-2.67,2.668H10.146c-1.47,0-2.67-1.197-2.67-2.668
		V28.433h6.172c-0.558,1.832-0.865,3.764-0.865,5.773c0,11.18,9.361,20.249,20.901,20.249c11.544,0,20.904-9.068,20.904-20.249
		c0-2.009-0.303-3.941-0.864-5.773h5.916V56.839z"/> </g> </symbol><symbol viewBox="0 0 16 15.293" id="shape-linkedin"><title>linkedin</title> <g> <path d="M1.939,0C0.768,0,0,0.771,0,1.783c0,0.99,0.744,1.783,1.895,1.783h0.022c1.196,0,1.94-0.793,1.94-1.783
		C3.836,0.771,3.113,0,1.939,0z"/> <rect x="0.202" y="4.977" width="3.431" height="10.316"/> <path d="M12.051,4.734c-1.82,0-2.635,0.998-3.092,1.703v0.033H8.937c0.008-0.01,0.017-0.021,0.022-0.033V4.977H5.53
		c0.044,0.967,0,10.316,0,10.316h3.429V9.531c0-0.311,0.022-0.615,0.113-0.836c0.248-0.615,0.813-1.256,1.76-1.256
		c1.242,0,1.738,0.947,1.738,2.334v5.52H16V9.377C16,6.207,14.307,4.734,12.051,4.734z"/> <path d="M8.959,6.471V6.438C8.953,6.449,8.944,6.461,8.937,6.471H8.959z"/> </g> </symbol><symbol viewBox="0 0 20 25" id="shape-play"><title>play</title>  <g id="play-Shape_1_1_"> <g> <path d="M19.228,11.074L2.653,0.285C2.113-0.066,1.471-0.095,0.9,0.208C0.329,0.511,0,1.055,0,1.694v21.576
			c0,0.64,0.329,1.184,0.9,1.486c0.57,0.303,1.213,0.274,1.753-0.077l16.574-10.789c0.495-0.322,0.769-0.822,0.769-1.408
			S19.723,11.396,19.228,11.074z"/> </g> </g> </symbol><symbol viewBox="0 0 16 13.002" id="shape-twitter"><title>twitter</title> <g> <path d="M15.559,0.238c-0.635,0.377-1.338,0.65-2.085,0.797C12.875,0.398,12.021,0,11.078,0
		C9.265,0,7.795,1.469,7.795,3.281c0,0.258,0.029,0.508,0.085,0.748C5.152,3.893,2.732,2.586,1.114,0.6
		C0.832,1.084,0.67,1.648,0.67,2.25c0,1.139,0.579,2.145,1.46,2.732c-0.538-0.018-1.044-0.164-1.487-0.41c0,0.014,0,0.027,0,0.041
		c0,1.59,1.133,2.916,2.633,3.219C3.001,7.906,2.711,7.947,2.411,7.947c-0.212,0-0.417-0.021-0.617-0.059
		c0.417,1.303,1.63,2.252,3.065,2.279c-1.123,0.881-2.537,1.404-4.076,1.404c-0.265,0-0.525-0.016-0.783-0.045
		c1.453,0.932,3.178,1.475,5.032,1.475c6.038,0,9.34-5.002,9.34-9.34c0-0.143-0.003-0.283-0.01-0.424
		C15.004,2.775,15.561,2.197,16,1.539c-0.588,0.26-1.221,0.438-1.885,0.516C14.793,1.648,15.312,1.006,15.559,0.238z"/> </g> </symbol><symbol viewBox="0 0 16 15.65" id="shape-youtube"><title>youtube</title> <g> <path d="M12.279,10.531c-0.129,0-0.221,0.037-0.277,0.113c-0.057,0.07-0.084,0.193-0.084,0.363v0.408h0.716v-0.408
		c0-0.17-0.029-0.293-0.085-0.363C12.494,10.568,12.402,10.531,12.279,10.531z"/> <polygon points="4.252,6.047 5.277,6.047 5.277,3.539 6.472,0 5.43,0 4.794,2.418 4.729,2.418 4.063,0 3.03,0 
		4.252,3.65 	"/> <path d="M9.488,10.518c-0.058,0-0.115,0.014-0.172,0.039c-0.057,0.027-0.111,0.068-0.167,0.125v2.523
		c0.065,0.064,0.13,0.115,0.192,0.143c0.062,0.029,0.127,0.045,0.195,0.045c0.1,0,0.172-0.029,0.219-0.088
		c0.046-0.057,0.069-0.148,0.069-0.279v-2.09c0-0.139-0.027-0.242-0.085-0.312C9.682,10.553,9.597,10.518,9.488,10.518z"/> <path d="M10.566,6.113c0.171,0,0.347-0.051,0.528-0.145c0.183-0.094,0.357-0.234,0.524-0.416v0.494h0.912V1.586
		h-0.912v3.387c-0.085,0.098-0.179,0.176-0.28,0.24c-0.103,0.062-0.188,0.094-0.255,0.094c-0.085,0-0.148-0.023-0.186-0.072
		c-0.037-0.047-0.059-0.123-0.059-0.229v-3.42H9.93v3.729c0,0.266,0.054,0.465,0.16,0.596C10.197,6.045,10.354,6.113,10.566,6.113z"/> <path d="M7.861,6.16c0.414,0,0.739-0.109,0.977-0.326C9.073,5.615,9.19,5.318,9.19,4.936V2.631
		c0-0.338-0.12-0.619-0.359-0.834C8.589,1.582,8.28,1.475,7.903,1.475c-0.414,0-0.745,0.102-0.99,0.307
		C6.669,1.984,6.546,2.26,6.546,2.605v2.312c0,0.379,0.12,0.68,0.358,0.904C7.144,6.047,7.463,6.16,7.861,6.16z M7.483,2.572
		c0-0.098,0.035-0.176,0.104-0.236c0.07-0.061,0.161-0.09,0.271-0.09c0.121,0,0.219,0.029,0.293,0.09s0.111,0.139,0.111,0.236v2.43
		c0,0.119-0.037,0.215-0.11,0.283C8.08,5.354,7.982,5.387,7.858,5.387c-0.12,0-0.213-0.031-0.277-0.102
		c-0.064-0.066-0.098-0.16-0.098-0.283V2.572z"/> <path d="M13.077,7.453H2.922C1.308,7.453,0,8.764,0,10.377v2.35c0,1.613,1.308,2.924,2.922,2.924h10.155
		C14.69,15.65,16,14.34,16,12.727v-2.35C16,8.764,14.69,7.453,13.077,7.453z M5.056,9.283H4.111v4.691H3.199V9.283H2.256V8.484h2.8
		V9.283z M7.723,13.975h-0.81v-0.445c-0.149,0.164-0.305,0.289-0.467,0.375c-0.161,0.088-0.318,0.129-0.47,0.129
		c-0.188,0-0.328-0.059-0.424-0.182c-0.094-0.121-0.142-0.299-0.142-0.541V9.924h0.81v3.107c0,0.096,0.018,0.164,0.05,0.207
		c0.035,0.045,0.091,0.064,0.166,0.064c0.059,0,0.135-0.027,0.226-0.084C6.754,13.16,6.837,13.088,6.913,13V9.924h0.81V13.975z
		 M10.659,13.139c0,0.285-0.062,0.504-0.19,0.658c-0.126,0.154-0.311,0.229-0.55,0.229c-0.159,0-0.3-0.027-0.423-0.088
		c-0.124-0.059-0.241-0.148-0.347-0.273v0.311H8.331v-5.49h0.818v1.768c0.109-0.121,0.226-0.217,0.347-0.281
		C9.62,9.906,9.744,9.875,9.87,9.875c0.257,0,0.452,0.086,0.587,0.258c0.136,0.174,0.202,0.426,0.202,0.758V13.139z M13.467,12.047
		h-1.549v0.762c0,0.213,0.026,0.361,0.079,0.445c0.054,0.082,0.146,0.123,0.274,0.123c0.135,0,0.229-0.035,0.282-0.105
		c0.052-0.07,0.08-0.225,0.08-0.463v-0.184h0.833v0.207c0,0.416-0.101,0.729-0.306,0.939c-0.201,0.209-0.505,0.312-0.908,0.312
		c-0.362,0-0.648-0.109-0.856-0.334c-0.207-0.221-0.312-0.527-0.312-0.918v-1.818c0-0.35,0.114-0.639,0.344-0.859
		s0.523-0.33,0.886-0.33c0.371,0,0.656,0.102,0.854,0.307c0.199,0.205,0.299,0.498,0.299,0.883V12.047z"/> </g> </symbol></svg>