<?xml version="1.0" encoding="UTF-8"?>
<svg width="364px" height="94px" viewBox="0 0 364 94" version="1.1" xmlns="http://www.w3.org/2000/svg" xmlns:xlink="http://www.w3.org/1999/xlink">
    <!-- Generator: Sketch 55.1 (78136) - https://sketchapp.com -->
    <title>JSL-logo-update-whiteblue</title>
    <desc>Created with Sketch.</desc>
    <g id="Page-1" stroke="none" stroke-width="1" fill="none" fill-rule="evenodd">
        <g id="JSL-logo-update-whiteblue" fill-rule="nonzero">
            <g id="Group" fill="#FFFFFF">
                <path d="M20.98,28.84 C20.98,32.42 18.76,34.83 15.45,34.83 C12.38,34.83 10.13,32.94 9.44,29.78 L9.25,28.91 L0.26,29.79 L0.36,30.79 C1.18,38.65 7.76,44.57 15.68,44.57 C25.6,44.57 31.3,37.97 31.3,26.47 L31.3,1.38 L20.98,1.38 L20.98,28.84 Z" id="Path"></path>
                <path d="M65.92,24.62 C65.92,31.66 63.06,34.94 56.93,34.94 C50.87,34.94 48.05,31.66 48.05,24.62 L48.05,1.38 L37.96,1.38 L37.96,26.76 C37.96,37.58 45.41,44.57 56.93,44.57 C68.52,44.57 76.01,37.58 76.01,26.76 L76.01,1.38 L65.92,1.38 L65.92,24.62 Z" id="Path"></path>
                <path d="M100.3,1.38 L83.18,1.38 L83.18,44.11 L101.63,44.11 C112.57,44.11 121.81,34.34 121.81,22.78 C121.81,10.98 112.16,1.38 100.3,1.38 Z M93.22,10.95 L100.31,10.95 C106.58,10.95 111.67,16.25 111.67,22.78 C111.67,29.16 106.76,34.55 100.94,34.55 L93.22,34.55 L93.22,10.95 L93.22,10.95 Z" id="Shape"></path>
                <path d="M143.74,1.38 L126.62,1.38 L126.62,44.11 L145.07,44.11 C156.01,44.11 165.25,34.34 165.25,22.78 C165.25,10.98 155.6,1.38 143.74,1.38 Z M136.65,10.95 L143.74,10.95 C150.01,10.95 155.1,16.25 155.1,22.78 C155.1,29.16 150.19,34.55 144.37,34.55 L136.65,34.55 L136.65,10.95 L136.65,10.95 Z" id="Shape"></path>
                <path d="M197.8,17.99 C191.57,16.58 189.57,15.48 189.57,13.48 C189.57,11.39 191.67,10.09 195.04,10.09 C198.48,10.09 203.31,11.15 207.07,12.73 L207.93,13.09 L212.18,4.73 L211.21,4.31 C207.67,2.77 202.02,0.93 195.21,0.93 C185.63,0.93 179.19,6.25 179.19,14.18 C179.19,23.09 187.05,25.63 195.1,27.46 C201.07,28.85 202.99,29.92 202.99,31.86 C202.99,35.01 199.16,35.48 196.88,35.48 C191.99,35.48 188.35,35 183.1,32.46 L182.19,32.02 L178.34,40.23 L179.21,40.67 C185.96,44.05 189.63,44.65 196.58,44.65 C206.77,44.65 213.350048,39.36 213.350048,31.17 C213.37,23.12 207.14,20.08 197.8,17.99 Z" id="Path"></path>
                <polygon id="Path" points="245.85 21.2 229.07 21.2 229.07 1.38 219.04 1.38 219.04 44.11 229.07 44.11 229.07 30.3 245.85 30.3 245.85 44.11 255.94 44.11 255.94 1.38 245.85 1.38"></polygon>
                <path d="M280.93,1.38 L260.57,44.11 L271.53,44.11 L275.17,35.85 L292.07,35.85 L295.77,44.11 L306.73,44.11 L286.31,1.38 L280.93,1.38 L280.93,1.38 Z M288.21,26.97 L279.02,26.97 L283.59,16.92 L288.21,26.97 Z" id="Shape"></path>
                <polygon id="Path" points="352.32 1.38 343.75 24.47 333.39 1.38 328.69 1.38 318.27 24.48 309.69 1.38 298.57 1.38 315.42 44.11 320.17 44.11 331.01 18.89 341.91 44.11 346.65 44.11 363.44 1.38"></polygon>
            </g>
            <g id="Group" transform="translate(51.000000, 67.000000)" fill="#1E99D3">
                <rect id="Rectangle" x="0.3" y="0.57" width="4.43" height="25.07"></rect>
                <polygon id="Path" points="32.38 17.45 19.94 0.57 15.81 0.57 15.81 25.64 20.24 25.64 20.24 8.39 32.86 25.64 36.82 25.64 36.82 0.57 32.38 0.57"></polygon>
                <path d="M56.24,17.75 C56.24,20.3 54.68,21.95 52.25,21.95 C50.77,21.95 49.54,21.29 48.37,19.89 L47.73,19.12 L45.33,22.64 L45.7,23.08 C47.41,25.09 49.61,26.06 52.42,26.06 C57.5,26.06 60.66,22.89 60.66,17.78 L60.66,0.56 L56.23,0.56 L56.23,17.75 L56.24,17.75 Z" id="Path"></path>
                <path d="M88.04,15.67 C88.04,19.72 85.93,21.95 82.11,21.95 C78.29,21.95 76.18,19.72 76.18,15.67 L76.18,0.57 L71.75,0.57 L71.75,15.74 C71.75,22.21 75.62,26.07 82.11,26.07 C88.69,26.07 92.47,22.29 92.47,15.71 L92.47,0.58 L88.04,0.58 L88.04,15.67 Z" id="Path"></path>
                <path d="M121.91,8.42 C121.91,3.72 118.64,0.57 113.77,0.57 L103.55,0.57 L103.55,25.64 L107.98,25.64 L107.98,16.28 L111.52,16.28 L117.53,25.64 L122.8,25.64 L116.31,15.83 C119.25,15.11 121.91,12.69 121.91,8.42 Z M117.37,8.42 C117.37,10.68 115.78,12.19 113.42,12.19 L107.99,12.19 L107.99,4.68 L113.42,4.68 C115.78,4.69 117.37,6.19 117.37,8.42 Z" id="Shape"></path>
                <polygon id="Path" points="140.59 10.92 133.68 0.57 128.43 0.57 138.39 15.16 138.39 25.64 142.82 25.64 142.82 15.16 152.75 0.57 147.5 0.57"></polygon>
                <polygon id="Path" points="181.34 0.57 176.91 0.57 176.91 25.64 192.29 25.64 192.29 21.53 181.34 21.53"></polygon>
                <path d="M209.27,0.57 L199.2,25.64 L204.18,25.64 L206.26,20.41 L216.97,20.41 L219.05,25.64 L224.03,25.64 L213.92,0.57 L209.27,0.57 Z M215.5,16.3 L207.7,16.3 L211.61,6.41 L215.5,16.3 Z" id="Shape"></path>
                <polygon id="Path" points="255.49 0.57 250.86 18.09 246.04 0.57 242.46 0.57 237.63 18.1 232.97 0.57 228.15 0.57 235.29 25.64 239.61 25.64 244.23 8.73 248.85 25.64 253.17 25.64 260.31 0.57"></polygon>
            </g>
            <path d="M352.42,57.65 L10.78,57.65 C9.82,57.65 9.05,56.72 9.05,55.58 C9.05,54.44 9.83,53.51 10.78,53.51 L352.42,53.51 C353.38,53.51 354.150095,54.44 354.150095,55.58 C354.16,56.72 353.38,57.65 352.42,57.65 Z" id="Path" fill="#1E99D3"></path>
        </g>
    </g>
</svg>